<svg xmlns="http://www.w3.org/2000/svg" width="1014.475" height="946" viewBox="0 0 1014.475 946"><g transform="translate(-178.036 -82)"><g transform="translate(38 -58)"><g transform="translate(16 -86)"><rect width="50" height="246" transform="matrix(0.809, 0.588, -0.588, 0.809, 1010.072, 786.796)" fill="#ddd1c3"/><rect width="50" height="246" transform="matrix(-0.588, 0.809, -0.809, -0.588, 1072.204, 953.072)" fill="#ebe1d5"/><rect width="42" height="240" transform="matrix(0.809, 0.588, -0.588, 0.809, 1006.545, 800.65)" fill="#ebe1d5"/></g><g transform="translate(30 62)"><path d="M155.688-11.258c208.518-25.614,273.9,148.033,283.756,281.032L463.092,588.9l-421.6-28.958L11.114,149.989C4.976,67.152,16.48,11.111,155.688-11.258Z" transform="translate(108.925 492.606) rotate(-31)" fill="#ebe1d6"/><path d="M164.954-9.482c192.631.688,229.861,136.226,239.48,257.707l24.491,309.294L41.908,529.253,10.848,137C4.857,61.337,12.931-5.436,164.954-9.482Z" transform="translate(131.52 497.434) rotate(-31)" fill="#ddd1c3"/></g><path d="M180,0h0A289,289,0,0,1,469,289V655a0,0,0,0,1,0,0H0a0,0,0,0,1,0,0V180A180,180,0,0,1,180,0Z" transform="translate(436 373)" fill="#ebe1d6"/><path d="M162.345,0h0A260.655,260.655,0,0,1,423,260.655V630a0,0,0,0,1,0,0H0a0,0,0,0,1,0,0V162.345A162.345,162.345,0,0,1,162.345,0Z" transform="translate(460 398)" fill="#ddd1c3"/><rect width="50" height="246" transform="translate(607 140)" fill="#ddd1c3"/><rect width="50" height="246" transform="translate(755 238) rotate(90)" fill="#ebe1d5"/><g transform="translate(328 945)" fill="#b26215" stroke="#707070" stroke-width="1"><ellipse cx="344" cy="70.5" rx="344" ry="70.5" stroke="none"/><ellipse cx="344" cy="70.5" rx="343.5" ry="70" fill="none"/></g><text transform="translate(496 699)" fill="#3c3939" font-size="126" font-family="Arial-Black, Arial Black" font-weight="800"><tspan x="0" y="0">R.I.P</tspan></text><rect width="42" height="236" transform="translate(615 150)" fill="#ebe1d5"/><path d="M347.5,0C646.074,1.955,695,197,695,197s-167.879,42.275-347.5,42.761S41.136,197,41.136,197,48.926-1.955,347.5,0Z" transform="translate(310 817)" fill="#351e09"/><path d="M338.6,0C628.5,1.955,676,197,676,197s-163,42.275-337.4,42.761S39.541,188.567,39.541,188.567,48.7-1.955,338.6,0Z" transform="translate(329 825)" fill="#502b13"/><g transform="translate(-388.222 254.249) rotate(-19)"><path d="M-483.631-1504.516l38.716-56.064,68.407-16.772-28.114,32.1-1.038,31.381-25.594,4.474-14.979,27.838-34.375-5.233v26.449l-27.535,48.288-33.572-48.288v-33.368l-31.264,16.432-15.544-36.593h-23.122l-3.416-33.59-29.926-27.958,67.451,10.29,43.123,60.615h9.922v-6.641l-21.259-24.2v-50.166l22.939,24.946,26.912,1.367,21.454-26.313v45.116l-17.175,31.013v6.486Z" transform="matrix(0.978, 0.208, -0.208, 0.978, 1015.053, 2012.329)" fill="#4d776c"/><path d="M746-1408h8.26l3.1,13.752Z" transform="matrix(0.995, -0.105, 0.105, 0.995, 222.575, 1864.896)" fill="#fff"/><path d="M760.07-1408H749.841L746-1394.248Z" transform="translate(-338.8 1457.278) rotate(20)" fill="#fff"/></g><g transform="translate(-634.809 332.105) rotate(-19)"><path d="M129.551,66.753l31.033-45.041,54.86-13.455L192.906,34.044l-.821,25.218-20.526,3.587-12,22.366L131.982,81l.009,21.255-22.067,38.8L82.981,102.231l-.012-26.815L57.9,88.61,45.42,59.2,26.876,59.19,24.124,32.2.111,9.717l54.1,8.293L88.822,66.736l7.958,0,0-5.337L79.718,41.945,79.7,1.63,98.108,21.686l21.585,1.108,17.2-21.138.016,36.256L123.143,62.828l0,5.212Z" transform="matrix(0.978, 0.208, -0.208, 0.978, 706.995, 325.766)" fill="#3f5c54"/><path d="M0,0H8.26l3.1,13.752Z" transform="matrix(0.995, -0.105, 0.105, 0.995, 788.545, 374.422)" fill="#fff"/><path d="M14.07,0H3.841L0,13.752Z" transform="translate(809.891 376.13) rotate(20)" fill="#fff"/></g><g transform="translate(185.23 521.358) rotate(-19)"><path d="M111.188,54.8l26.834-38.255L185.266,4.987,165.8,26.9l-.78,21.37-17.672,3.1L136.951,70.359l-23.713-3.493-.054,18.01-19.1,32.938L71.012,85l.068-22.722L49.471,73.532,38.818,48.647l-15.957.047L20.572,25.829-.024,6.852l46.529,6.869L76.142,54.907l6.847-.02L83,50.365,68.381,33.927l.1-34.16,15.78,16.94,18.57.876L117.694-.378,117.6,30.343,105.685,51.5l-.013,4.416Z" transform="matrix(0.978, 0.208, -0.208, 0.978, 702.738, 327.384)" fill="#094031"/><path d="M0,0H8.26l3.1,13.752Z" transform="matrix(0.995, -0.105, 0.105, 0.995, 772.294, 366.766)" fill="#fff"/><path d="M14.07,0H3.841L0,13.752Z" transform="translate(790.761 367.847) rotate(20)" fill="#fff"/></g></g></g></svg>