<svg xmlns="http://www.w3.org/2000/svg" width="1196.366" height="1421.331" viewBox="0 0 1196.366 1421.331"><g transform="translate(-84.634 -4371.545)"><path d="M-516.3,2040.073l130.1-19.99-5.893-197.7s45-46.809,47.182-63.153,0-34.25,0-34.25,24.062-5.569,25.418,7.931,10.241,29.889,10.241,29.889l18.742,3.476-7.641-63.939s-14.359-13.7-28.78-12.7,7.438-17.312,7.438-17.312l39.485-5.273,27.1,5.273,6.469-10.346s-32.423-28.479-51.715-25.989-50.759,12.389-50.759,12.389,11.677-33.8,29.417-36.588,61.837-5.56,61.837-5.56l-7.07-18.118-62.2,2.662s-13.92,3.087-21.979,11.691-16.84,21.938-16.84,21.938l-5.957-21.938s24.45-27.355,41.889-30.694,45.433-5.583,45.433-5.583l4.378-19.383s-73.189-1.25-85.743,8.51-40.135,50.914-40.135,50.914,3.853,21.738,0,29.759-76.627,151.887-77.494,167.62-4.373,89.763-4.373,89.763Z" transform="translate(845 3161.831)" fill="#512914"/><path d="M-330.588,2049.677l173.964-10.043L-128.5,1811.68s10.592-54.67-7.251-88.295-104.4-188.941-104.4-188.941-18.869-81.366-84.444-101.7-101.885,2.646-101.885,2.646l11.942,22.516s55.4-1.714,69.01,6.04,55.948,37.913,58.836,53.473-17.482,9.228-17.482,9.228-30.045-43.338-60.176-43.226-80.441,11.467-80.441,11.467,1.145,19.136,18.309,19.774,59.536,0,59.536,0,43.039,22.305,48.226,33.011-16.979,10.887-16.979,10.887-31.7-13.958-46.759-7.975-59.961,46.608-59.961,46.608,19.749,16.186,30.711,10,33.932-17.97,33.932-17.97h29.682s11.645,7.351,12.395,15.091-16.234,15.736-16.234,15.736-24.054,13.828-22.735,23.834-3.108,69.542-3.108,69.542,21.869,2.63,25.843-13.494,19.732-44.856,19.732-44.856,13.7-10.8,18.261,0,2.971,44.856,2.971,44.856l63.857,64.954s18.777,18.985,6.958,49.753S-335.7,1990.292-335.7,1990.292l-12.395,59.385Z" transform="translate(1321.598 2947.195)" fill="#502b13"/><path d="M1213.961,1228.473v-53.492l-56.678,17.709-26.028-65.575-97.922-81.891,71.54,147.466-96.2-65.575v65.575L943.542,1166.1l-29.612,62.369-51.9-14.641v31.129l-11.037,34.561L683.873,1312.1l-110.547,49.444L418,1412.266l-25.619-73.419-12.293,83.591-25.319-60.9-10.891,38.728-78.13-75.771,57.566,109.252L248.7,1422.438,265.749,1450H185.931l-17.866,30.992H127.9L17.595,1529.867v49.873l1196.366-300.218Z" transform="translate(67.039 3731)" fill="#5a8b81"/><path d="M9.634,2090.413,1206,1766.462v836.625l-1194.245.777Z" transform="translate(75 3189.01)" fill="#47230d"/></g></svg>