<svg xmlns="http://www.w3.org/2000/svg" xmlns:xlink="http://www.w3.org/1999/xlink" width="200.348" height="190.789" viewBox="0 0 200.348 190.789"><defs><clipPath id="a"><rect width="200.348" height="190.789" fill="none"/></clipPath><clipPath id="c"><path d="M132.79,31.35c.725.972,2.149,2.042,4.9,1.513a91.863,91.863,0,0,1,10.634-.892,47.068,47.068,0,0,0-11.531-1.305h-.084a12.183,12.183,0,0,0-3.919.685" fill="none"/></clipPath><linearGradient id="d" x1="-8.548" y1="58.714" x2="-8.484" y2="58.714" gradientUnits="objectBoundingBox"><stop offset="0" stop-color="#fe7401"/><stop offset="0.138" stop-color="#fe9433"/><stop offset="0.277" stop-color="#feaf5d"/><stop offset="0.418" stop-color="#fec680"/><stop offset="0.56" stop-color="#fed79c"/><stop offset="0.704" stop-color="#fee4af"/><stop offset="0.849" stop-color="#feebbb"/><stop offset="1" stop-color="#ffeebf"/></linearGradient><clipPath id="f"><path d="M66.155,31.115a47.06,47.06,0,0,0-11.53,1.3,91.823,91.823,0,0,1,10.631.893c2.752.529,4.176-.541,4.9-1.514a12.19,12.19,0,0,0-3.916-.684h-.085" fill="none"/></clipPath><linearGradient id="g" x1="-3.517" y1="58.549" x2="-3.453" y2="58.549" xlink:href="#d"/><clipPath id="i"><path d="M104.1,2l-1.025,5.431,4.834,2.384,4.481-1.207,3.265-2.787-3.1-3.189s-3.746-1.35-3.969-1.379h-.016c-.359,0-4.466.748-4.466.748" fill="none"/></clipPath><linearGradient id="j" x1="-9.5" y1="13.683" x2="-9.409" y2="13.683" gradientUnits="objectBoundingBox"><stop offset="0" stop-color="#374c00"/><stop offset="0.244" stop-color="#3b5100"/><stop offset="0.556" stop-color="#466100"/><stop offset="0.904" stop-color="#597b00"/><stop offset="1" stop-color="#608400"/></linearGradient><clipPath id="k"><path d="M95.461,24.713C91.535,40.647,75.342,44.536,75.342,44.536l30.389-.613a19.528,19.528,0,0,1-1.5-4.1c-.672-2.594-.254-7.751,1.025-11.812,1.505-4.783,1.743-10.907,5.509-15.988A17.982,17.982,0,0,1,113.551,8.9s-4.951-.526-6.742-1.617c-4.483-2.731-5.038-4.788-5.038-4.788s-2.384,6.285-6.31,22.223" fill="none"/></clipPath><linearGradient id="l" x1="-1.338" y1="3.925" x2="-1.318" y2="3.925" gradientUnits="objectBoundingBox"><stop offset="0" stop-color="#557500"/><stop offset="0.486" stop-color="#587a00"/><stop offset="1" stop-color="#628700"/></linearGradient><clipPath id="n"><path d="M106.845,5.525A11.312,11.312,0,0,1,104.2,2.777a3.431,3.431,0,0,1,.861-.592,16.213,16.213,0,0,1,3.537-.342,26.727,26.727,0,0,1,4.2,2.09c.653.462,1.46,1.117,2.172,1.713l-2.108,1.419c-1.172-.017-4.23-.2-6.013-1.54M109.027,0a20.411,20.411,0,0,0-4.778.5,7.421,7.421,0,0,0-2.478,1.993,11.106,11.106,0,0,0,3.756,4.443c2.945,2.222,8.024,1.962,8.024,1.962l4.567-3.073s-2.431-2.183-4.056-3.332A31.519,31.519,0,0,0,109.027,0Z" fill="none"/></clipPath><linearGradient id="o" x1="-7.618" y1="10.668" x2="-7.544" y2="10.668" gradientUnits="objectBoundingBox"><stop offset="0" stop-color="#97a800"/><stop offset="0.245" stop-color="#9bad00"/><stop offset="0.556" stop-color="#a9bd00"/><stop offset="0.901" stop-color="#c0d700"/><stop offset="1" stop-color="#c8e000"/></linearGradient><clipPath id="q"><path d="M113.551,8.9s-6.684,2.408-10.5,16.506,3.389,19.135,3.389,19.135a15.153,15.153,0,0,1,3.854-1.3c2.15-.4,4.961-.946,4.961-.946s-7.5-1.509-8.049-8.538c-.286-3.719.769-9.884,3.088-16.551a29.892,29.892,0,0,1,7.823-11.38Z" fill="none"/></clipPath><linearGradient id="r" x1="-2.088" y1="6.592" x2="-2.064" y2="6.592" gradientUnits="objectBoundingBox"><stop offset="0" stop-color="#557500"/><stop offset="0.207" stop-color="#587a00"/><stop offset="0.469" stop-color="#648a00"/><stop offset="0.76" stop-color="#76a400"/><stop offset="1" stop-color="#8abf00"/></linearGradient><clipPath id="t"><path d="M137.058,34.861C110.692,47,113.27,54.669,113.27,96s20.353,74.838,45.46,74.838,43.649-30.662,40.574-75.719c-2.611-38.236-25.622-63.255-48.739-63.257a32.075,32.075,0,0,0-13.507,3" fill="none"/></clipPath><linearGradient id="u" x1="-1.152" y1="1.134" x2="-1.141" y2="1.134" gradientUnits="objectBoundingBox"><stop offset="0" stop-color="#fe5e01"/><stop offset="0.231" stop-color="#fe6004"/><stop offset="0.428" stop-color="#fe690e"/><stop offset="0.614" stop-color="#fe7720"/><stop offset="0.792" stop-color="#fe8b39"/><stop offset="0.964" stop-color="#fea559"/><stop offset="1" stop-color="#ffac61"/></linearGradient><clipPath id="v"><path d="M130.744,38.907c-26.365,12.143-23.786,19.81-23.786,61.141s20.353,74.838,45.457,74.838,43.65-30.66,40.575-75.718c-2.61-38.238-25.622-63.255-48.739-63.258a32.06,32.06,0,0,0-13.507,3" fill="none"/></clipPath><linearGradient id="w" x1="-1.138" y1="1.114" x2="-1.128" y2="1.114" gradientUnits="objectBoundingBox"><stop offset="0" stop-color="#e05301"/><stop offset="0.429" stop-color="#de5801"/><stop offset="0.965" stop-color="#db6702"/><stop offset="1" stop-color="#db6903"/></linearGradient><clipPath id="y"><path d="M139.938,33.7l.151-.016-.252.054s15.2-.283,22.587,4.269A60.334,60.334,0,0,1,173.2,46.373a21.352,21.352,0,0,0-5.886-7.946,52.853,52.853,0,0,1,13.9,10.087c2.743,2.689,4.678,4.482,6.015,5.747-9.368-14.347-22.639-22.648-35.952-22.647A31.883,31.883,0,0,0,139.938,33.7" fill="none"/></clipPath><linearGradient id="z" x1="-3.096" y1="3.349" x2="-3.074" y2="3.349" gradientUnits="objectBoundingBox"><stop offset="0" stop-color="#fe8009"/><stop offset="0.12" stop-color="#fe9933"/><stop offset="0.262" stop-color="#feb35d"/><stop offset="0.406" stop-color="#fec880"/><stop offset="0.551" stop-color="#fed89c"/><stop offset="0.697" stop-color="#fee4af"/><stop offset="0.846" stop-color="#feebbb"/><stop offset="1" stop-color="#ffeebf"/></linearGradient><clipPath id="ab"><path d="M138.97,39.312c-19.571,3.556-36.085,26.269-36.085,67.6s19.056,75.563,44.852,74.755c25.119-.787,46.771-33.485,44.68-74.755-2.271-44.891-22.057-68.257-46.3-68.259a39.889,39.889,0,0,0-7.15.658" fill="none"/></clipPath><linearGradient id="ac" x1="-0.906" y1="1.027" x2="-0.897" y2="1.027" gradientUnits="objectBoundingBox"><stop offset="0" stop-color="#fe7a01"/><stop offset="0.389" stop-color="#fe7b03"/><stop offset="0.639" stop-color="#fe820c"/><stop offset="0.85" stop-color="#fe8d1b"/><stop offset="1" stop-color="#fe992b"/></linearGradient><clipPath id="ad"><path d="M170.607,87.558c1.9,9.219,2.914,49.549,2.914,49.549l6.272.313s-.893-.923-1.5-4.583.631-6.326.9-18.989-1.74-21.884-4.519-32.933A61.006,61.006,0,0,0,162,57.056c-3.524-4.067-7.591-6.981-7.591-7.53s1.732.224,1.732.224l-3.263-2.97-5.364-.483s21.2,32.043,23.1,41.261" fill="none"/></clipPath><linearGradient id="ae" x1="-4.311" y1="1.579" x2="-4.282" y2="1.579" gradientUnits="objectBoundingBox"><stop offset="0" stop-color="#fe5e01"/><stop offset="0.372" stop-color="#fe6301"/><stop offset="0.84" stop-color="#fe7202"/><stop offset="1" stop-color="#ff7a03"/></linearGradient><clipPath id="ag"><path d="M83.245,118.4c0,41.9,19.644,67.674,44.725,67.674s51.8-19.375,50.209-72.762c-1.559-52.372-24.438-70.773-49.521-70.773S83.245,76.509,83.245,118.4" fill="none"/></clipPath><linearGradient id="ah" x1="-0.694" y1="1.002" x2="-0.685" y2="1.002" xlink:href="#w"/><clipPath id="aj"><path d="M138.97,39.312c-.053.012-.106.028-.159.04.36.007.709.029,1.064.042,3.33.211,13.777,1.532,20.415,9.749,6.593,8.162,7.754,11.252,7.754,11.252s-3.254-9.374-7.524-14.022a39.049,39.049,0,0,0-3.439-3.359c16.773,6.956,27.658,23.2,32.833,43.46-6.428-31.519-23.555-47.821-43.8-47.82a39.937,39.937,0,0,0-7.146.658" fill="none"/></clipPath><linearGradient id="ak" x1="-1.905" y1="2.352" x2="-1.891" y2="2.352" xlink:href="#z"/><clipPath id="am"><path d="M136.671,53.812l12.653,91.725,4.5,6.684s6.343-2.168,3.3-8.09-1.841-17.53-1.256-31.764a110.717,110.717,0,0,0-6.685-41.755c-3.234-8.963-3.764-12.7-3.771-14.175a2.075,2.075,0,0,1,.1-.881l-5.684-4.6Z" fill="none"/></clipPath><linearGradient id="an" x1="-5.816" y1="1.381" x2="-5.774" y2="1.381" gradientUnits="objectBoundingBox"><stop offset="0" stop-color="#fe6901"/><stop offset="0.502" stop-color="#fe6e01"/><stop offset="1" stop-color="#ff7a03"/></linearGradient><clipPath id="ap"><path d="M86.586,117.12c-1.927,53.626,10.034,72.129,31.245,72.129,25.834,0,36-24.2,36-74.495,0-43.223-13-73.758-38.018-73.758C94.6,41,88.534,63.017,86.586,117.12" fill="none"/></clipPath><linearGradient id="aq" x1="-0.9" y1="0.988" x2="-0.889" y2="0.988" gradientUnits="objectBoundingBox"><stop offset="0" stop-color="#e05301"/><stop offset="0.305" stop-color="#e45801"/><stop offset="0.688" stop-color="#f06802"/><stop offset="1" stop-color="#ff7a03"/></linearGradient><clipPath id="as"><path d="M145.521,52.61c6.222,7.427,8.46,12.111,8.46,12.111s-2.947-10.054-7.445-14.517c-.829-.824-1.542-1.5-2.154-2.048,17.245,9.218,26.294,25.8,30.72,46.106-5.836-36.408-24.716-50.638-45.585-51.674,1.079.26,2.126.547,3.159.848l-3.159-.848-2.5-.066s11.9,2.2,18.509,10.088" fill="none"/></clipPath><linearGradient id="at" x1="-1.644" y1="2.249" x2="-1.63" y2="2.249" gradientUnits="objectBoundingBox"><stop offset="0" stop-color="#fe8801"/><stop offset="0.138" stop-color="#fea233"/><stop offset="0.277" stop-color="#feb95d"/><stop offset="0.418" stop-color="#fecc80"/><stop offset="0.56" stop-color="#fedb9c"/><stop offset="0.704" stop-color="#fee5af"/><stop offset="0.849" stop-color="#feebbb"/><stop offset="1" stop-color="#ffeebf"/></linearGradient><clipPath id="av"><path d="M108.557,41.4a14.839,14.839,0,0,1,5.1,1.058,43.144,43.144,0,0,1,9.744,5.716,29.235,29.235,0,0,1,7.332,9.328s-2.958-8.632-7.17-12.092c-.476-.392-.921-.737-1.346-1.052,9.36,4.064,17.466,12.087,23.3,22.672-6.865-17.69-17.959-26.43-30.657-26.43a16.16,16.16,0,0,0-6.307.8" fill="none"/></clipPath><linearGradient id="aw" x1="-2.423" y1="3.514" x2="-2.4" y2="3.514" xlink:href="#at"/><clipPath id="ay"><path d="M76.962,117.129c-.262,50.652,2.105,72.661,23.315,72.661,25.836,0,23.976-31.777,24.869-74.411C126.413,54.811,119.281,40.6,98.068,40.6S77.224,67.49,76.962,117.129" fill="none"/></clipPath><linearGradient id="az" x1="-0.18" y1="2.003" x2="-0.173" y2="2.003" gradientUnits="objectBoundingBox"><stop offset="0" stop-color="#c92901"/><stop offset="0.09" stop-color="#d13601"/><stop offset="0.326" stop-color="#e55302"/><stop offset="0.559" stop-color="#f36802"/><stop offset="0.786" stop-color="#fc7502"/><stop offset="1" stop-color="#ff7a03"/></linearGradient><clipPath id="ba"><path d="M125.718,81.262l.032.054c-.012-.067-.019-.087-.024-.087s-.008.033-.008.033m15.3,5.212c-3.029.749-6.246-6.065-6.246-6.065s.378,5.6-2.745,6.065c-2.942.438-5.939-4.576-6.275-5.158.07.422.294,2.726.981,14.013.942,15.456.309,28.514.309,28.514s1.3-12.871,7.351-13.674,7.058,4.585,7.058,4.585,2.4-6.62,5.806-7.187,3.707,5.962,3.707,5.962.121-15.454-1.9-24.886c-1.991-9.276-3.538-11.995-3.538-11.995s-1.477,9.075-4.5,9.826" fill="none"/></clipPath><linearGradient id="bb" x1="-4.664" y1="2.388" x2="-4.627" y2="2.388" gradientUnits="objectBoundingBox"><stop offset="0" stop-color="#fe9201"/><stop offset="0.135" stop-color="#fe9406"/><stop offset="0.306" stop-color="#fe9c16"/><stop offset="0.497" stop-color="#fea830"/><stop offset="0.701" stop-color="#feba54"/><stop offset="0.914" stop-color="#fed081"/><stop offset="0.986" stop-color="#ffd993"/><stop offset="1" stop-color="#ffd993"/></linearGradient><clipPath id="bc"><path d="M160.51,82.428c-4,.446-8.2-5.674-8.2-5.674s1.94,10.143,2.541,15.508S155.91,109.7,155.91,109.7s5.657-12.206,9.776-12.138,6.823,5.6,6.823,5.6a60.386,60.386,0,0,0-1.879-16.208c-1.94-8.207-4.068-10.9-4.068-10.9s-2.055,5.928-6.052,6.372" fill="none"/></clipPath><linearGradient id="bd" x1="-7.012" y1="3.358" x2="-6.966" y2="3.358" gradientUnits="objectBoundingBox"><stop offset="0" stop-color="#fe8801"/><stop offset="0.168" stop-color="#fe8b06"/><stop offset="0.381" stop-color="#fe9316"/><stop offset="0.619" stop-color="#fea230"/><stop offset="0.872" stop-color="#feb653"/><stop offset="1" stop-color="#ffc269"/></linearGradient><clipPath id="be"><path d="M176.64,82.026c1.073,3.452,3.528,14.726,3.528,14.726s.172-6.5.88-6.568S183.6,91.4,183.6,91.4a58.885,58.885,0,0,0-4.222-11.585c-2.936-5.933-6.4-7.9-6.4-7.9s2.593,6.657,3.661,10.113" fill="none"/></clipPath><linearGradient id="bf" x1="-10.541" y1="4.4" x2="-10.479" y2="4.4" gradientUnits="objectBoundingBox"><stop offset="0" stop-color="#fe7e07"/><stop offset="0.149" stop-color="#fe810c"/><stop offset="0.338" stop-color="#fe8a1c"/><stop offset="0.549" stop-color="#fe9a36"/><stop offset="0.774" stop-color="#feb05a"/><stop offset="1" stop-color="#ffcb86"/></linearGradient><clipPath id="bg"><path d="M181.4,78.486c.836,1.637,1.238,5.847,1.238,5.847s3.927-2.255,1.7-5.181a76.588,76.588,0,0,0-5.667-6.366s2.209,4.689,2.725,5.7" fill="none"/></clipPath><linearGradient id="bh" x1="-16.96" y1="8.899" x2="-16.865" y2="8.899" xlink:href="#bf"/><clipPath id="bj"><path d="M1.045,96.119c-3.078,45.057,15.467,75.721,40.574,75.721S87.079,138.333,87.079,97s2.577-49-23.788-61.14a32.08,32.08,0,0,0-13.508-3c-23.117,0-46.129,25.02-48.738,63.256" fill="none"/></clipPath><linearGradient id="bk" x1="0.189" y1="1.433" x2="0.196" y2="1.433" xlink:href="#u"/><clipPath id="bl"><path d="M7.357,100.167c-3.076,45.058,15.469,75.718,40.575,75.718s45.459-33.508,45.459-74.838,2.577-49-23.786-61.142a32.086,32.086,0,0,0-13.506-3c-23.118,0-46.131,25.021-48.742,63.259" fill="none"/></clipPath><linearGradient id="bm" x1="-0.047" y1="1.107" x2="-0.036" y2="1.107" xlink:href="#w"/><clipPath id="bo"><path d="M13.124,55.26c1.335-1.265,3.273-3.058,6.015-5.748a52.861,52.861,0,0,1,13.9-10.086,21.343,21.343,0,0,0-5.888,7.946,60.33,60.33,0,0,1,10.77-8.366c7.389-4.551,22.589-4.269,22.589-4.269l-.251-.054c.049.007.1.01.15.017a31.883,31.883,0,0,0-11.334-2.087c-13.314,0-26.586,8.3-35.953,22.647" fill="none"/></clipPath><linearGradient id="bp" x1="-0.21" y1="3.728" x2="-0.19" y2="3.728" xlink:href="#z"/><clipPath id="br"><path d="M7.929,107.913C5.84,149.182,27.491,181.88,52.611,182.667c25.8.807,44.852-33.423,44.852-74.754s-16.515-64.046-36.086-67.6a39.9,39.9,0,0,0-7.15-.658c-24.239,0-44.025,23.368-46.3,68.26" fill="none"/></clipPath><linearGradient id="bs" x1="0.161" y1="1.249" x2="0.168" y2="1.249" xlink:href="#ac"/><clipPath id="bt"><path d="M47.472,47.778l-3.263,2.971s1.732-.774,1.732-.224-4.066,3.463-7.591,7.53A61.025,61.025,0,0,0,25.675,81.914c-2.779,11.049-4.79,20.271-4.519,32.933s1.512,15.328.9,18.988-1.5,4.584-1.5,4.584l6.272-.313s1.017-40.331,2.914-49.549S52.836,47.3,52.836,47.3Z" fill="none"/></clipPath><linearGradient id="bu" x1="0.1" y1="3.379" x2="0.111" y2="3.379" xlink:href="#ae"/><clipPath id="bw"><path d="M22.168,114.317C20.577,167.7,47.3,187.078,72.378,187.078S117.1,161.3,117.1,119.4,96.773,43.543,71.689,43.543s-47.961,18.4-49.521,70.774" fill="none"/></clipPath><linearGradient id="bx" x1="0.048" y1="1.185" x2="0.055" y2="1.185" xlink:href="#w"/><clipPath id="bz"><path d="M10.434,87.472c5.176-20.261,16.06-36.5,32.833-43.459a39.051,39.051,0,0,0-3.439,3.359C35.557,52.019,32.3,61.394,32.3,61.394s1.163-3.09,7.754-11.252c6.637-8.218,17.084-9.538,20.415-9.749.355-.013.705-.036,1.065-.042-.054-.013-.106-.028-.161-.04a39.935,39.935,0,0,0-7.145-.658c-20.243,0-37.37,16.3-43.8,47.819" fill="none"/></clipPath><linearGradient id="ca" x1="-0.02" y1="2.36" x2="-0.006" y2="2.36" xlink:href="#z"/><clipPath id="cc"><path d="M54.827,56.555a2.081,2.081,0,0,1,.1.881c-.009,1.471-.536,5.212-3.771,14.175a110.717,110.717,0,0,0-6.685,41.755c.585,14.234,1.78,25.841-1.258,31.764s3.3,8.091,3.3,8.091l4.5-6.685L63.676,54.811l-3.164-2.854Z" fill="none"/></clipPath><linearGradient id="cd" x1="-1.71" y1="1.371" x2="-1.668" y2="1.371" xlink:href="#an"/><clipPath id="cf"><path d="M46.521,115.752c0,50.295,10.161,74.5,36,74.5,21.21,0,33.172-18.5,31.244-72.13-1.947-54.1-8.014-76.123-29.22-76.123-25.019,0-38.02,30.535-38.02,73.757" fill="none"/></clipPath><linearGradient id="cg" x1="-0.023" y1="1.377" x2="-0.017" y2="1.377" xlink:href="#aq"/><clipPath id="ci"><path d="M70.832,43.587l-3.161.847c1.034-.3,2.082-.588,3.161-.847C49.963,44.623,31.081,58.853,25.247,95.261c4.424-20.31,13.473-36.888,30.719-46.107-.612.553-1.325,1.225-2.154,2.049-4.5,4.462-7.446,14.517-7.446,14.517s2.239-4.685,8.461-12.112C61.434,45.722,73.336,43.52,73.336,43.52Z" fill="none"/></clipPath><linearGradient id="cj" x1="-0.205" y1="2.221" x2="-0.191" y2="2.221" xlink:href="#at"/><clipPath id="cl"><path d="M54.827,68.026c5.837-10.585,13.941-18.608,23.3-22.672-.424.315-.87.66-1.346,1.051C72.569,49.865,69.611,58.5,69.611,58.5a29.248,29.248,0,0,1,7.333-9.328,43.106,43.106,0,0,1,9.744-5.716,14.836,14.836,0,0,1,5.1-1.059,16.157,16.157,0,0,0-6.307-.8c-12.7,0-23.793,8.741-30.657,26.431" fill="none"/></clipPath><linearGradient id="cm" x1="-1.114" y1="3.626" x2="-1.092" y2="3.626" xlink:href="#at"/><clipPath id="co"><path d="M75.2,116.377c.086,42.644-.966,74.412,24.869,74.412,21.209,0,23.578-22.01,23.315-72.661-.262-49.639.1-76.527-21.105-76.527S75.109,68.868,75.2,116.377" fill="none"/></clipPath><linearGradient id="cp" x1="-1.479" y1="0.999" x2="-1.459" y2="0.999" xlink:href="#az"/><clipPath id="cr"><path d="M81.239,62.312a45.513,45.513,0,0,1,8.16-11.74,9.772,9.772,0,0,0-.352,3.652s5.2-8.332,12.775-8.008,12.141,6.79,12.141,6.79a11.247,11.247,0,0,0-1.951-4.658,28.55,28.55,0,0,1,8.19,10.7C117.464,47.564,112.263,41.6,102.281,41.6c-10.782,0-17.878,7.3-21.042,20.711" fill="none"/></clipPath><linearGradient id="cs" x1="-4.195" y1="4.028" x2="-4.149" y2="4.028" gradientUnits="objectBoundingBox"><stop offset="0" stop-color="#fea000"/><stop offset="0.116" stop-color="#fea205"/><stop offset="0.264" stop-color="#fea815"/><stop offset="0.429" stop-color="#feb32f"/><stop offset="0.606" stop-color="#fec253"/><stop offset="0.792" stop-color="#fed582"/><stop offset="0.985" stop-color="#feecba"/><stop offset="1" stop-color="#ffeebf"/></linearGradient><clipPath id="cu"><rect width="40.69" height="55.078" transform="translate(79.977 77.055)" fill="none"/></clipPath><clipPath id="cv"><path d="M81.623,83.4s-1.048,9.76-1.462,18.956,0,27.828,0,27.828,6.792-15.582,12.385-15.333,11.513,17.286,11.513,17.286,6.179-17.251,10.4-17.286,5.887,16.4,5.887,16.4.725-16.292,0-32.9-.942-20.7-.942-20.7S113.444,89.12,108.879,89.12,96.125,77.055,96.125,77.055,90.574,87.386,87.51,87.472,81.623,83.4,81.623,83.4" fill="none"/></clipPath><linearGradient id="cw" x1="-1.283" y1="2.505" x2="-1.265" y2="2.505" xlink:href="#cs"/><clipPath id="cx"><path d="M74.6,82.315l.032-.054s0-.033-.008-.033-.012.02-.024.087M51.289,89.641c-2.024,9.433-1.9,24.887-1.9,24.887s.293-6.53,3.7-5.962,5.807,7.186,5.807,7.186,1-5.388,7.058-4.585,7.351,13.675,7.351,13.675-.633-13.058.308-28.513c.688-11.288.912-13.592.982-14.014-.337.582-3.333,5.6-6.275,5.157C65.2,87,65.579,81.408,65.579,81.408s-3.218,6.813-6.246,6.064-4.506-9.826-4.506-9.826-1.545,2.72-3.538,11.995" fill="none"/></clipPath><linearGradient id="cy" x1="-0.792" y1="3.841" x2="-0.771" y2="3.841" xlink:href="#bb"/><clipPath id="cz"><path d="M29.717,87.951a60.29,60.29,0,0,0-1.876,16.208s2.7-5.533,6.822-5.6,9.775,12.138,9.775,12.138S44.9,98.626,45.5,93.26s2.54-15.507,2.54-15.507-4.2,6.119-8.2,5.674-6.052-6.372-6.052-6.372-2.129,2.689-4.07,10.9" fill="none"/></clipPath><linearGradient id="da" x1="-0.601" y1="4.977" x2="-0.572" y2="4.977" xlink:href="#bd"/><clipPath id="db"><path d="M20.97,80.815A59,59,0,0,0,16.747,92.4s1.845-1.286,2.554-1.218.878,6.568.878,6.568,2.456-11.274,3.529-14.727S27.37,72.912,27.37,72.912s-3.463,1.97-6.4,7.9" fill="none"/></clipPath><linearGradient id="dc" x1="-0.866" y1="4.363" x2="-0.804" y2="4.363" xlink:href="#bf"/><clipPath id="dd"><path d="M16.007,80.151c-2.224,2.925,1.7,5.18,1.7,5.18s.4-4.209,1.237-5.846c.517-1.012,2.725-5.7,2.725-5.7a76.736,76.736,0,0,0-5.665,6.366" fill="none"/></clipPath><linearGradient id="de" x1="-1.195" y1="8.825" x2="-1.1" y2="8.825" xlink:href="#bf"/><clipPath id="df"><path d="M159.03,145.865l-20.482-11.637-13.341,15.627-18.421-11.278L87.171,152.221l-16.864-16.2L52.151,150.853,26.184,130.179l23.489,31.374,19.806-13.4,15.477,15.285,21.83-14.167,18.421,13.5,14.422-18.4,20.91,14.48,17.572-31.158Z" fill="none"/></clipPath><radialGradient id="dg" cx="0.477" cy="-0.746" r="2.587" gradientTransform="matrix(0.235, 0, 0, -0.89, -0.132, 3.336)" gradientUnits="objectBoundingBox"><stop offset="0" stop-color="#5c0200"/><stop offset="0.234" stop-color="#570100"/><stop offset="0.471" stop-color="#4b0100"/><stop offset="0.71" stop-color="#370100"/><stop offset="0.949" stop-color="#1b0100"/><stop offset="1" stop-color="#140100"/></radialGradient><clipPath id="di"><path d="M58.432,113.182C84.3,111.816,86.074,91.368,86.074,91.368s-9.267,2.26-28.18,0-28.206-8.715-28.206-8.715,2.877,31.894,28.744,30.529" fill="none"/></clipPath><radialGradient id="dj" cx="1.449" cy="0.01" r="2.451" gradientTransform="matrix(0.566, 0, 0, -1, -0.229, 6.781)" xlink:href="#dg"/><clipPath id="dl"><path d="M141.382,91.368c-18.914,2.26-28.182,0-28.182,0s1.775,20.448,27.643,21.814,28.744-30.529,28.744-30.529-9.292,6.456-28.205,8.715" fill="none"/></clipPath><radialGradient id="dm" cx="-0.449" cy="0.01" r="2.451" gradientTransform="translate(-3.143 6.781) rotate(180) scale(0.566 1)" xlink:href="#dg"/></defs><g clip-path="url(#a)"><g clip-path="url(#a)"><path d="M66.777,37.619l6.032-2.878,9.668.1,6.875-2.031s9.742.9,10.207.953,11.281-2.1,11.927-1.925,7.471,1.925,7.471,1.925l15.16.981,3.285,5.622-17.047,7s-22.414,2.916-24.779,2.772S66.242,44.6,66.242,44.031s.535-6.412.535-6.412" fill="#374c00"/><path d="M136.792,30.666c6.708.056,12.742.87,18.464,4.045a6.517,6.517,0,0,1,.192,1.633c-.188.211-22.671,2.428-22.671,2.428s-3.979.473-4.374-1.665c-.8-4.367,4.618-6.472,8.389-6.441" fill="#8a2c00"/><path d="M136.792,30.666c5.646.047,10.815.65,15.725,2.73l-1.175.732s-9.9.309-14.267.947c-3.388.5-4.749-1.572-4.914-3.486a12.126,12.126,0,0,1,4.631-.923" fill="#db6903"/></g><g clip-path="url(#c)"><rect width="15.534" height="2.727" transform="translate(132.79 30.665)" fill="url(#d)"/></g><g clip-path="url(#a)"><path d="M136.516,36.365a12.532,12.532,0,0,1-5.847.593c-2.791-.479-1.08-3.567-.839-3.92-.02.019-.043.036-.063.056l-.108.106a4.224,4.224,0,0,0-1.255,3.907c.394,2.138,4.374,1.665,4.374,1.665L134.5,38.6c.958-1.045,2.012-2.236,2.012-2.236" fill="#5e1e00"/><path d="M71.233,41.1a6,6,0,0,0,3.478-1.945,4.094,4.094,0,0,0,.631-1.274s1.569,1.27,5.9.935a22.014,22.014,0,0,0,8.232-2.607s3.728,2.2,10.546,1.673a74.634,74.634,0,0,0,12.023-1.9,12.44,12.44,0,0,0,6.105,2.557,39.346,39.346,0,0,0,8.656,0s-.094.473,1.278.85-3.065,5.143-3.065,5.143H70.883Z" fill="#527100"/><path d="M125.315,43.826s.745-1.8,0-1.9a47.413,47.413,0,0,1-4.526-1.662,16.908,16.908,0,0,1-4.963.408,7.225,7.225,0,0,1-3.9-1.663L107.6,40.261l-13.449-.417a12.075,12.075,0,0,1-4.079.959,21.956,21.956,0,0,1-5.219-1.148s-.543,1.183-2.948,1.328a16.206,16.206,0,0,1-4.745-.521,14.412,14.412,0,0,1-3.05,3.046l.057,1.028h35.688Z" fill="#374b00"/><path d="M121.13,27.834c6.949.725,10.841,2.706,10.589,3.95s-2.779,3-3.048,4.161-6.145,2.193-8.583,1.88-6.671-2.655-8.987-4.515c-2.631-2.112-4.89-3.165-1.109-4.256a31.513,31.513,0,0,1,11.138-1.22" fill="#8a2c00"/><path d="M131.719,31.784s-3.062,4.106-9.907,3.835c-6.278-.248-11.78-5.421-12.653-6.282-2.539,1-.461,2.044,1.942,3.972,2.316,1.861,6.551,4.2,8.987,4.516s8.316-.718,8.583-1.88c.218-.941,1.9-2.268,2.671-3.4a5.205,5.205,0,0,0,.377-.761" fill="#5e1e00"/><path d="M131.253,30.863c-1.07,1.368-4.107,4.067-10.678,2.331a52.327,52.327,0,0,1-10.71-4.1c.047-.013.082-.027.127-.04a31.533,31.533,0,0,1,11.138-1.22c5.405.563,8.926,1.883,10.123,3.03" fill="#db6903"/><path d="M121.13,27.834a29.132,29.132,0,0,1,8.195,1.875c-.549.653-2.078,1.525-6.975,1.144a51.466,51.466,0,0,1-10.865-2.159,30.646,30.646,0,0,1,9.645-.86" fill="#ffc884"/><path d="M66.156,31.115c-6.709.056-12.742.87-18.465,4.045a6.409,6.409,0,0,0-.192,1.633c.188.211,22.671,2.428,22.671,2.428s3.981.473,4.373-1.666c.8-4.366-4.617-6.471-8.387-6.44" fill="#a33400"/><path d="M66.156,31.115c-5.648.046-10.815.65-15.725,2.73.685.428,1.175.732,1.175.732s9.9.309,14.265.947c3.389.5,4.752-1.572,4.916-3.487a12.139,12.139,0,0,0-4.631-.922" fill="#db6903"/></g><g clip-path="url(#f)"><rect width="15.531" height="2.727" transform="translate(54.625 31.114)" fill="url(#g)"/></g><g clip-path="url(#a)"><path d="M74.542,37.555a4.551,4.551,0,0,0-2.378-4.8l-.849-.256s2.775,3.453,1.2,5.3-8.846-1.424-8.948-1.362l3.887,2.516c1.658.166,2.718.27,2.718.27s3.981.472,4.373-1.666" fill="#5e1e00"/><path d="M81.006,27.834c-6.953.725-10.843,2.706-10.589,3.95s3.459,3.739,4.366,4.513c1.232,1.051,4.827,1.841,7.263,1.528s6.67-2.655,8.987-4.515c2.629-2.112,4.89-3.165,1.109-4.256a31.5,31.5,0,0,0-11.136-1.22" fill="#8a2c00"/><path d="M70.883,30.863c1.068,1.368,4.107,4.067,10.676,2.331a52.3,52.3,0,0,0,10.71-4.1c-.045-.013-.081-.027-.127-.04a31.525,31.525,0,0,0-11.136-1.22c-5.406.563-8.929,1.883-10.123,3.03" fill="#db6903"/><path d="M81.006,27.834a29.141,29.141,0,0,0-8.2,1.875c.547.653,2.078,1.525,6.975,1.144a51.458,51.458,0,0,0,10.863-2.159,30.624,30.624,0,0,0-9.641-.86" fill="#ffc884"/><path d="M91.632,31.822a1.045,1.045,0,0,0,.159-.406Z" fill="#8a1b01"/><path d="M81.934,36.207c-3.887,1.017-10.4-2.8-10.412-2.808a18.2,18.2,0,0,0,3.262,2.9,10.63,10.63,0,0,0,7.262,1.528c2.436-.315,6.67-2.655,8.988-4.516l.022-.017.367-2.756a18.365,18.365,0,0,1-9.489,5.671" fill="#5e1e00"/><path d="M99.605,27.35c-3.45,0-8.105,2.937-10.253,5.457-1.947,2.286,5.9,4.224,10.476,3.912,5.756-.393,13.393-.965,11.034-4.624-3.066-4.747-8.143-4.751-11.257-4.745" fill="#8a2c00"/><path d="M99.827,36.719c5.757-.393,13.394-.965,11.034-4.625-.1-.152-.2-.285-.306-.427-1,1.112-3.31,2.608-8.692,3.074-7.722.669-11.021-2.007-11.762-2.729-.272.267-.527.533-.75.794-1.947,2.287,5.9,4.225,10.476,3.913" fill="#5e1e00"/><path d="M106.222,32.806c2.847-.716,2.154-2.265,1.21-3.924-2.687-1.5-5.707-1.536-7.827-1.533a10.1,10.1,0,0,0-3.661.855c-2.587,2.133-3.22,5.1,1.715,5.1,4.689,0,4.959.4,8.563-.5" fill="#db6903"/><path d="M105.453,28.016A19.315,19.315,0,0,0,99.6,27.35a8.225,8.225,0,0,0-2.075.324c-1.252,1.55-1.657,2.229,3.574,2.067,4.814-.148,4.816-.4,4.35-1.725" fill="#ffc884"/></g><g clip-path="url(#i)"><rect width="10.936" height="14.055" transform="matrix(0.203, -0.979, 0.979, 0.203, 101.373, 9.464)" fill="url(#j)"/></g><g clip-path="url(#k)"><rect width="51.398" height="48.854" transform="translate(63.56 40.924) rotate(-72.957)" fill="url(#l)"/></g><g clip-path="url(#a)"><path d="M94.011,37.969c-2.992,0-2.936-3.974-2.936-3.974l-.02.017A30.818,30.818,0,0,1,75.342,44.536l30.389-.612a19.555,19.555,0,0,1-1.5-4.106,13.289,13.289,0,0,1-.306-3.161l-1.855-1.772a10.9,10.9,0,0,1-8.059,3.084" fill="#476100"/><path d="M113.551,8.9s-4.951-.526-6.742-1.618c-4.484-2.731-5.038-4.788-5.038-4.788s-2.384,6.285-6.31,22.223a25.718,25.718,0,0,1-2.317,6.034c1.19-1.5,3.678-4.464,4.533-4.272,1.138.255-.457,4.218-.457,4.218s1.993-2.993,2.9-2.891,1.912,3.1,1.912,3.1a32.122,32.122,0,0,0,3.09-7.394c.188-.725.156-2.272,1.144-3.3.73-2.993,2.451-5.439,4.5-8.2A17.982,17.982,0,0,1,113.551,8.9" fill="#547200"/></g><g clip-path="url(#n)"><rect width="13.544" height="18.312" transform="translate(99.206 8.369) rotate(-72.957)" fill="url(#o)"/></g><g clip-path="url(#a)"><path d="M113.551,8.9s-4.951-.526-6.742-1.618c-4.484-2.731-5.038-4.788-5.038-4.788s-1.677,4.433-4.525,15.227c.82-1.314,1.826-2.631,2.451-2.391,1.195.46.084,4.405.084,4.405s1.889-4.022,3.292-3.6,0,4.29,0,4.29,1.343-2.815,2.053-2.719-1.013,4.258-1.013,4.258l3.348-2.922a21.657,21.657,0,0,1,3.3-7.019A17.982,17.982,0,0,1,113.551,8.9" fill="#4e6b00"/><path d="M105.731,43.923a19.555,19.555,0,0,1-1.5-4.106,10.782,10.782,0,0,1-.27-1.959,8.963,8.963,0,0,1-5.039,2.062c-2.718-.038-2.962-.655-2.962-.655s-3.774,1.585-6.515.655A2.4,2.4,0,0,1,87.6,37.775a30.111,30.111,0,0,1-4.375,3.268l-3.359,3.4Z" fill="#384d00"/></g><g clip-path="url(#q)"><rect width="41.995" height="27.195" transform="translate(90.659 42.532) rotate(-76.849)" fill="url(#r)"/></g><g clip-path="url(#a)"><path d="M109.246,38.76a8.524,8.524,0,0,1-2.039-5.007,19.265,19.265,0,0,1-.02-2.058.13.13,0,0,0-.01-.018s-.342,2.318-2.249,2.585c-1.927.271-2.922-2.008-2.964-2.1a19.177,19.177,0,0,0,.824,6.685,15.726,15.726,0,0,0,3.723,1.076,25.777,25.777,0,0,0,2.735-1.16" fill="#517000"/><path d="M110.295,43.236c2.149-.4,4.961-.945,4.961-.945s-5.294-1.082-7.306-5.6l-.022-.007a1.152,1.152,0,0,1-.519,1.61c-.816.36-2.011-1.247-2.011-1.247s.333,1.45-.713,1.607a2.674,2.674,0,0,1-2.259-1.112,12.908,12.908,0,0,0,3.494,6.548l1.147.152a15.36,15.36,0,0,1,3.228-1.005" fill="#415900"/><path d="M102.035,36.4a29.18,29.18,0,0,1,1.481-13.252c2.172-6.555,3.7-7.8,3.755-7.84-.013.01-1.372,1.523-3.5,7.943A32.043,32.043,0,0,0,102.035,36.4" fill="#8fc400"/><path d="M113.981,95.737c0,41.332,20.354,74.839,45.46,74.839s43.65-30.662,40.572-75.72c-3.124-45.763-35.467-72.592-62.245-60.259C111.4,46.737,113.981,54.4,113.981,95.737" fill="#fff4a2"/></g><g clip-path="url(#t)"><rect width="94.757" height="140.983" transform="translate(107.6 31.932) rotate(-1.275)" fill="url(#u)"/></g><g clip-path="url(#v)"><rect width="91.686" height="138.977" transform="translate(104.379 35.909)" fill="url(#w)"/></g><g clip-path="url(#a)"><path d="M190.647,125.382c.362.194,1.7-6.426,1.7-6.426s-.683,6.035,2.087,6.428c3.076.436,5.7-14.331,5.764-14.7-1.024,21.373-7.348,38.346-16.882,48.688-1.218-5.473-3.071-14.381-2.946-14.469.179-.133,4.386-26.069,4.386-26.069s5.533,6.352,5.893,6.55" fill="#fe5e01"/><path d="M190.647,125.382c.362.194,1.7-6.426,1.7-6.426s-.683,6.035,2.087,6.428c3.076.436,5.7-14.331,5.764-14.7-1.024,21.373-7.348,38.346-16.882,48.688-1.218-5.473-3.071-14.381-2.946-14.469.179-.133,4.386-26.069,4.386-26.069s5.533,6.352,5.893,6.55" fill="#dd5201"/><path d="M169.388,47.179l-40.813-1.646-4.432-3.089A66.31,66.31,0,0,1,137.768,34.6a32.728,32.728,0,0,1,3.855-1.468c3.084.255,9.077-.352,14.8.61a79.9,79.9,0,0,1,15,4.253c.181.132,12.4,13.028,12.4,13.028s-14.088-11.184-16.251-8.774c-1.423,1.588,1.819,4.933,1.819,4.933" fill="#f06d01"/><path d="M155.872,41.146s-27.839,2.423-34.124,3c3.527-3.436,8.8-6.228,16.02-9.552a32.386,32.386,0,0,1,9.568-2.733l8.536,2.318s-7.129.849-7.77,2.16,7.77,4.8,7.77,4.8" fill="#db6903"/><path d="M142.482,39.151,124.46,46.465l-2.282-2.7c3.47-3.088,8.262-5.854,14.88-8.9.919-.423,1.848-.792,2.779-1.122-1.707,1.246-3.2,2.6-2.7,3.236,1.042,1.324,5.347,2.176,5.347,2.176" fill="#9c3200"/><path d="M166.034,169.836,188.4,136.164s-1.1,6.426,2.241,7.075c3.529.685,8.206-19.924,8.41-20.814-3.957,26.131-16.608,43.705-33.017,47.411" fill="#c14801"/><path d="M186.577,151.1c1.5,1,4.14-2.406,4.343-2.676-5.084,9.647-11.955,16.5-19.958,19.839l-.991-1.408,16.985-25.217s-1.787,8.522-.379,9.462" fill="#871b01"/></g><g clip-path="url(#y)"><rect width="45.474" height="51.89" transform="translate(129.275 47.02) rotate(-55.567)" fill="url(#z)"/></g><g clip-path="url(#a)"><path d="M186.036,156.115a37.2,37.2,0,0,1-15.074,12.146l-.991-1.409,11.276-16.738.668-.259a34.863,34.863,0,0,0-1.017,7.1c-.1,2.33,2.694.868,5.138-.838" fill="#611301"/></g><g clip-path="url(#ab)"><rect width="105.728" height="152.368" transform="translate(88.383 40.131) rotate(-5.817)" fill="url(#ac)"/></g><g clip-path="url(#ad)"><rect width="34.016" height="91.723" transform="translate(145.771 46.33) rotate(-1.095)" fill="url(#ae)"/></g><g clip-path="url(#a)"><path d="M191,108.984c-1.345-28.191-8.824-48.365-19.725-60.155,11.671,10.874,19.744,30.38,21.146,58.084a98.75,98.75,0,0,1-5.581,38.952A112.7,112.7,0,0,0,191,108.984" fill="#fe9400"/><path d="M128.331,43.358a31.6,31.6,0,0,1,10.639-4.046,38.987,38.987,0,0,1,10.125-.536c7.016,3.329,24.562,13.9,24.562,13.9l3.764,7.723S160.24,42.588,156.093,46.911c-1.173,1.222,4.087,6.026,4.087,6.026s-6.911-6.093-8.894-5.308c-1.234.491.464,2.287.464,2.287Z" fill="#ff7a03"/><path d="M138.97,39.312c1.06-.192,2.111-.328,3.157-.437l12.745,3.371s-9.133-1.709-9.853-.095,1.732,4.629,1.732,4.629-6.531-3.633-7.132-2.8,1.975.847,1.975.847l-13.263-.534s-.018-.4-.018-.919a31.666,31.666,0,0,1,10.657-4.059" fill="#db6903"/><path d="M140.507,39.956c4.494.426,3.832.646,3.832.646s-2.292-.149-2.923,1.2c-.8,1.714,2.428,3.854,2.428,3.854l-14.873-3.112,1.5-.4a31.373,31.373,0,0,1,6.317-2.34,34.7,34.7,0,0,1,3.724.149" fill="#ab461b"/><path d="M162.775,177.227c.925-9.418,2.271-23.162,2.271-23.419,0-.4,11.812-30.651,11.812-30.651s.326,16.241,5.683,15.979c5.227-.257,9.779-24.124,10-25.288-.4,29.573-13,53.781-29.764,63.379" fill="#fe5e01"/></g><g clip-path="url(#ag)"><rect width="110.143" height="152.313" transform="translate(69.23 43.926) rotate(-5.631)" fill="url(#ah)"/></g><g clip-path="url(#a)"><path d="M141.484,181.141a10,10,0,0,1,.01-1.919c.179-.59,15.861-13.1,16.282-13.362S175.1,139.795,175.1,139.795s-4.861,18.4.007,17.944c9.752-.918,15.319-24.883,15.545-25.513-5.662,28.6-23.22,48.826-42.91,49.442a27.843,27.843,0,0,1-6.253-.527" fill="#e05301"/><path d="M139.355,180.639c4.171-8.055,10.4-20.078,10.462-20.174l18.018.8s-2.653,6.175-1.27,6.867c2.366,1.182,10.377-6.2,10.377-6.2s-.481,2.191-4.558,7.051c-5.677,6.764-12.443,9.288-16.337,11.221a30.436,30.436,0,0,1-8.31,1.464,27.926,27.926,0,0,1-8.382-1.029" fill="#a32001"/></g><g clip-path="url(#aj)"><rect width="68.338" height="69.189" transform="matrix(0.565, -0.825, 0.825, 0.565, 116.509, 71.185)" fill="url(#ak)"/></g><g clip-path="url(#a)"><path d="M158.15,173.42c0,2.237,9.419-.7,9.419-.7a74.817,74.817,0,0,1-12.807,7.848,29.929,29.929,0,0,1-7.025,1.1c-.6.02-1.2.007-1.792-.015l-4.5-2.81s16.7-7.659,16.7-5.423" fill="#7a1801"/><path d="M81.289,118.874c0,42.168,19.777,68.113,45.03,68.113s52.157-19.5,50.555-73.236c-1.57-52.708-24.606-71.229-49.862-71.229S81.289,76.7,81.289,118.874" fill="#fe8801"/></g><g clip-path="url(#am)"><rect width="23.498" height="101.263" transform="translate(136.671 50.958)" fill="url(#an)"/></g><g clip-path="url(#a)"><path d="M176.091,115.173c-1.562-53.4-24.305-72.39-49.36-72.638.092,0,.188-.013.281-.013,25.256,0,48.292,18.522,49.862,71.229.484,16.176-1.631,29.231-5.494,39.605,3.367-10.208,5.159-22.823,4.711-38.183" fill="#fe9400"/><path d="M152.829,129.181s.808,17.379,9.946,18.864S176.2,132.226,176.2,132.226l0,.019c-4.4,39.787-27.774,54.743-49.886,54.743-.2,0-.4-.019-.6-.021Z" fill="#fe6901"/><path d="M122.261,186.742c4.212-5.372,9.174-11.563,9.378-11.713C132,174.768,150.1,150.6,150.1,150.6s-3.012,11.993-.079,13.426c2.327,1.141,6.609-8.643,6.609-8.643s-.061,7.471,2.042,9.431c4.406,4.1,13.649-14.77,14.085-15.539-8.33,27.094-27.827,37.714-46.442,37.714a35.641,35.641,0,0,1-4.059-.245" fill="#e05301"/></g><g clip-path="url(#ap)"><rect width="85.157" height="155" transform="matrix(0.994, -0.111, 0.111, 0.994, 68.344, 42.814)" fill="url(#aq)"/></g><g clip-path="url(#a)"><path d="M146.835,165.717s-2.291,4.979,1.987,6.483c3.5,1.232,13.011-3.739,13.011-3.739a49.113,49.113,0,0,1-13.769,12.961c-8.436,5.221-18.689,6.013-18.689,6.013Z" fill="#bd2601"/><path d="M118.3,43.921a28.256,28.256,0,0,1,8.71-1.4c10.384,0,20.39,3.14,28.685,10.49,2.353,5.1,4.593,10.131,4.593,10.131-4.258-3.223-11.068-9.81-14.769-7.587-2.545,1.528-.459,10.652-.459,10.652Z" fill="#ff7a03"/><path d="M119.8,43.476a28.154,28.154,0,0,1,7.21-.954A45.7,45.7,0,0,1,141.491,44.8l4.809,4.4s-6.043-1.717-8.1-.688c-2.022,1.011.729,7.239.729,7.239Z" fill="#db6903"/><path d="M122.178,42.588a30.538,30.538,0,0,1,4.834-.066,49.027,49.027,0,0,1,6.05.383l6.233,3.061s-4.005-.991-4.643,0,.213,4.327.213,4.327Z" fill="#c76003"/></g><g clip-path="url(#as)"><rect width="70.455" height="69.897" transform="matrix(0.626, -0.779, 0.779, 0.626, 101.747, 73.956)" fill="url(#at)"/></g><g clip-path="url(#a)"><path d="M129.375,187.435l14.229-17.7c-.164,2.164-.041,5.876,2.5,7.006,2.844,1.263,10.032-4.023,10.032-4.023a35.266,35.266,0,0,1-5.177,5.862c-2.72,2.457-7.536,4.919-11.888,6.839a49.3,49.3,0,0,1-9.7,2.014" fill="#961e01"/><path d="M85.589,117.119c-1.93,53.627,10.14,72.671,31.35,72.671,25.835,0,35.889-24.742,35.889-75.036,0-43.223-13.234-74.153-37.964-74.157-21.21-.005-27.331,22.419-29.275,76.522" fill="#fe9201"/><path d="M123.4,144.463s.188,8.994,4.556,9.868,6.811-5.85,6.811-5.85a6.366,6.366,0,0,0,6.68,6.462c6.6.087,9.931-12.243,10.1-12.864-3.429,31.931-13.988,47.711-34.607,47.711a24.962,24.962,0,0,1-15.656-4.9c7.891-14.685,22.12-40.428,22.12-40.428" fill="#fe7801"/><path d="M147.255,164.094c-5.452,17.175-15.168,25.7-30.316,25.7a24.9,24.9,0,0,1-15.881-5.083c1.534-2.718,3-4.859,3.143-5.05.4-.523,18.06-15.632,18.06-15.632s-.589,9.333,8.857,12.227c10.156,3.11,15.028-8.929,16.137-12.158" fill="#e05301"/><path d="M147.471,163.441a.077.077,0,0,0-.008.019l.008-.019" fill="#e05301"/><path d="M100.329,46.1c3.817-3.74,8.581-5.507,14.535-5.507,14.819,0,27.452,11.91,33.726,36.051-.3-.638-9.491-20.129-16.19-20.216-6.809-.086-6.729,4.882-6.729,4.882s-2.41-2.131-4.567-1.388-.3,9.659-.3,9.659Z" fill="#ff7a03"/><path d="M103.881,44.682l-.618-.931a20.626,20.626,0,0,1,11.6-3.154,26.457,26.457,0,0,1,16.183,5.527c.835,2.308,1.432,4,1.432,4s-7.689-3.734-11.354-1.441-3.437,7.753-3.437,7.753Z" fill="#db6903"/><path d="M110.753,47.489l-7.49-3.739c3.9-2.134,6-3.149,11.6-3.154a27.512,27.512,0,0,1,5.2.5l5.006,3.258,6.01,4.159s-9.278-5.268-12.513-2.858c-5.2,3.87-2.39,9.438-2.39,9.438Z" fill="#d46603"/></g><g clip-path="url(#av)"><rect width="43.468" height="45.415" transform="matrix(0.609, -0.793, 0.793, 0.609, 95.793, 57.236)" fill="url(#aw)"/></g><g clip-path="url(#a)"><path d="M120.41,173.052s-.769,3.522.732,4.258c1.639.805,3.974-1.419,3.974-1.419s1.618,3.247,4.259,4.259c3.764,1.441,9.454-1.564,9.454-1.564a26.983,26.983,0,0,1-5.9,6.385c-2.7,2.017-5.48,2.563-7.856,3.856a33.363,33.363,0,0,1-8.138.963,27.476,27.476,0,0,1-10.13-1.8Z" fill="#c42700"/><path d="M116.939,189.79a27.476,27.476,0,0,1-10.13-1.8l6.637-7.29c2.1.392,4.771.866,6,.975a7.506,7.506,0,0,0,4.406-1.529s-.068,1.133,1.868,2.6,7.011-.72,7.011-.72a12.15,12.15,0,0,1-3.353,3.592,40.7,40.7,0,0,1-6.831,3.716,34.624,34.624,0,0,1-5.606.454" fill="#961e00"/></g><g clip-path="url(#ay)"><rect width="149.381" height="50.294" transform="translate(76.118 189.788) rotate(-89.777)" fill="url(#az)"/></g><g clip-path="url(#ba)"><rect width="26.8" height="47.951" transform="translate(124.271 76.692) rotate(-1.757)" fill="url(#bb)"/></g><g clip-path="url(#bc)"><rect width="21.649" height="34.257" transform="matrix(1, -0.031, 0.031, 1, 151.279, 76.088)" fill="url(#bd)"/></g><g clip-path="url(#be)"><path d="M186.363,96.429l-2.9-25.742-13.246,1.55,2.9,25.742Z" fill="url(#bf)"/></g><g clip-path="url(#bg)"><path d="M187.85,84.183l-1.387-12.308-9.072,1.062,1.387,12.308Z" fill="url(#bh)"/></g><g clip-path="url(#a)"><path d="M.334,95.855C3.458,50.092,35.8,23.263,62.579,35.6,88.945,47.737,86.367,55.4,86.367,96.736s-20.353,74.839-45.46,74.839S-2.743,140.913.334,95.855" fill="#fff4a2"/></g><g clip-path="url(#bj)"><rect width="140.984" height="94.759" transform="translate(-5.125 171.771) rotate(-88.725)" fill="url(#bk)"/></g><g clip-path="url(#bl)"><rect width="91.687" height="138.977" transform="translate(4.281 36.908)" fill="url(#bm)"/></g><g clip-path="url(#a)"><path d="M.152,111.68c1.022,21.374,7.348,38.347,16.882,48.688,1.219-5.472,3.073-14.379,2.947-14.468-.18-.134-4.387-26.069-4.387-26.069s-5.532,6.352-5.893,6.549S8,119.955,8,119.955s.684,6.035-2.085,6.428c-3.077.436-5.7-14.331-5.765-14.7" fill="#fe5e01"/><path d="M.152,111.68c1.022,21.374,7.348,38.347,16.882,48.688,1.219-5.472,3.073-14.379,2.947-14.468-.18-.134-4.387-26.069-4.387-26.069s-5.532,6.352-5.893,6.549S8,119.955,8,119.955s.684,6.035-2.085,6.428c-3.077.436-5.7-14.331-5.765-14.7" fill="#dd5201"/><path d="M30.96,48.178l40.813-1.646L76.2,43.443A66.31,66.31,0,0,0,62.579,35.6a32.6,32.6,0,0,0-3.855-1.468c-3.084.255-9.077-.352-14.795.61a79.9,79.9,0,0,0-15,4.253c-.182.132-12.4,13.028-12.4,13.028s14.088-11.184,16.251-8.774c1.424,1.588-1.818,4.933-1.818,4.933" fill="#f06d01"/><path d="M44.476,42.145s27.839,2.422,34.123,3C75.073,41.713,69.8,38.92,62.58,35.6a32.433,32.433,0,0,0-9.568-2.733l-8.536,2.318s7.128.85,7.77,2.16-7.77,4.8-7.77,4.8" fill="#db6903"/><path d="M57.867,40.15l18.021,7.314,2.283-2.7c-3.471-3.088-8.262-5.853-14.88-8.9-.919-.424-1.848-.793-2.779-1.123,1.706,1.246,3.2,2.6,2.7,3.236-1.042,1.324-5.347,2.176-5.347,2.176" fill="#9c3200"/><path d="M1.3,123.423c3.956,26.131,16.6,43.706,33.016,47.412L11.949,137.163s1.1,6.426-2.243,7.074c-3.527.686-8.206-19.923-8.407-20.814" fill="#c14801"/><path d="M13.77,152.1c-1.5,1-4.14-2.406-4.343-2.675,5.085,9.647,11.955,16.5,19.959,19.839l.991-1.408L13.391,142.634s1.787,8.522.379,9.462" fill="#871b01"/></g><g clip-path="url(#bo)"><rect width="51.891" height="45.475" transform="translate(2.562 39.853) rotate(-34.433)" fill="url(#bp)"/></g><g clip-path="url(#a)"><path d="M14.313,157.114A37.2,37.2,0,0,0,29.386,169.26l.991-1.409L19.1,151.113l-.669-.26a34.828,34.828,0,0,1,1.016,7.1c.1,2.33-2.693.868-5.136-.838" fill="#611301"/></g><g clip-path="url(#br)"><rect width="152.367" height="105.728" transform="translate(-8.662 181.997) rotate(-84.183)" fill="url(#bs)"/></g><g clip-path="url(#bt)"><rect width="91.723" height="34.016" transform="matrix(0.019, -1, 1, 0.019, 18.814, 138.386)" fill="url(#bu)"/></g><g clip-path="url(#a)"><path d="M9.351,109.984C10.7,81.793,18.177,61.619,29.077,49.829,17.406,60.7,9.332,80.209,7.929,107.913a98.752,98.752,0,0,0,5.583,38.952,112.7,112.7,0,0,1-4.161-36.881" fill="#fe9400"/><path d="M72.017,44.357a31.607,31.607,0,0,0-10.64-4.045,38.94,38.94,0,0,0-10.125-.537c-7.015,3.329-24.562,13.9-24.562,13.9L22.928,61.4S40.109,43.587,44.254,47.91c1.173,1.222-4.086,6.026-4.086,6.026s6.91-6.092,8.894-5.308c1.235.491-.464,2.287-.464,2.287Z" fill="#ff7a03"/><path d="M61.377,40.311c-1.059-.193-2.11-.328-3.157-.437L45.475,43.245s9.133-1.71,9.854-.095S53.6,47.778,53.6,47.778s6.532-3.632,7.133-2.8-1.976.847-1.976.847l13.264-.534s.018-.4.018-.918a31.65,31.65,0,0,0-10.658-4.059" fill="#db6903"/><path d="M59.841,40.954c-4.494.426-3.832.646-3.832.646s2.291-.149,2.923,1.2c.8,1.714-2.428,3.854-2.428,3.854l14.873-3.111-1.495-.4a31.392,31.392,0,0,0-6.317-2.339,34.421,34.421,0,0,0-3.724.148" fill="#ab461b"/><path d="M37.574,178.226c-.926-9.418-2.271-23.162-2.271-23.419,0-.4-11.812-30.651-11.812-30.651s-.325,16.241-5.685,15.979c-5.227-.258-9.778-24.124-10-25.288.4,29.573,13,53.781,29.765,63.379" fill="#fe5e01"/></g><g clip-path="url(#bw)"><rect width="152.313" height="110.144" transform="translate(6.562 185.696) rotate(-84.369)" fill="url(#bx)"/></g><g clip-path="url(#a)"><path d="M58.865,182.14a10,10,0,0,0-.01-1.919c-.179-.59-15.862-13.1-16.282-13.363s-17.319-26.065-17.319-26.065,4.861,18.4-.007,17.944c-9.753-.918-15.32-24.882-15.546-25.512,5.661,28.594,23.22,48.826,42.911,49.442a27.848,27.848,0,0,0,6.253-.527" fill="#e05301"/><path d="M60.993,181.638c-4.172-8.055-10.4-20.078-10.462-20.174l-18.017.8s2.652,6.174,1.269,6.867c-2.366,1.182-10.378-6.2-10.378-6.2s.483,2.191,4.56,7.051c5.676,6.763,12.443,9.288,16.336,11.221a30.43,30.43,0,0,0,8.31,1.464,27.986,27.986,0,0,0,8.382-1.029" fill="#a32001"/></g><g clip-path="url(#bz)"><rect width="69.189" height="68.338" transform="matrix(0.825, -0.565, 0.565, 0.825, -11.868, 54.941)" fill="url(#ca)"/></g><g clip-path="url(#a)"><path d="M42.2,174.419c0,2.236-9.42-.7-9.42-.7a74.862,74.862,0,0,0,12.807,7.848,29.946,29.946,0,0,0,7.026,1.1c.6.019,1.2.006,1.791-.015l4.5-2.811s-16.7-7.659-16.7-5.422" fill="#7a1801"/><path d="M119.059,119.873c0,42.168-19.777,68.112-45.031,68.112s-52.156-19.5-50.555-73.236C25.044,62.042,48.081,43.52,73.335,43.52s45.724,34.182,45.724,76.353" fill="#fe8801"/></g><g clip-path="url(#cc)"><rect width="23.496" height="101.264" transform="translate(40.18 51.957)" fill="url(#cd)"/></g><g clip-path="url(#a)"><path d="M24.258,116.172c1.561-53.4,24.3-72.39,49.358-72.638-.092-.005-.186-.013-.281-.013-25.254,0-48.291,18.521-49.862,71.228-.483,16.177,1.632,29.232,5.5,39.606-3.367-10.208-5.159-22.823-4.71-38.183" fill="#fe9400"/><path d="M47.519,130.18s-.806,17.378-9.945,18.864-13.43-15.819-13.43-15.819v.019c4.4,39.787,27.774,54.742,49.885,54.742.2,0,.4-.018.6-.02Z" fill="#fe6901"/><path d="M78.087,187.741c-4.212-5.372-9.174-11.563-9.379-11.713-.361-.262-18.466-24.431-18.466-24.431s3.013,11.993.08,13.426c-2.328,1.141-6.609-8.644-6.609-8.644s.061,7.471-2.043,9.432c-4.4,4.1-13.648-14.771-14.084-15.539,8.33,27.094,27.826,37.713,46.441,37.713a35.645,35.645,0,0,0,4.06-.244" fill="#e05301"/></g><g clip-path="url(#cf)"><rect width="155" height="85.158" transform="translate(30.206 188.43) rotate(-83.643)" fill="url(#cg)"/></g><g clip-path="url(#a)"><path d="M53.513,166.716s2.29,4.979-1.987,6.482c-3.5,1.233-13.012-3.738-13.012-3.738a49.142,49.142,0,0,0,13.77,12.961c8.436,5.221,18.689,6.013,18.689,6.013Z" fill="#bd2601"/><path d="M82.046,44.92a28.258,28.258,0,0,0-8.711-1.4c-10.384,0-20.389,3.14-28.684,10.49-2.353,5.1-4.593,10.131-4.593,10.131,4.258-3.222,11.067-9.809,14.769-7.587,2.545,1.528.46,10.652.46,10.652Z" fill="#ff7a03"/><path d="M80.546,44.474a28.15,28.15,0,0,0-7.211-.954A45.7,45.7,0,0,0,58.857,45.8l-4.81,4.4s6.044-1.717,8.1-.688c2.023,1.011-.729,7.239-.729,7.239Z" fill="#db6903"/><path d="M78.17,43.587a30.547,30.547,0,0,0-4.835-.066,49.064,49.064,0,0,0-6.05.383l-6.233,3.061s4.006-.991,4.644,0-.213,4.327-.213,4.327Z" fill="#c76003"/></g><g clip-path="url(#ci)"><rect width="69.897" height="70.456" transform="translate(-0.018 63.827) rotate(-38.79)" fill="url(#cj)"/></g><g clip-path="url(#a)"><path d="M70.973,188.434l-14.229-17.7c.163,2.163.041,5.876-2.5,7.006-2.844,1.263-10.033-4.023-10.033-4.023a35.267,35.267,0,0,0,5.177,5.862c2.72,2.457,7.538,4.919,11.889,6.838a49.248,49.248,0,0,0,9.7,2.015" fill="#961e01"/><path d="M114.758,118.118c1.93,53.626-10.14,72.671-31.35,72.671-25.834,0-35.889-24.742-35.889-75.037C47.519,72.53,60.753,41.6,85.484,41.6c21.209,0,27.33,22.42,29.274,76.523" fill="#fe9201"/><path d="M76.945,145.462s-.187,8.994-4.555,9.867-6.811-5.849-6.811-5.849a6.365,6.365,0,0,1-6.68,6.461c-6.6.087-9.931-12.243-10.095-12.863,3.427,31.931,13.987,47.711,34.6,47.711a24.963,24.963,0,0,0,15.657-4.9c-7.89-14.685-22.121-40.428-22.121-40.428" fill="#fe7801"/><path d="M53.092,165.092c5.452,17.176,15.168,25.7,30.316,25.7a24.9,24.9,0,0,0,15.882-5.084c-1.534-2.718-3-4.858-3.144-5.05-.4-.522-18.059-15.631-18.059-15.631s.589,9.333-8.857,12.227c-10.156,3.11-15.028-8.93-16.138-12.159" fill="#e05301"/><path d="M52.877,164.439l.007.02-.007-.02" fill="#e05301"/><path d="M100.018,47.1C96.2,43.363,91.438,41.6,85.484,41.6c-14.82,0-27.452,11.91-33.726,36.051.3-.639,9.491-20.129,16.189-20.216,6.81-.086,6.729,4.882,6.729,4.882s2.411-2.131,4.568-1.389.3,9.659.3,9.659Z" fill="#ff7a03"/><path d="M96.466,45.681l.619-.932a20.636,20.636,0,0,0-11.6-3.153A26.463,26.463,0,0,0,69.3,47.122c-.835,2.309-1.433,4-1.433,4s7.689-3.734,11.354-1.441,3.438,7.753,3.438,7.753Z" fill="#db6903"/><path d="M89.594,48.488l7.491-3.739c-3.9-2.134-6-3.149-11.6-3.154a27.4,27.4,0,0,0-5.2.5l-5.007,3.258-6.011,4.158s9.279-5.267,12.514-2.858c5.2,3.87,2.39,9.439,2.39,9.439Z" fill="#d46603"/></g><g clip-path="url(#cl)"><rect width="45.416" height="43.469" transform="translate(42.063 51.386) rotate(-37.491)" fill="url(#cm)"/></g><g clip-path="url(#a)"><path d="M79.938,174.05s.769,3.522-.732,4.259c-1.639.8-3.974-1.419-3.974-1.419s-1.618,3.247-4.259,4.259c-3.764,1.441-9.455-1.564-9.455-1.564a26.98,26.98,0,0,0,5.9,6.384c2.7,2.017,5.479,2.564,7.855,3.857a33.418,33.418,0,0,0,8.138.963,27.5,27.5,0,0,0,10.131-1.8Z" fill="#c42700"/><path d="M83.409,190.789a27.5,27.5,0,0,0,10.131-1.8L86.9,181.7c-2.1.392-4.773.866-6,.975a7.507,7.507,0,0,1-4.406-1.529s.068,1.133-1.867,2.6-7.012-.721-7.012-.721a12.159,12.159,0,0,0,3.354,3.593,40.6,40.6,0,0,0,6.832,3.716,34.6,34.6,0,0,0,5.6.454" fill="#961e00"/></g><g clip-path="url(#co)"><rect width="49.994" height="149.38" transform="matrix(1, -0.004, 0.004, 1, 73.654, 41.603)" fill="url(#cp)"/></g><g clip-path="url(#a)"><path d="M123.386,118.128c.263,50.651-2.105,72.661-23.315,72.661-25.834,0-22.987-31.953-23.072-74.6C76.906,68.684,81.067,41.6,102.281,41.6s20.842,26.889,21.105,76.528" fill="#fe9901"/><path d="M79.667,158.661l0,0Z" fill="#ff7a03"/><path d="M77.341,155.663l3.106,3c-.035-.061-1.62,6.364-1.62-49.9,0-49.753,6.428-49.135,6.428-49.135l-2.509-1.892c-4.571,12.678-5.8,32.516-5.747,58.464.03,14.723-.29,28.17.342,39.47" fill="#fe8701"/><path d="M122.2,72.324C120.4,52.183,115.584,41.6,102.28,41.6c-14.1,0-20.662,11.981-23.453,33.96.136-.537,5.188-20.2,11.976-20.2,4.342,0,4.942,7.348,4.942,7.348s1.383-10.635,5.769-10.348c6.006.392,6.07,12.969,6.07,12.969s.343-9.765,5.166-9.563c6.276.259,9.422,16.4,9.453,16.554" fill="#fe8701"/></g><g clip-path="url(#cr)"><rect width="21.452" height="39.352" transform="matrix(0.019, -1, 1, 0.019, 80.843, 62.304)" fill="url(#cs)"/></g><g clip-path="url(#a)"><path d="M122.64,153.942c-.017.062-1.562,6.1-5.536,6.543-4.714.522-6.111-3.175-6.111-3.175s-1.4,8.153-6.376,7.714c-5.576-.489-8.3-10.669-8.3-10.669s-2.009,8.576-7.861,8.576c-9.461,0-11.289-12.257-11.342-12.624.758,24.469,4.672,40.483,22.954,40.483,15.3,0,20.792-11.457,22.569-36.848" fill="#fe8701"/><path d="M117.1,180.62a7.7,7.7,0,0,1-7.019,3.792c-8.571-.525-9.912-9.124-9.912-9.124s-2.39,8.33-9.37,8.2c-9.573-.173-13.142-25.009-13.355-26.181,1.343,20.474,6.149,33.48,22.623,33.48,8.159,0,13.525-3.275,17.033-10.169" fill="#e05301"/><path d="M106.932,185.969c-3.6-.093-6.687-2.976-6.687-2.976s-1.445,1.926-6.706,2.318c-8.848.657-14.11-12.591-14.11-12.591A35.231,35.231,0,0,0,84.985,184.6c1.863,2.542,2.743,2.652,5.129,4a21.152,21.152,0,0,0,9.957,2.18,21.848,21.848,0,0,0,9.247-1.869,16.513,16.513,0,0,0,6.176-5.584s-2.89,2.779-8.562,2.633" fill="#c92901"/><path d="M105.475,187.6a8.021,8.021,0,0,1-5.3-2.136s-.325.407-3.274,1.221-10.695-.608-10.695-.608,3.625,2.9,6.309,3.552a23.056,23.056,0,0,0,7.557,1.158,21.745,21.745,0,0,0,7.418-1.192c3.151-.791,6.028-3.81,6.028-3.81s-4.552,1.984-8.042,1.815" fill="#801900"/><path d="M119.8,57.489l-2.456,1.618s4.922,9.122,4.922,49.987c0,47.626-1.064,50.226-1.064,50.226l1.178-2.045c.915-10.412,1.089-23.392,1.008-39.147-.146-27.362-.108-47.795-3.588-60.639" fill="#fe8701"/><g opacity="0.49"><g clip-path="url(#cu)"><g clip-path="url(#cv)"><rect width="56.319" height="42.993" transform="matrix(0.031, -1, 1, 0.031, 78.059, 132.081)" fill="url(#cw)"/></g></g></g></g><g clip-path="url(#cx)"><rect width="47.952" height="26.8" transform="matrix(0.031, -1, 1, 0.031, 47.818, 124.798)" fill="url(#cy)"/></g><g clip-path="url(#cz)"><rect width="34.257" height="21.65" transform="translate(26.379 110.663) rotate(-88.243)" fill="url(#da)"/></g><g clip-path="url(#db)"><path d="M13.984,97.428l2.9-25.742,13.248,1.55-2.9,25.742Z" fill="url(#dc)"/></g><g clip-path="url(#dd)"><path d="M12.5,85.181l1.387-12.307,9.071,1.061L21.569,86.242Z" fill="url(#de)"/></g><g clip-path="url(#df)"><rect width="151.927" height="35.746" transform="translate(26.184 127.695)" fill="url(#dg)"/></g><g clip-path="url(#a)"><path d="M160.539,153.584,139.628,139.1l-14.421,18.4L106.785,144l-21.83,14.167L69.478,142.887l-19.805,13.4L35.95,137.955l-9.766-7.775,23.489,31.374,19.805-13.4L84.955,163.44l21.83-14.167,18.422,13.5,14.421-18.4,20.911,14.481,17.571-31.16-6.419,6.113Z" fill="#a22e00"/></g><g clip-path="url(#di)"><rect width="56.386" height="31.894" transform="translate(29.688 82.653)" fill="url(#dj)"/></g><g clip-path="url(#a)"><path d="M64.443,109.5c-17.779.938-24.7-13.833-27.285-23.164a40.728,40.728,0,0,1-7.47-3.688s2.877,31.894,28.744,30.529c8.918-.472,14.971-3.21,19.076-6.6a36.533,36.533,0,0,1-13.065,2.92" fill="#a22e00"/></g><g clip-path="url(#dl)"><rect width="56.387" height="31.894" transform="translate(113.2 82.653)" fill="url(#dm)"/></g><g clip-path="url(#a)"><path d="M134.832,109.5c17.779.938,24.7-13.833,27.285-23.164a40.728,40.728,0,0,0,7.47-3.688s-2.877,31.894-28.744,30.529c-8.918-.472-14.971-3.21-19.075-6.6a36.522,36.522,0,0,0,13.064,2.92" fill="#a22e00"/></g></g></svg>