<svg xmlns="http://www.w3.org/2000/svg" xmlns:xlink="http://www.w3.org/1999/xlink" width="407.316" height="387.882" viewBox="0 0 407.316 387.882"><defs><clipPath id="a"><rect width="407.316" height="387.882" fill="none"/></clipPath><clipPath id="c"><path d="M132.791,32.058c1.472,1.976,4.367,4.151,9.96,3.076,6.927-1.328,16.787-1.5,21.619-1.813a95.7,95.7,0,0,0-23.445-2.653c-.057,0-.114,0-.171,0a24.743,24.743,0,0,0-7.963,1.393" transform="translate(-132.791 -30.665)" fill="none"/></clipPath><linearGradient id="d" x1="-8.549" y1="58.714" x2="-8.485" y2="58.714" gradientUnits="objectBoundingBox"><stop offset="0" stop-color="#fe7401"/><stop offset="0.138" stop-color="#fe9433"/><stop offset="0.277" stop-color="#feaf5d"/><stop offset="0.418" stop-color="#fec680"/><stop offset="0.56" stop-color="#fed79c"/><stop offset="0.704" stop-color="#fee4af"/><stop offset="0.849" stop-color="#feebbb"/><stop offset="1" stop-color="#ffeebf"/></linearGradient><clipPath id="f"><path d="M78.066,31.116a95.664,95.664,0,0,0-23.441,2.651c4.831.315,14.695.486,21.613,1.816,5.595,1.075,8.488-1.1,9.962-3.078a24.774,24.774,0,0,0-7.961-1.391c-.059,0-.116,0-.173,0" transform="translate(-54.625 -31.114)" fill="none"/></clipPath><linearGradient id="g" x1="-3.517" y1="58.549" x2="-3.453" y2="58.549" xlink:href="#d"/><clipPath id="i"><path d="M105.157,2.774l-2.084,11.041,9.828,4.847,9.11-2.454,6.638-5.666-6.311-6.483s-7.616-2.745-8.067-2.8l-.033,0c-.73,0-9.082,1.521-9.082,1.521" transform="translate(-103.073 -1.253)" fill="none"/></clipPath><linearGradient id="j" x1="-9.5" y1="13.683" x2="-9.409" y2="13.683" gradientUnits="objectBoundingBox"><stop offset="0" stop-color="#374c00"/><stop offset="0.244" stop-color="#3b5100"/><stop offset="0.556" stop-color="#466100"/><stop offset="0.904" stop-color="#597b00"/><stop offset="1" stop-color="#608400"/></linearGradient><clipPath id="k"><path d="M116.244,47.67c-7.982,32.394-40.9,40.3-40.9,40.3l61.78-1.246a39.641,39.641,0,0,1-3.048-8.346c-1.368-5.274-.518-15.758,2.084-24.014,3.06-9.724,3.544-22.174,11.2-32.5a36.662,36.662,0,0,1,5.664-6.349s-10.066-1.069-13.707-3.287C130.2,6.672,129.072,2.49,129.072,2.49s-4.845,12.778-12.829,45.18" transform="translate(-75.343 -2.49)" fill="none"/></clipPath><linearGradient id="l" x1="-1.338" y1="3.925" x2="-1.318" y2="3.925" gradientUnits="objectBoundingBox"><stop offset="0" stop-color="#557500"/><stop offset="0.486" stop-color="#587a00"/><stop offset="1" stop-color="#628700"/></linearGradient><clipPath id="n"><path d="M112.087,11.233a23.077,23.077,0,0,1-5.379-5.587,6.946,6.946,0,0,1,1.752-1.2,32.923,32.923,0,0,1,7.189-.7A54.248,54.248,0,0,1,124.181,8c1.326.939,2.968,2.271,4.416,3.483l-4.288,2.885c-2.381-.035-8.6-.4-12.223-3.131M116.523,0s-7.116,0-9.716,1.01-5.036,4.052-5.036,4.052,1.649,4.515,7.636,9.033,16.313,3.989,16.313,3.989l9.285-6.248s-4.942-4.438-8.244-6.774S116.523,0,116.523,0Z" transform="translate(-101.771)" fill="none"/></clipPath><linearGradient id="o" x1="-7.618" y1="10.668" x2="-7.544" y2="10.668" gradientUnits="objectBoundingBox"><stop offset="0" stop-color="#97a800"/><stop offset="0.245" stop-color="#9bad00"/><stop offset="0.556" stop-color="#a9bd00"/><stop offset="0.901" stop-color="#c0d700"/><stop offset="1" stop-color="#c8e000"/></linearGradient><clipPath id="q"><path d="M125.548,12.07s-13.591,4.9-21.343,33.557,6.886,38.9,6.886,38.9a30.839,30.839,0,0,1,7.837-2.641c4.369-.817,10.088-1.923,10.088-1.923s-15.26-3.068-16.366-17.358c-.579-7.561,1.563-20.095,6.278-33.649s15.9-23.136,15.9-23.136Z" transform="translate(-101.938 -5.822)" fill="none"/></clipPath><linearGradient id="r" x1="-2.088" y1="6.592" x2="-2.064" y2="6.592" gradientUnits="objectBoundingBox"><stop offset="0" stop-color="#557500"/><stop offset="0.207" stop-color="#587a00"/><stop offset="0.469" stop-color="#648a00"/><stop offset="0.76" stop-color="#76a400"/><stop offset="1" stop-color="#8abf00"/></linearGradient><clipPath id="t"><path d="M161.7,37.957c-53.6,24.681-48.36,40.27-48.36,124.3s41.379,152.149,92.422,152.149,88.74-62.337,82.489-153.94c-5.308-77.735-52.091-128.6-99.088-128.6A65.22,65.22,0,0,0,161.7,37.957" transform="translate(-113.201 -31.864)" fill="none"/></clipPath><linearGradient id="u" x1="-1.152" y1="1.134" x2="-1.141" y2="1.134" gradientUnits="objectBoundingBox"><stop offset="0" stop-color="#fe5e01"/><stop offset="0.231" stop-color="#fe6004"/><stop offset="0.428" stop-color="#fe690e"/><stop offset="0.614" stop-color="#fe7720"/><stop offset="0.792" stop-color="#fe8b39"/><stop offset="0.964" stop-color="#fea559"/><stop offset="1" stop-color="#ffac61"/></linearGradient><clipPath id="v"><path d="M155.388,42c-53.6,24.687-48.36,40.275-48.36,124.3s41.381,152.149,92.42,152.149,88.74-62.333,82.489-153.938c-5.308-77.739-52.091-128.6-99.088-128.606A65.18,65.18,0,0,0,155.388,42" transform="translate(-106.888 -35.91)" fill="none"/></clipPath><linearGradient id="w" x1="-1.138" y1="1.114" x2="-1.128" y2="1.114" gradientUnits="objectBoundingBox"><stop offset="0" stop-color="#e05301"/><stop offset="0.429" stop-color="#de5801"/><stop offset="0.965" stop-color="#db6702"/><stop offset="1" stop-color="#db6903"/></linearGradient><clipPath id="y"><path d="M140.04,35.857c.1-.012.205-.02.307-.033l-.51.11s30.9-.575,45.92,8.679a122.568,122.568,0,0,1,21.9,17.006,43.4,43.4,0,0,0-11.969-16.155c9.238,4.5,18.558,10.993,28.261,20.507,5.575,5.467,9.511,9.112,12.229,11.684-19.046-29.168-46.026-46.044-73.094-46.042a64.827,64.827,0,0,0-23.042,4.243" transform="translate(-139.837 -31.614)" fill="none"/></clipPath><linearGradient id="z" x1="-3.096" y1="3.349" x2="-3.074" y2="3.349" gradientUnits="objectBoundingBox"><stop offset="0" stop-color="#fe8009"/><stop offset="0.12" stop-color="#fe9933"/><stop offset="0.262" stop-color="#feb35d"/><stop offset="0.406" stop-color="#fec880"/><stop offset="0.551" stop-color="#fed89c"/><stop offset="0.697" stop-color="#fee4af"/><stop offset="0.846" stop-color="#feebbb"/><stop offset="1" stop-color="#ffeebf"/></linearGradient><clipPath id="ab"><path d="M176.249,39.992c-39.791,7.229-73.364,53.406-73.364,137.436s38.742,153.623,91.186,151.98c51.07-1.6,95.087-68.076,90.838-151.98-4.617-91.265-44.845-138.769-94.126-138.773a81.091,81.091,0,0,0-14.534,1.338" transform="translate(-102.885 -38.654)" fill="none"/></clipPath><linearGradient id="ac" x1="-0.906" y1="1.027" x2="-0.897" y2="1.027" gradientUnits="objectBoundingBox"><stop offset="0" stop-color="#fe7a01"/><stop offset="0.389" stop-color="#fe7b03"/><stop offset="0.639" stop-color="#fe820c"/><stop offset="0.85" stop-color="#fe8d1b"/><stop offset="1" stop-color="#fe992b"/></linearGradient><clipPath id="ad"><path d="M194.465,130.182c3.859,18.743,5.926,100.735,5.926,100.735l12.749.636s-1.818-1.877-3.058-9.317,1.283-12.861,1.836-38.605-3.535-44.491-9.187-66.954-18.6-40.238-25.769-48.506S161.53,53.978,161.53,52.862s3.521.455,3.521.455l-6.634-6.038L147.512,46.3s43.094,65.145,46.953,83.885" transform="translate(-147.512 -46.297)" fill="none"/></clipPath><linearGradient id="ae" x1="-4.311" y1="1.579" x2="-4.282" y2="1.579" gradientUnits="objectBoundingBox"><stop offset="0" stop-color="#fe5e01"/><stop offset="0.372" stop-color="#fe6301"/><stop offset="0.84" stop-color="#fe7202"/><stop offset="1" stop-color="#ff7a03"/></linearGradient><clipPath id="ag"><path d="M83.245,196.773c0,85.176,39.939,137.584,90.928,137.584s105.316-39.39,102.077-147.928C273.08,79.954,226.566,42.544,175.574,42.544S83.245,111.6,83.245,196.773" transform="translate(-83.245 -42.544)" fill="none"/></clipPath><linearGradient id="ah" x1="-0.694" y1="1.002" x2="-0.685" y2="1.002" xlink:href="#w"/><clipPath id="aj"><path d="M139.136,39.992c-.11.024-.218.057-.325.081.732.014,1.441.059,2.163.085,6.77.429,28.009,3.115,41.5,19.82,13.4,16.594,15.764,22.876,15.764,22.876s-6.613-19.058-15.3-28.507a79.1,79.1,0,0,0-6.992-6.829c34.1,14.142,56.23,47.162,66.751,88.356-13.068-64.079-47.888-97.222-89.043-97.22a81.188,81.188,0,0,0-14.526,1.338" transform="translate(-138.811 -38.654)" fill="none"/></clipPath><linearGradient id="ak" x1="-1.905" y1="2.352" x2="-1.891" y2="2.352" xlink:href="#z"/><clipPath id="am"><path d="M136.671,56.76,162.4,243.241l9.153,13.589s12.894-4.408,6.717-16.447-3.745-35.639-2.556-64.578-3.946-58.155-13.591-84.89c-6.577-18.222-7.65-25.826-7.669-28.818a4.232,4.232,0,0,1,.213-1.791l-11.556-9.348Z" transform="translate(-136.671 -50.958)" fill="none"/></clipPath><linearGradient id="an" x1="-5.817" y1="1.381" x2="-5.774" y2="1.381" gradientUnits="objectBoundingBox"><stop offset="0" stop-color="#fe6901"/><stop offset="0.502" stop-color="#fe6e01"/><stop offset="1" stop-color="#ff7a03"/></linearGradient><clipPath id="ap"><path d="M86.8,195.759c-3.92,109.024,20.4,146.641,63.52,146.641,52.522,0,73.179-49.2,73.179-151.451C223.5,103.075,197.064,41,146.2,41,103.087,41,90.752,85.766,86.8,195.759" transform="translate(-86.385 -40.996)" fill="none"/></clipPath><linearGradient id="aq" x1="-0.9" y1="0.988" x2="-0.889" y2="0.988" gradientUnits="objectBoundingBox"><stop offset="0" stop-color="#e05301"/><stop offset="0.305" stop-color="#e45801"/><stop offset="0.688" stop-color="#f06802"/><stop offset="1" stop-color="#ff7a03"/></linearGradient><clipPath id="as"><path d="M164.642,63.031c12.648,15.1,17.2,24.622,17.2,24.622s-5.991-20.44-15.136-29.514c-1.685-1.675-3.135-3.041-4.379-4.164,35.062,18.741,53.457,52.444,62.453,93.735C212.916,73.693,174.532,44.762,132.1,42.656c2.194.529,4.322,1.112,6.422,1.724L132.1,42.656l-5.093-.134s24.2,4.475,37.63,20.509" transform="translate(-127.012 -42.522)" fill="none"/></clipPath><linearGradient id="at" x1="-1.644" y1="2.249" x2="-1.63" y2="2.249" gradientUnits="objectBoundingBox"><stop offset="0" stop-color="#fe8801"/><stop offset="0.138" stop-color="#fea233"/><stop offset="0.277" stop-color="#feb95d"/><stop offset="0.418" stop-color="#fecc80"/><stop offset="0.56" stop-color="#fedb9c"/><stop offset="0.704" stop-color="#fee5af"/><stop offset="0.849" stop-color="#feebbb"/><stop offset="1" stop-color="#ffeebf"/></linearGradient><clipPath id="av"><path d="M108.557,42.223a30.158,30.158,0,0,1,10.375,2.151C123.8,46.7,131.589,50.038,138.742,56A59.426,59.426,0,0,1,153.65,74.959s-6.014-17.549-14.579-24.584c-.966-.8-1.872-1.5-2.736-2.139,19.029,8.262,35.507,24.573,47.372,46.093C169.75,58.366,147.2,40.6,121.381,40.6c-4.621,0-8.972,0-12.824,1.626" transform="translate(-108.557 -40.597)" fill="none"/></clipPath><linearGradient id="aw" x1="-2.423" y1="3.514" x2="-2.4" y2="3.514" xlink:href="#at"/><clipPath id="ay"><path d="M76.981,196.185c-.535,102.978,4.28,147.723,47.4,147.723,52.528,0,48.746-64.6,50.562-151.281C177.519,69.49,163.017,40.6,119.89,40.6S77.515,95.266,76.981,196.185" transform="translate(-76.944 -40.602)" fill="none"/></clipPath><linearGradient id="az" x1="-0.18" y1="2.003" x2="-0.173" y2="2.003" gradientUnits="objectBoundingBox"><stop offset="0" stop-color="#c92901"/><stop offset="0.09" stop-color="#d13601"/><stop offset="0.326" stop-color="#e55302"/><stop offset="0.559" stop-color="#f36802"/><stop offset="0.786" stop-color="#fc7502"/><stop offset="1" stop-color="#ff7a03"/></linearGradient><clipPath id="ba"><path d="M125.718,86.028l.065.11c-.024-.136-.039-.177-.049-.177s-.016.067-.016.067m31.1,10.6c-6.158,1.523-12.7-12.33-12.7-12.33s.768,11.379-5.581,12.33c-5.981.89-12.074-9.3-12.757-10.486.142.858.6,5.542,1.994,28.489,1.915,31.423.628,57.97.628,57.97s2.631-26.167,14.945-27.8,14.349,9.322,14.349,9.322,4.873-13.459,11.806-14.611,7.534,12.121,7.534,12.121.248-31.419-3.869-50.594c-4.05-18.858-7.193-24.386-7.193-24.386s-3,18.45-9.159,19.977" transform="translate(-125.718 -76.648)" fill="none"/></clipPath><linearGradient id="bb" x1="-4.664" y1="2.388" x2="-4.627" y2="2.388" gradientUnits="objectBoundingBox"><stop offset="0" stop-color="#fe9201"/><stop offset="0.135" stop-color="#fe9406"/><stop offset="0.306" stop-color="#fe9c16"/><stop offset="0.497" stop-color="#fea830"/><stop offset="0.701" stop-color="#feba54"/><stop offset="0.914" stop-color="#fed081"/><stop offset="0.986" stop-color="#ffd993"/><stop offset="1" stop-color="#ffd993"/></linearGradient><clipPath id="bc"><path d="M168.981,89.011c-8.124.907-16.671-11.536-16.671-11.536S156.254,98.1,157.474,109s2.155,35.444,2.155,35.444,11.5-24.815,19.875-24.677,13.869,11.389,13.869,11.389.872-13.121-3.818-32.952c-3.944-16.685-8.27-22.152-8.27-22.152s-4.178,12.052-12.3,12.955" transform="translate(-152.31 -76.056)" fill="none"/></clipPath><linearGradient id="bd" x1="-7.012" y1="3.358" x2="-6.966" y2="3.358" gradientUnits="objectBoundingBox"><stop offset="0" stop-color="#fe8801"/><stop offset="0.168" stop-color="#fe8b06"/><stop offset="0.381" stop-color="#fe9316"/><stop offset="0.619" stop-color="#fea230"/><stop offset="0.872" stop-color="#feb653"/><stop offset="1" stop-color="#ffc269"/></linearGradient><clipPath id="be"><path d="M180.422,92.473c2.181,7.018,7.173,29.939,7.173,29.939s.35-13.219,1.789-13.353,5.188,2.474,5.188,2.474a119.715,119.715,0,0,0-8.584-23.553c-5.969-12.062-13.009-16.067-13.009-16.067s5.272,13.534,7.443,20.56" transform="translate(-172.979 -71.913)" fill="none"/></clipPath><linearGradient id="bf" x1="-10.541" y1="4.4" x2="-10.479" y2="4.4" gradientUnits="objectBoundingBox"><stop offset="0" stop-color="#fe7e07"/><stop offset="0.149" stop-color="#fe810c"/><stop offset="0.338" stop-color="#fe8a1c"/><stop offset="0.549" stop-color="#fe9a36"/><stop offset="0.774" stop-color="#feb05a"/><stop offset="1" stop-color="#ffcb86"/></linearGradient><clipPath id="bg"><path d="M184.217,84.374c1.7,3.328,2.515,11.887,2.515,11.887s7.984-4.584,3.462-10.533a155.45,155.45,0,0,0-11.519-12.942s4.493,9.533,5.542,11.588" transform="translate(-178.675 -72.786)" fill="none"/></clipPath><linearGradient id="bh" x1="-16.96" y1="8.899" x2="-16.865" y2="8.899" xlink:href="#bf"/><clipPath id="bj"><path d="M1.39,161.465c-6.256,91.6,31.445,153.944,82.489,153.944s92.42-68.121,92.42-152.153,5.241-99.619-48.36-124.3a65.22,65.22,0,0,0-27.462-6.093c-47,0-93.78,50.867-99.086,128.6" transform="translate(-0.711 -32.863)" fill="none"/></clipPath><linearGradient id="bk" x1="0.189" y1="1.433" x2="0.196" y2="1.433" xlink:href="#u"/><clipPath id="bl"><path d="M7.7,165.516c-6.252,91.6,31.449,153.938,82.491,153.938s92.42-68.123,92.42-152.149S187.852,67.69,134.252,43a65.226,65.226,0,0,0-27.458-6.093C59.8,36.916,13.01,87.777,7.7,165.516" transform="translate(-7.023 -36.908)" fill="none"/></clipPath><linearGradient id="bm" x1="-0.047" y1="1.107" x2="-0.036" y2="1.107" xlink:href="#w"/><clipPath id="bo"><path d="M13.123,78.655c2.718-2.572,6.656-6.217,12.231-11.686,9.706-9.513,19.025-16.01,28.261-20.505A43.419,43.419,0,0,0,41.645,62.619a122.626,122.626,0,0,1,21.9-17.008c15.02-9.252,45.924-8.679,45.924-8.679l-.512-.11c.1.014.205.02.307.035a64.819,64.819,0,0,0-23.042-4.243c-27.068,0-54.05,16.874-73.1,46.042" transform="translate(-13.123 -32.613)" fill="none"/></clipPath><linearGradient id="bp" x1="-0.21" y1="3.728" x2="-0.19" y2="3.728" xlink:href="#z"/><clipPath id="br"><path d="M8.074,178.428c-4.249,83.9,39.768,150.378,90.84,151.978,52.442,1.641,91.184-67.95,91.184-151.978S156.525,48.22,116.736,40.991A81.113,81.113,0,0,0,102.2,39.653c-49.281,0-89.507,47.508-94.126,138.775" transform="translate(-7.79 -39.653)" fill="none"/></clipPath><linearGradient id="bs" x1="0.161" y1="1.249" x2="0.168" y2="1.249" xlink:href="#ac"/><clipPath id="bt"><path d="M75.278,48.276l-6.634,6.04s3.523-1.574,3.523-.455S63.9,60.9,56.735,69.169,36.614,95.215,30.964,117.676s-9.738,41.212-9.187,66.954,3.074,31.162,1.834,38.6-3.056,9.319-3.056,9.319l12.751-.636s2.068-81.995,5.926-100.735S86.184,47.3,86.184,47.3Z" transform="translate(-20.555 -47.296)" fill="none"/></clipPath><linearGradient id="bu" x1="0.1" y1="3.379" x2="0.111" y2="3.379" xlink:href="#ae"/><clipPath id="bw"><path d="M22.238,187.429C19,295.965,73.326,335.356,124.317,335.356s90.93-52.408,90.93-137.584S173.913,43.543,122.916,43.543,25.41,80.953,22.238,187.429" transform="translate(-22.1 -43.543)" fill="none"/></clipPath><linearGradient id="bx" x1="0.048" y1="1.185" x2="0.055" y2="1.185" xlink:href="#w"/><clipPath id="bz"><path d="M10.434,136.871C20.957,95.68,43.085,62.659,77.187,48.517a79.369,79.369,0,0,0-6.994,6.829C61.51,64.794,54.9,83.853,54.9,83.853s2.36-6.282,15.762-22.876c13.493-16.708,34.732-19.391,41.5-19.82.722-.026,1.433-.073,2.165-.085-.11-.026-.218-.057-.325-.081a81.194,81.194,0,0,0-14.528-1.338c-41.153,0-75.975,33.141-89.043,97.218" transform="translate(-10.434 -39.653)" fill="none"/></clipPath><linearGradient id="ca" x1="-0.02" y1="2.36" x2="-0.006" y2="2.36" xlink:href="#z"/><clipPath id="cc"><path d="M67.67,61.3a4.231,4.231,0,0,1,.213,1.791c-.018,2.991-1.092,10.6-7.667,28.818-9.645,26.735-14.78,55.949-13.591,84.89s3.619,52.536-2.556,64.578,6.715,16.449,6.715,16.449L59.94,244.24,85.66,57.759l-6.433-5.8Z" transform="translate(-42.395 -51.957)" fill="none"/></clipPath><linearGradient id="cd" x1="-1.71" y1="1.371" x2="-1.668" y2="1.371" xlink:href="#an"/><clipPath id="cf"><path d="M46.522,191.946C46.522,294.2,67.178,343.4,119.7,343.4c43.121,0,67.44-37.619,63.52-146.643C179.263,86.765,166.931,42,123.814,42c-50.861,0-77.292,62.079-77.292,149.951" transform="translate(-46.522 -41.995)" fill="none"/></clipPath><linearGradient id="cg" x1="-0.023" y1="1.377" x2="-0.017" y2="1.377" xlink:href="#aq"/><clipPath id="ci"><path d="M117.922,43.656,111.5,45.378c2.1-.61,4.233-1.2,6.424-1.722C75.5,45.762,37.111,74.693,25.246,148.712c9-41.291,27.393-74.995,62.455-93.737-1.244,1.124-2.692,2.49-4.379,4.166-9.145,9.071-15.136,29.514-15.136,29.514s4.552-9.525,17.2-24.624C98.818,48,123.015,43.52,123.015,43.52Z" transform="translate(-25.246 -43.52)" fill="none"/></clipPath><linearGradient id="cj" x1="-0.205" y1="2.221" x2="-0.191" y2="2.221" xlink:href="#at"/><clipPath id="cl"><path d="M54.827,95.33C66.692,73.811,83.17,57.5,102.2,49.237c-.862.64-1.769,1.342-2.736,2.137C90.9,58.408,84.883,75.96,84.883,75.96A59.462,59.462,0,0,1,99.792,57c7.152-5.957,14.939-9.3,19.81-11.621a30.171,30.171,0,0,1,10.375-2.153c-3.853-1.626-8.2-1.626-12.822-1.626-25.818,0-48.37,17.771-62.327,53.735" transform="translate(-54.827 -41.595)" fill="none"/></clipPath><linearGradient id="cm" x1="-1.114" y1="3.626" x2="-1.092" y2="3.626" xlink:href="#at"/><clipPath id="co"><path d="M75.2,193.624c.173,86.7-1.966,151.283,50.558,151.283,43.119,0,47.935-44.747,47.4-147.723C172.63,96.265,173.37,41.6,130.255,41.6S75.013,97.036,75.2,193.624" transform="translate(-75.202 -41.601)" fill="none"/></clipPath><linearGradient id="cp" x1="-1.479" y1="0.999" x2="-1.459" y2="0.999" xlink:href="#az"/><clipPath id="cr"><path d="M81.239,83.707a92.53,92.53,0,0,1,16.59-23.868,19.818,19.818,0,0,0-.716,7.425s10.564-16.939,25.972-16.281,24.683,13.8,24.683,13.8a22.866,22.866,0,0,0-3.966-9.47,58.043,58.043,0,0,1,16.651,21.754c-5.566-23.347-16.14-35.47-36.434-35.47-21.92,0-36.349,14.851-42.779,42.106" transform="translate(-81.239 -41.601)" fill="none"/></clipPath><linearGradient id="cs" x1="-4.195" y1="4.028" x2="-4.149" y2="4.028" gradientUnits="objectBoundingBox"><stop offset="0" stop-color="#fea000"/><stop offset="0.116" stop-color="#fea205"/><stop offset="0.264" stop-color="#fea815"/><stop offset="0.429" stop-color="#feb32f"/><stop offset="0.606" stop-color="#fec253"/><stop offset="0.792" stop-color="#fed582"/><stop offset="0.985" stop-color="#feecba"/><stop offset="1" stop-color="#ffeebf"/></linearGradient><clipPath id="cu"><rect width="82.724" height="111.976" fill="none"/></clipPath><clipPath id="cv"><path d="M83.323,89.947s-2.133,19.842-2.972,38.538,0,56.576,0,56.576,13.808-31.679,25.181-31.173,23.4,35.143,23.4,35.143,12.56-35.072,21.144-35.143,11.966,33.34,11.966,33.34,1.474-33.122,0-66.887-1.915-42.082-1.915-42.082-12.115,23.325-21.4,23.325-25.927-24.529-25.927-24.529-11.287,21-17.517,21.178-11.969-8.287-11.969-8.287" transform="translate(-79.977 -77.055)" fill="none"/></clipPath><linearGradient id="cw" x1="-1.283" y1="2.505" x2="-1.265" y2="2.505" xlink:href="#cs"/><clipPath id="cx"><path d="M100.645,87.14l.065-.112s0-.067-.016-.067-.024.041-.049.179m-47.39,14.892c-4.115,19.178-3.867,50.6-3.867,50.6s.6-13.276,7.532-12.121,11.806,14.609,11.806,14.609,2.035-10.954,14.349-9.321,14.945,27.8,14.945,27.8-1.287-26.547.628-57.968c1.4-22.941,1.852-27.629,2-28.489-.687,1.185-6.78,11.375-12.759,10.482-6.347-.949-5.579-12.328-5.579-12.328s-6.542,13.851-12.7,12.328-9.161-19.977-9.161-19.977-3.143,5.53-7.193,24.386" transform="translate(-49.386 -77.646)" fill="none"/></clipPath><linearGradient id="cy" x1="-0.792" y1="3.841" x2="-0.771" y2="3.841" xlink:href="#bb"/><clipPath id="cz"><path d="M31.689,99.207c-4.69,19.83-3.816,32.952-3.816,32.952s5.5-11.249,13.869-11.389,19.875,24.677,19.875,24.677S62.548,120.91,63.772,110s5.164-31.526,5.164-31.526S60.389,90.914,52.265,90.01s-12.3-12.955-12.3-12.955-4.326,5.467-8.272,22.152" transform="translate(-27.808 -77.055)" fill="none"/></clipPath><linearGradient id="da" x1="-0.601" y1="4.977" x2="-0.572" y2="4.977" xlink:href="#bd"/><clipPath id="db"><path d="M25.333,88.979a119.953,119.953,0,0,0-8.586,23.555s3.751-2.614,5.192-2.476,1.787,13.353,1.787,13.353S28.718,100.49,30.9,93.47s7.445-20.558,7.445-20.558S31.3,76.917,25.333,88.979" transform="translate(-16.747 -72.912)" fill="none"/></clipPath><linearGradient id="dc" x1="-0.866" y1="4.363" x2="-0.804" y2="4.363" xlink:href="#bf"/><clipPath id="dd"><path d="M16.712,86.727c-4.521,5.947,3.462,10.531,3.462,10.531s.819-8.557,2.515-11.885c1.051-2.057,5.542-11.588,5.542-11.588A155.858,155.858,0,0,0,16.712,86.727" transform="translate(-15.325 -73.785)" fill="none"/></clipPath><linearGradient id="de" x1="-1.195" y1="8.825" x2="-1.099" y2="8.825" xlink:href="#bf"/><clipPath id="df"><path d="M156.773,207.6c92.784.579,127.7-74.838,127.7-74.838S265.263,138.2,237.54,143.1L233.2,161.33l-24.992,2.031-5.4-15.254a398.884,398.884,0,0,1-49.393,2.584c-9.96-.148-19.523-.748-28.572-1.645L122.2,167.354l-24.409-2.787-9.285-21.016c-29.005-5.906-47.191-13.3-47.191-13.3S63.992,207.023,156.773,207.6" transform="translate(-41.315 -130.249)" fill="none"/></clipPath><radialGradient id="dg" cx="0.514" cy="-0.459" r="1.436" gradientTransform="matrix(0.321, 0, 0, -1, -0.235, 3.159)" gradientUnits="objectBoundingBox"><stop offset="0" stop-color="#5c0200"/><stop offset="0.234" stop-color="#570100"/><stop offset="0.471" stop-color="#4b0100"/><stop offset="0.71" stop-color="#370100"/><stop offset="0.949" stop-color="#1b0100"/><stop offset="1" stop-color="#140100"/></radialGradient><clipPath id="di"><path d="M58.13,72.458c-17.2,8.508-30.081,67.611-6.66,74.192s81.9-5.174,83.446-21.28c1.5-15.669-49.5-53.989-71.425-53.985a12.084,12.084,0,0,0-5.361,1.073" transform="translate(-38.735 -71.385)" fill="none"/></clipPath><radialGradient id="dj" cx="1.336" cy="0.386" r="1.572" gradientTransform="matrix(0.755, 0, 0, -1, -0.154, 5.932)" xlink:href="#dg"/><clipPath id="dk"><path d="M162.791,72.347c-45.164,17.681-53.04,38.943-51.42,59.066,1.059,13.138,33.2,18.946,73.356,20.609,18.6.771,24.956-20.058,21.93-40.884-2.972-20.45-14.992-40.9-33.34-40.9a28.8,28.8,0,0,0-10.527,2.114" transform="translate(-111.178 -70.233)" fill="none"/></clipPath><radialGradient id="dl" cx="-0.28" cy="0.488" r="1.203" gradientTransform="matrix(0.826, 0, 0, -1, -0.391, 5.937)" xlink:href="#dg"/></defs><g clip-path="url(#a)"><g clip-path="url(#a)"><path d="M67.33,43.6,79.6,37.754l19.653.2,13.977-4.129s19.808,1.834,20.751,1.937,22.935-4.273,24.248-3.914,15.189,3.914,15.189,3.914l30.821,1.994,6.679,11.43L176.256,63.419s-45.567,5.928-50.377,5.636S66.242,57.793,66.242,56.641,67.33,43.6,67.33,43.6" transform="translate(68.431 32.876)" fill="#374c00"/><path d="M145.54,30.666c13.638.114,25.907,1.769,37.538,8.224a13.421,13.421,0,0,1,.392,3.32c-.384.429-46.091,4.936-46.091,4.936s-8.091.962-8.892-3.385c-1.633-8.878,9.387-13.158,17.053-13.095" transform="translate(132.564 31.679)" fill="#8a2c00"/><path d="M141.575,30.666c11.481.1,21.987,1.321,31.972,5.55L171.156,37.7s-20.129.628-29,1.925c-6.89,1.01-9.655-3.2-9.99-7.087a24.642,24.642,0,0,1,9.413-1.877" transform="translate(136.529 31.679)" fill="#db6903"/></g><g transform="translate(269.97 62.343)"><g clip-path="url(#c)"><rect width="31.579" height="5.544" transform="translate(0 0)" fill="url(#d)"/></g></g><g clip-path="url(#a)"><path d="M144.978,39.8a25.472,25.472,0,0,1-11.885,1.206c-5.674-.974-2.2-7.252-1.706-7.97-.041.039-.089.073-.13.114-.059.057-.132.13-.218.216a8.583,8.583,0,0,0-2.553,7.943c.8,4.347,8.893,3.385,8.893,3.385s1.332-.13,3.511-.348c1.948-2.125,4.088-4.546,4.088-4.546" transform="translate(132.565 34.13)" fill="#5e1e00"/><path d="M71.593,46.384c0-.13,4.686-.61,7.071-3.954a8.362,8.362,0,0,0,1.285-2.59s3.188,2.582,11.989,1.9,16.738-5.3,16.738-5.3,7.577,4.467,21.44,3.4a151.787,151.787,0,0,0,24.443-3.855,25.289,25.289,0,0,0,12.41,5.2c7.886,1.149,17.6,0,17.6,0s-.193.962,2.6,1.728-6.233,10.456-6.233,10.456H70.883Z" transform="translate(73.225 37.176)" fill="#527100"/><path d="M178.214,48.805s1.517-3.664,0-3.869-9.2-3.379-9.2-3.379a34.376,34.376,0,0,1-10.09.829A14.689,14.689,0,0,1,151,39.006l-8.807,2.551-27.342-.848a24.549,24.549,0,0,1-8.293,1.95c-3.859,0-10.61-2.334-10.61-2.334s-1.1,2.405-5.993,2.7A32.96,32.96,0,0,1,80.3,41.966a29.267,29.267,0,0,1-6.2,6.193l.114,2.09h72.555Z" transform="translate(76.555 40.295)" fill="#374b00"/><path d="M134.706,27.94c14.13,1.474,22.04,5.5,21.528,8.031s-5.65,6.1-6.2,8.459-12.493,4.458-17.45,3.822-13.56-5.4-18.271-9.179c-5.349-4.294-9.94-6.435-2.253-8.653s16.313-3.139,22.642-2.48" transform="translate(111.556 28.648)" fill="#8a2c00"/><path d="M156.222,34.312s-6.223,8.348-20.141,7.8c-12.761-.5-23.947-11.021-25.724-12.772-5.16,2.029-.937,4.156,3.948,8.075,4.711,3.783,13.318,8.543,18.271,9.181s16.907-1.46,17.45-3.822c.443-1.913,3.859-4.611,5.43-6.912a10.582,10.582,0,0,0,.766-1.547" transform="translate(111.568 30.306)" fill="#5e1e00"/><path d="M153.347,34.1c-2.175,2.781-8.35,8.268-21.709,4.739A106.31,106.31,0,0,1,109.866,30.5c.094-.026.167-.055.258-.081,7.691-2.218,16.313-3.139,22.642-2.48,10.991,1.145,18.147,3.828,20.581,6.16" transform="translate(113.496 28.647)" fill="#db6903"/><path d="M131.093,27.935a59.209,59.209,0,0,1,16.661,3.812c-1.114,1.328-4.223,3.1-14.18,2.326a104.638,104.638,0,0,1-22.087-4.389,62.292,62.292,0,0,1,19.607-1.748" transform="translate(115.17 28.653)" fill="#ffc884"/><path d="M85.448,31.115c-13.64.114-25.907,1.769-37.54,8.224a13.2,13.2,0,0,0-.392,3.32c.384.429,46.093,4.936,46.093,4.936s8.094.962,8.89-3.387c1.635-8.876-9.387-13.156-17.051-13.093" transform="translate(49.05 32.143)" fill="#a33400"/><path d="M82.4,31.115c-11.483.094-21.987,1.321-31.97,5.55,1.393.87,2.389,1.488,2.389,1.488s20.129.628,29,1.925c6.89,1.01,9.661-3.2,9.994-7.089A24.68,24.68,0,0,0,82.4,31.115" transform="translate(52.097 32.143)" fill="#db6903"/></g><g transform="translate(111.055 63.256)"><g clip-path="url(#f)"><rect width="31.575" height="5.544" transform="translate(0 0)" fill="url(#g)"/></g></g><g clip-path="url(#a)"><path d="M85.884,42.778c.8-4.349-1.445-7.587-4.837-9.759l-1.726-.52s5.642,7.02,2.432,10.771-17.98-2.9-18.188-2.769l7.9,5.115c3.369.337,5.526.549,5.526.549s8.092.96,8.89-3.387" transform="translate(65.665 33.573)" fill="#5e1e00"/><path d="M91.956,27.94c-14.136,1.474-22.044,5.5-21.526,8.031s7.03,7.6,8.874,9.175c2.5,2.137,9.814,3.743,14.766,3.106s13.56-5.4,18.273-9.179c5.345-4.294,9.94-6.435,2.253-8.653s-16.311-3.139-22.64-2.48" transform="translate(72.733 28.648)" fill="#8a2c00"/><path d="M70.883,34.1c2.173,2.781,8.35,8.268,21.7,4.739A106.335,106.335,0,0,0,114.362,30.5c-.094-.026-.165-.055-.26-.081-7.687-2.218-16.311-3.139-22.638-2.48-10.993,1.145-18.153,3.828-20.58,6.16" transform="translate(73.225 28.647)" fill="#db6903"/><path d="M89.473,27.935A59.227,59.227,0,0,0,72.81,31.747c1.11,1.328,4.223,3.1,14.18,2.326a104.621,104.621,0,0,0,22.083-4.389,62.26,62.26,0,0,0-19.6-1.748" transform="translate(75.216 28.653)" fill="#ffc884"/><path d="M91.632,32.241a2.124,2.124,0,0,0,.323-.825Z" transform="translate(94.66 32.454)" fill="#8a1b01"/><path d="M92.69,42.065c-7.9,2.068-21.142-5.693-21.168-5.709,1.37,1.9,5.546,5.192,6.63,5.892a21.617,21.617,0,0,0,14.766,3.106c4.952-.64,13.56-5.4,18.273-9.181l.045-.035.746-5.6c-.756,1.319-7.683,8.492-19.292,11.529" transform="translate(73.885 31.545)" fill="#5e1e00"/><path d="M110.511,27.35c-7.014.01-16.478,5.971-20.845,11.094-3.958,4.648,11.987,8.588,21.3,7.953,11.7-.8,27.229-1.962,22.433-9.4-6.231-9.651-16.555-9.659-22.886-9.647" transform="translate(91.989 28.253)" fill="#8a2c00"/><path d="M110.965,41.938c11.7-.8,27.229-1.962,22.433-9.4-.2-.309-.415-.579-.622-.868-2.025,2.261-6.729,5.3-17.669,6.25-15.7,1.36-22.408-4.08-23.913-5.548-.555.543-1.073,1.084-1.527,1.614-3.958,4.65,11.987,8.59,21.3,7.955" transform="translate(91.99 32.713)" fill="#5e1e00"/><path d="M118.883,38.443c5.788-1.456,4.379-4.6,2.458-7.978-5.459-3.048-11.6-3.123-15.913-3.117a20.525,20.525,0,0,0-7.441,1.738c-5.259,4.336-6.548,10.379,3.487,10.379,9.533,0,10.08.821,17.409-1.023" transform="translate(97.07 28.253)" fill="#db6903"/><path d="M114.466,28.7a39.274,39.274,0,0,0-11.891-1.354,16.721,16.721,0,0,0-4.219.659c-2.545,3.151-3.369,4.532,7.266,4.2,9.787-.3,9.791-.805,8.844-3.507" transform="translate(99.927 28.253)" fill="#ffc884"/></g><g transform="translate(209.552 2.547)"><g clip-path="url(#i)"><rect width="22.234" height="28.575" transform="matrix(0.203, -0.979, 0.979, 0.203, -3.457, 16.693)" fill="url(#j)"/></g></g><g transform="translate(153.175 5.062)"><g clip-path="url(#k)"><rect width="104.494" height="99.321" transform="translate(-23.953 78.139) rotate(-72.957)" fill="url(#l)"/></g></g><g clip-path="url(#a)"><path d="M113.3,42.074c-6.083,0-5.969-8.079-5.969-8.079a.408.408,0,0,1-.043.035c-12.627,16.74-31.943,21.4-31.943,21.4l61.782-1.244a39.755,39.755,0,0,1-3.05-8.348,27.017,27.017,0,0,1-.622-6.426l-3.771-3.6s-5.39,6.27-16.384,6.27" transform="translate(77.831 35.118)" fill="#476100"/><path d="M134.633,15.514s-10.066-1.069-13.707-3.289C111.81,6.672,110.684,2.49,110.684,2.49s-4.847,12.778-12.828,45.18a52.289,52.289,0,0,1-4.713,12.267c2.421-3.043,7.48-9.075,9.218-8.685,2.314.518-.929,8.575-.929,8.575s4.052-6.085,5.9-5.878,3.887,6.313,3.887,6.313A65.3,65.3,0,0,0,117.5,45.231c.38-1.474.317-4.619,2.326-6.7,1.486-6.085,4.981-11.058,9.136-16.667a36.607,36.607,0,0,1,5.666-6.349" transform="translate(96.221 2.572)" fill="#547200"/></g><g transform="translate(206.905)"><g clip-path="url(#n)"><rect width="27.536" height="37.23" transform="translate(-5.216 17.014) rotate(-72.957)" fill="url(#o)"/></g></g><g clip-path="url(#a)"><path d="M130.395,15.514s-10.066-1.069-13.707-3.289c-9.116-5.552-10.242-9.734-10.242-9.734s-3.409,9.012-9.2,30.957c1.667-2.671,3.712-5.349,4.983-4.861,2.429.935.173,8.956.173,8.956s3.838-8.177,6.691-7.319,0,8.722,0,8.722,2.73-5.723,4.174-5.528-2.059,8.657-2.059,8.657l6.807-5.941a44.066,44.066,0,0,1,6.715-14.27,36.606,36.606,0,0,1,5.666-6.349" transform="translate(100.459 2.572)" fill="#4e6b00"/><path d="M132.45,50.274a39.755,39.755,0,0,1-3.05-8.348,22.1,22.1,0,0,1-.549-3.983c-1.714,1.332-5.965,4.251-10.245,4.192-5.528-.077-6.022-1.332-6.022-1.332s-7.673,3.222-13.245,1.332c-2.812-.956-3.623-2.783-3.749-4.361A61.328,61.328,0,0,1,86.7,44.419l-6.829,6.914Z" transform="translate(82.506 39.023)" fill="#384d00"/></g><g transform="translate(207.243 11.836)"><g clip-path="url(#q)"><rect width="85.377" height="55.288" transform="translate(-22.93 74.633) rotate(-76.849)" fill="url(#r)"/></g></g><g clip-path="url(#a)"><path d="M116.788,46.077A17.343,17.343,0,0,1,112.643,35.9a39.74,39.74,0,0,1-.039-4.184.266.266,0,0,0-.02-.037s-.7,4.713-4.574,5.255c-3.918.551-5.941-4.082-6.026-4.275a38.988,38.988,0,0,0,1.675,13.591,31.972,31.972,0,0,0,7.569,2.188,52.215,52.215,0,0,0,5.56-2.358" transform="translate(105.314 32.724)" fill="#517000"/><path d="M118.424,50.006c4.369-.815,10.086-1.921,10.086-1.921s-10.763-2.2-14.853-11.387l-.045-.014s1.149,2.3-1.055,3.273c-1.659.732-4.088-2.535-4.088-2.535s.677,2.948-1.45,3.267c-2.614.394-4.53-2.175-4.593-2.261,1.742,7.486,5.325,11.637,7.1,13.312.726.1,1.511.2,2.332.309a31.228,31.228,0,0,1,6.563-2.043" transform="translate(105.81 37.895)" fill="#415900"/><path d="M102.255,58.185c-.018-.116-2.1-11.523,3.013-26.942,4.416-13.327,7.524-15.852,7.632-15.939-.024.02-2.787,3.1-7.114,16.148-5.06,15.272-3.546,26.619-3.531,26.732" transform="translate(105.186 15.81)" fill="#8fc400"/><path d="M114.052,161.993c0,84.03,41.381,152.151,92.42,152.151s88.744-62.337,82.487-153.942C282.608,67.164,216.853,12.62,162.412,37.693c-53.6,24.681-48.36,40.268-48.36,124.3" transform="translate(117.676 32.644)" fill="#fff4a2"/></g><g transform="translate(230.142 64.781)"><g clip-path="url(#t)"><rect width="192.647" height="286.624" transform="translate(-11.389 0.138) rotate(-1.275)" fill="url(#u)"/></g></g><g transform="translate(217.308 73.007)"><g clip-path="url(#v)"><rect width="186.401" height="282.546" transform="translate(-5.101 -0.002)" fill="url(#w)"/></g></g><g clip-path="url(#a)"><path d="M201.273,140.568c.736.394,3.454-13.064,3.454-13.064s-1.391,12.269,4.241,13.068c6.254.886,11.584-29.136,11.718-29.89-2.082,43.452-14.939,77.959-34.322,98.985-2.476-11.127-6.245-29.237-5.991-29.416.366-.27,8.919-53,8.919-53s11.249,12.914,11.981,13.316" transform="translate(186.32 114.339)" fill="#fe5e01"/><path d="M201.273,140.568c.736.394,3.454-13.064,3.454-13.064s-1.391,12.269,4.241,13.068c6.254.886,11.584-29.136,11.718-29.89-2.082,43.452-14.939,77.959-34.322,98.985-2.476-11.127-6.245-29.237-5.991-29.416.366-.27,8.919-53,8.919-53s11.249,12.914,11.981,13.316" transform="translate(186.32 114.339)" fill="#dd5201"/><path d="M216.128,61.693l-82.972-3.346-9.012-6.28c6.8-5.438,15.795-10.47,27.7-15.953a66.541,66.541,0,0,1,7.837-2.984c6.27.518,18.452-.716,30.079,1.24a162.549,162.549,0,0,1,30.5,8.647c.366.268,25.208,26.486,25.208,26.486s-28.641-22.738-33.037-17.838c-2.9,3.228,3.7,10.029,3.7,10.029" transform="translate(128.245 34.224)" fill="#f06d01"/><path d="M191.125,50.734s-56.6,4.926-69.376,6.107c7.171-6.986,17.889-12.662,32.569-19.42a65.877,65.877,0,0,1,19.452-5.556l17.354,4.713s-14.494,1.726-15.8,4.391,15.8,9.765,15.8,9.765" transform="translate(125.772 32.918)" fill="#db6903"/><path d="M163.455,44.742l-36.637,14.87-4.639-5.5c7.055-6.278,16.795-11.9,30.25-18.1,1.87-.86,3.757-1.61,5.65-2.281-3.468,2.533-6.506,5.284-5.491,6.579,2.118,2.692,10.869,4.424,10.869,4.424" transform="translate(126.215 34.854)" fill="#9c3200"/><path d="M166.034,218.814l45.471-68.457s-2.234,13.064,4.556,14.384c7.175,1.393,16.683-40.506,17.1-42.316-8.045,53.125-33.761,88.854-67.123,96.389" transform="translate(171.52 126.47)" fill="#c14801"/><path d="M203.734,160.873c3.052,2.037,8.415-4.891,8.827-5.44-10.336,19.613-24.3,33.553-40.575,40.334l-2.015-2.863L204.5,141.636s-3.635,17.326-.771,19.237" transform="translate(175.587 146.316)" fill="#871b01"/></g><g transform="translate(284.294 64.273)"><g clip-path="url(#y)"><rect width="92.451" height="105.495" transform="translate(-21.474 31.321) rotate(-55.567)" fill="url(#z)"/></g></g><g clip-path="url(#a)"><path d="M202.631,162.582c-8.746,11.468-19.113,19.887-30.644,24.693l-2.015-2.865,22.921-34.029,1.362-.527a70.705,70.705,0,0,0-2.068,14.431c-.205,4.737,5.475,1.765,10.444-1.7" transform="translate(175.588 154.806)" fill="#611301"/></g><g transform="translate(209.169 78.585)"><g clip-path="url(#ab)"><rect width="214.95" height="309.77" transform="translate(-29.483 3.004) rotate(-5.817)" fill="url(#ac)"/></g></g><g transform="translate(299.898 94.124)"><g clip-path="url(#ad)"><rect width="69.156" height="186.477" transform="translate(-3.539 0.068) rotate(-1.095)" fill="url(#ae)"/></g></g><g clip-path="url(#a)"><path d="M211.374,171.127c-2.734-57.313-17.942-98.328-40.1-122.3,23.728,22.107,40.14,61.764,42.991,118.087,1.476,29.172-2.889,56.222-11.346,79.191a229.123,229.123,0,0,0,8.457-74.981" transform="translate(176.931 50.442)" fill="#fe9400"/><path d="M128.332,48.215a64.236,64.236,0,0,1,21.63-8.226,79.246,79.246,0,0,1,20.583-1.09c14.266,6.768,49.938,28.253,49.938,28.253l7.65,15.7s-34.93-36.2-43.361-27.416c-2.385,2.484,8.309,12.251,8.309,12.251S179.032,55.3,175,56.9c-2.511,1,.941,4.65.941,4.65Z" transform="translate(132.572 39.933)" fill="#ff7a03"/><path d="M149.981,39.763c2.153-.39,4.292-.667,6.418-.888l25.911,6.853s-18.568-3.474-20.034-.193,3.523,9.411,3.523,9.411-13.278-7.386-14.5-5.7,4.013,1.722,4.013,1.722l-26.962-1.086s-.039-.807-.039-1.868a64.373,64.373,0,0,1,21.668-8.252" transform="translate(132.553 40.159)" fill="#db6903"/><path d="M152.425,40.113c9.137.866,7.791,1.313,7.791,1.313s-4.66-.3-5.943,2.44c-1.633,3.485,4.936,7.835,4.936,7.835L128.97,45.374l3.039-.807a63.847,63.847,0,0,1,12.845-4.757,70.563,70.563,0,0,1,7.571.3" transform="translate(133.231 41.119)" fill="#ab461b"/><path d="M162.775,242.7c1.879-19.147,4.617-47.089,4.617-47.612,0-.8,24.014-62.315,24.014-62.315s.663,33.019,11.554,32.486c10.627-.522,19.881-49.045,20.326-51.412-.811,60.123-26.434,109.339-60.511,128.852" transform="translate(168.153 117.61)" fill="#fe5e01"/></g><g transform="translate(169.241 86.494)"><g clip-path="url(#ag)"><rect width="223.928" height="309.659" transform="translate(-28.493 2.809) rotate(-5.631)" fill="url(#ah)"/></g></g><g clip-path="url(#a)"><path d="M141.52,231.672a20.808,20.808,0,0,1,.018-3.9c.366-1.2,32.248-26.635,33.1-27.165s35.21-52.991,35.21-52.991-9.883,37.412.014,36.481c19.826-1.866,31.144-50.588,31.6-51.869-11.511,58.135-47.207,99.265-87.238,100.518a56.617,56.617,0,0,1-12.713-1.071" transform="translate(146.123 136.595)" fill="#e05301"/><path d="M139.355,201.48c8.48-16.376,21.14-40.819,21.27-41.015l36.631,1.624s-5.394,12.554-2.582,13.961c4.81,2.4,21.1-12.6,21.1-12.6s-.978,4.454-9.267,14.335c-11.544,13.751-25.3,18.883-33.214,22.813a61.865,61.865,0,0,1-16.895,2.976,56.774,56.774,0,0,1-17.041-2.092" transform="translate(143.959 165.767)" fill="#a32001"/></g><g transform="translate(282.209 78.585)"><g clip-path="url(#aj)"><rect width="138.934" height="140.664" transform="matrix(0.565, -0.825, 0.825, 0.565, -45.341, 66.136)" fill="url(#ak)"/></g></g><g clip-path="url(#a)"><path d="M175.4,174.143c0,4.548,19.151-1.423,19.151-1.423s-13.63,10.493-26.037,15.955a60.879,60.879,0,0,1-14.284,2.236c-1.224.041-2.432.014-3.643-.031l-9.141-5.713S175.4,169.6,175.4,174.143" transform="translate(146.122 178.427)" fill="#7a1801"/><path d="M81.289,197.749c0,85.729,40.207,138.477,91.55,138.477s106.035-39.65,102.778-148.892C272.425,80.176,225.592,42.522,174.246,42.522S81.289,112.015,81.289,197.749" transform="translate(83.975 43.927)" fill="#fe8801"/></g><g transform="translate(277.858 103.6)"><g clip-path="url(#am)"><rect width="47.77" height="205.872" transform="translate(0 0)" fill="url(#an)"/></g></g><g clip-path="url(#a)"><path d="M227.082,190.224C223.906,81.65,177.671,43.053,126.731,42.548c.189-.008.382-.026.571-.026,51.347,0,98.18,37.656,101.374,144.812.982,32.886-3.318,59.428-11.172,80.519,6.847-20.753,10.49-46.4,9.578-77.628" transform="translate(130.918 43.927)" fill="#fe9400"/><path d="M180.835,129.181s1.641,35.332,20.221,38.351,27.3-32.161,27.3-32.161l0,.039C219.416,216.3,171.9,246.705,126.941,246.705c-.413,0-.815-.039-1.222-.043Z" transform="translate(129.873 133.449)" fill="#fe6901"/><path d="M122.261,225.449c8.563-10.922,18.651-23.508,19.066-23.813.734-.531,37.542-49.669,37.542-49.669s-6.123,24.382-.163,27.3c4.733,2.32,13.438-17.572,13.438-17.572s-.124,15.189,4.151,19.174c8.958,8.344,27.749-30.028,28.635-31.591-16.935,55.083-56.573,76.674-94.418,76.674a72.429,72.429,0,0,1-8.252-.5" transform="translate(126.301 154.205)" fill="#e05301"/></g><g transform="translate(175.624 83.347)"><g clip-path="url(#ap)"><rect width="173.129" height="315.122" transform="matrix(0.994, -0.111, 0.111, 0.994, -36.677, 3.695)" fill="url(#aq)"/></g></g><g clip-path="url(#a)"><path d="M164.872,165.717s-4.658,10.123,4.04,13.18c7.116,2.5,26.452-7.6,26.452-7.6a99.848,99.848,0,0,1-27.993,26.35c-17.153,10.615-38,12.225-38,12.225Z" transform="translate(133.65 171.193)" fill="#bd2601"/><path d="M118.3,45.366a57.446,57.446,0,0,1,17.708-2.844c21.109,0,41.454,6.384,58.318,21.327,4.784,10.362,9.338,20.6,9.338,20.6-8.657-6.552-22.5-19.944-30.026-15.425-5.174,3.106-.935,21.656-.935,21.656Z" transform="translate(122.211 43.927)" fill="#ff7a03"/><path d="M119.8,44.462a57.25,57.25,0,0,1,14.658-1.94A92.918,92.918,0,0,1,163.9,47.149l9.779,8.956s-12.286-3.491-16.47-1.4c-4.111,2.055,1.482,14.717,1.482,14.717Z" transform="translate(123.76 43.927)" fill="#db6903"/><path d="M122.179,42.726c3.088-.518,6.658-.134,9.826-.134a99.674,99.674,0,0,1,12.3.779l12.674,6.223s-8.144-2.015-9.441,0,.433,8.8.433,8.8Z" transform="translate(126.216 43.857)" fill="#c76003"/></g><g transform="translate(258.221 86.449)"><g clip-path="url(#as)"><rect width="143.238" height="142.102" transform="matrix(0.626, -0.779, 0.779, 0.626, -51.364, 63.906)" fill="url(#at)"/></g></g><g clip-path="url(#a)"><path d="M129.375,205.718,158.3,169.737c-.331,4.4-.083,11.946,5.085,14.243,5.782,2.568,20.4-8.179,20.4-8.179a71.586,71.586,0,0,1-10.525,11.918c-5.528,5-15.321,10-24.169,13.9a100.226,100.226,0,0,1-19.714,4.095" transform="translate(133.65 175.345)" fill="#961e01"/><path d="M85.8,196.169C81.873,305.2,106.412,343.913,149.533,343.913c52.524,0,72.966-50.3,72.966-152.551,0-87.874-26.907-150.756-77.182-150.764C102.2,40.587,89.751,86.176,85.8,196.169" transform="translate(88.209 41.938)" fill="#fe9201"/><path d="M146.254,146.926s.382,18.285,9.261,20.062,13.849-11.893,13.849-11.893-.179,12.963,13.581,13.138c13.408.177,20.188-24.891,20.524-26.153-6.969,64.917-28.436,97-70.355,97-12.164,0-22.847-3.084-31.829-9.96,16.041-29.855,44.971-82.192,44.971-82.192" transform="translate(104.63 146.773)" fill="#fe7801"/><path d="M194.98,164.165c-11.084,34.917-30.837,52.241-61.636,52.241-12.371,0-23.207-3.21-32.287-10.334,3.119-5.526,6.1-9.879,6.392-10.267.813-1.063,36.715-31.781,36.715-31.781s-1.2,18.974,18.007,24.858c20.648,6.323,30.553-18.153,32.809-24.718" transform="translate(104.397 169.445)" fill="#e05301"/><path d="M147.478,163.441l-.014.039.014-.039" transform="translate(152.336 168.841)" fill="#e05301"/><path d="M100.33,51.793c7.76-7.6,17.446-11.2,29.55-11.2,30.128,0,55.811,24.214,68.566,73.293-.612-1.3-19.3-40.923-32.915-41.1-13.845-.175-13.68,9.925-13.68,9.925s-4.9-4.332-9.285-2.822-.62,19.637-.62,19.637Z" transform="translate(103.645 41.938)" fill="#ff7a03"/><path d="M104.521,48.9l-1.258-1.893c6.62-4.324,14.4-6.412,23.587-6.412a53.793,53.793,0,0,1,32.9,11.237c1.7,4.692,2.911,8.124,2.911,8.124s-15.632-7.591-23.083-2.93-6.99,15.762-6.99,15.762Z" transform="translate(106.675 41.938)" fill="#db6903"/><path d="M118.49,54.61l-15.227-7.6c7.937-4.339,12.2-6.4,23.587-6.412a55.912,55.912,0,0,1,10.568,1.019L147.6,48.238l12.217,8.455s-18.861-10.71-25.437-5.81c-10.566,7.868-4.861,19.188-4.861,19.188Z" transform="translate(106.675 41.937)" fill="#d46603"/></g><g transform="translate(220.701 82.535)"><g clip-path="url(#av)"><rect width="88.373" height="92.331" transform="matrix(0.609, -0.793, 0.793, 0.609, -25.949, 33.829)" fill="url(#aw)"/></g></g><g clip-path="url(#a)"><path d="M134.46,173.052s-1.561,7.16,1.49,8.657c3.332,1.637,8.079-2.885,8.079-2.885s3.289,6.6,8.657,8.659c7.654,2.93,19.222-3.18,19.222-3.18a54.858,54.858,0,0,1-11.989,12.981c-5.5,4.1-11.141,5.211-15.972,7.839a67.829,67.829,0,0,1-16.545,1.958,55.868,55.868,0,0,1-20.595-3.653Z" transform="translate(110.338 178.77)" fill="#c42700"/><path d="M127.4,199.75a55.852,55.852,0,0,1-20.595-3.653L120.3,181.275c4.259.8,9.7,1.761,12.2,1.982,4.41.388,8.958-3.108,8.958-3.108s-.138,2.3,3.8,5.284,14.256-1.464,14.256-1.464a24.719,24.719,0,0,1-6.821,7.3,82.658,82.658,0,0,1-13.886,7.555,70.393,70.393,0,0,1-11.4.923" transform="translate(110.338 186.101)" fill="#961e00"/></g><g transform="translate(156.43 82.546)"><g clip-path="url(#ay)"><rect width="303.697" height="102.255" transform="matrix(0.004, -1, 1, 0.004, -1.681, 303.301)" fill="url(#az)"/></g></g><g transform="translate(255.59 155.829)"><g clip-path="url(#ba)"><rect width="54.488" height="97.486" transform="matrix(1, -0.031, 0.031, 1, -2.941, 0.09)" fill="url(#bb)"/></g></g><g transform="translate(309.653 154.625)"><g clip-path="url(#bc)"><rect width="44.013" height="69.645" transform="matrix(1, -0.031, 0.031, 1, -2.096, 0.064)" fill="url(#bd)"/></g></g><g transform="translate(351.673 146.202)"><g clip-path="url(#be)"><path d="M203.044,123.021l-5.9-52.335-26.93,3.151,5.9,52.335Z" transform="translate(-175.834 -73.18)" fill="url(#bf)"/></g></g><g transform="translate(363.254 147.977)"><g clip-path="url(#bg)"><path d="M198.654,96.9l-2.82-25.022L177.39,74.033l2.82,25.022Z" transform="translate(-180.002 -73.727)" fill="url(#bh)"/></g></g><g clip-path="url(#a)"><path d="M175.59,162.992c0,84.032-41.381,152.151-92.422,152.151S-5.577,252.806.679,161.2C7.03,68.163,72.789,13.619,127.228,38.692c53.6,24.683,48.362,40.27,48.362,124.3" transform="translate(0 33.676)" fill="#fff4a2"/></g><g transform="translate(1.445 66.812)"><g clip-path="url(#bj)"><rect width="286.626" height="192.647" transform="translate(-11.862 282.406) rotate(-88.725)" fill="url(#bk)"/></g></g><g transform="translate(14.279 75.035)"><g clip-path="url(#bl)"><rect width="186.401" height="282.546" transform="translate(-5.573 0)" fill="url(#bm)"/></g></g><g clip-path="url(#a)"><path d="M19.565,141.566c-.734.4-3.454-13.062-3.454-13.062s1.391,12.267-4.239,13.068C5.616,142.456.287,112.436.151,111.68c2.08,43.454,14.941,77.959,34.322,98.985,2.478-11.125,6.248-29.235,5.993-29.414-.366-.272-8.919-53-8.919-53S20.3,141.165,19.565,141.566" transform="translate(0.156 115.37)" fill="#fe5e01"/><path d="M19.565,141.566c-.734.4-3.454-13.062-3.454-13.062s1.391,12.267-4.239,13.068C5.616,142.456.287,112.436.151,111.68c2.08,43.454,14.941,77.959,34.322,98.985,2.478-11.125,6.248-29.235,5.993-29.414-.366-.272-8.919-53-8.919-53S20.3,141.165,19.565,141.566" transform="translate(0.156 115.37)" fill="#dd5201"/><path d="M45.87,62.692l82.973-3.346,9.012-6.28c-6.807-5.438-15.795-10.47-27.7-15.953a66.54,66.54,0,0,0-7.837-2.985c-6.27.518-18.452-.716-30.081,1.24a162.452,162.452,0,0,0-30.5,8.647C41.371,44.283,16.527,70.5,16.527,70.5S45.168,47.764,49.566,52.663c2.9,3.228-3.7,10.029-3.7,10.029" transform="translate(17.073 35.256)" fill="#f06d01"/><path d="M44.476,51.734s56.6,4.924,69.373,6.105c-7.169-6.983-17.889-12.662-32.567-19.42A65.938,65.938,0,0,0,61.83,32.863L44.476,37.576s14.492,1.728,15.8,4.391-15.8,9.767-15.8,9.767" transform="translate(45.946 33.949)" fill="#db6903"/><path d="M57.867,45.741,94.5,60.61l4.639-5.5c-7.055-6.278-16.795-11.9-30.25-18.094-1.87-.862-3.757-1.612-5.65-2.283,3.466,2.533,6.506,5.284,5.491,6.579-2.116,2.692-10.869,4.424-10.869,4.424" transform="translate(59.779 35.886)" fill="#9c3200"/><path d="M68.423,219.814,22.952,151.357s2.23,13.064-4.56,14.382c-7.171,1.395-16.683-40.5-17.094-42.316,8.045,53.125,33.761,88.856,67.125,96.391" transform="translate(1.341 127.501)" fill="#c14801"/><path d="M18.257,161.871c-3.052,2.037-8.417-4.891-8.829-5.438C19.765,176.045,33.734,189.986,50,196.766l2.015-2.863L17.486,142.634s3.633,17.326.771,19.237" transform="translate(9.738 147.347)" fill="#871b01"/></g><g transform="translate(26.68 66.304)"><g clip-path="url(#bo)"><rect width="105.499" height="92.453" transform="matrix(0.825, -0.565, 0.565, 0.825, -21.474, 14.719)" fill="url(#bp)"/></g></g><g clip-path="url(#a)"><path d="M14.313,163.582c8.746,11.468,19.111,19.885,30.644,24.693l2.017-2.865L24.049,151.382c-.832-.321-1.36-.529-1.36-.529a70.729,70.729,0,0,1,2.064,14.433c.207,4.737-5.473,1.765-10.44-1.7" transform="translate(14.786 155.837)" fill="#611301"/></g><g transform="translate(15.838 80.616)"><g clip-path="url(#br)"><rect width="309.768" height="214.95" transform="translate(-33.448 289.39) rotate(-84.183)" fill="url(#bs)"/></g></g><g transform="translate(41.789 96.155)"><g clip-path="url(#bt)"><rect width="186.477" height="69.156" transform="matrix(0.019, -1, 1, 0.019, -3.539, 185.189)" fill="url(#bu)"/></g></g><g clip-path="url(#a)"><path d="M10.963,172.127c2.734-57.313,17.944-98.328,40.1-122.3C27.339,71.936,10.924,111.593,8.074,167.916c-1.476,29.172,2.891,56.22,11.35,79.191a229.119,229.119,0,0,1-8.462-74.981" transform="translate(8.048 51.475)" fill="#fe9400"/><path d="M122.728,49.214a64.248,64.248,0,0,0-21.63-8.224A79.171,79.171,0,0,0,80.514,39.9C66.25,46.667,30.576,68.152,30.576,68.152l-7.648,15.7s34.93-36.2,43.359-27.416c2.385,2.484-8.309,12.251-8.309,12.251S72.026,56.3,76.06,57.9c2.511,1-.941,4.65-.941,4.65Z" transform="translate(23.686 40.965)" fill="#ff7a03"/><path d="M77.806,40.762c-2.155-.392-4.29-.667-6.418-.888L45.475,46.727s18.568-3.477,20.034-.193-3.523,9.409-3.523,9.409,13.28-7.384,14.5-5.7-4.015,1.722-4.015,1.722l26.964-1.086s.037-.807.037-1.866a64.336,64.336,0,0,0-21.666-8.252" transform="translate(46.978 41.191)" fill="#db6903"/><path d="M63.835,41.11c-9.136.866-7.791,1.313-7.791,1.313s4.658-.3,5.943,2.44c1.633,3.485-4.936,7.835-4.936,7.835l30.237-6.325-3.039-.809a63.775,63.775,0,0,0-12.843-4.755,69.979,69.979,0,0,0-7.571.3" transform="translate(57.824 42.151)" fill="#ab461b"/><path d="M68.321,243.7C66.441,224.552,63.7,196.61,63.7,196.087c0-.8-24.014-62.315-24.014-62.315s-.663,33.019-11.556,32.486c-10.629-.525-19.881-49.045-20.324-51.412C8.619,174.97,34.244,224.186,68.321,243.7" transform="translate(8.068 118.642)" fill="#fe5e01"/></g><g transform="translate(44.931 88.525)"><g clip-path="url(#bw)"><rect width="309.659" height="223.928" transform="translate(-31.59 289.003) rotate(-84.369)" fill="url(#bx)"/></g></g><g clip-path="url(#a)"><path d="M109.652,232.671a20.608,20.608,0,0,0-.018-3.9c-.366-1.2-32.25-26.637-33.1-27.167s-35.21-52.991-35.21-52.991,9.883,37.414-.014,36.481C21.477,183.226,10.161,134.506,9.7,133.225c11.511,58.133,47.207,99.265,87.242,100.518a56.606,56.606,0,0,0,12.711-1.071" transform="translate(10.021 137.627)" fill="#e05301"/><path d="M99.822,202.479c-8.48-16.376-21.138-40.819-21.268-41.015l-36.631,1.624s5.392,12.552,2.582,13.961c-4.81,2.4-21.1-12.6-21.1-12.6s.978,4.454,9.269,14.335c11.542,13.749,25.3,18.883,33.212,22.813a61.88,61.88,0,0,0,16.9,2.976,56.883,56.883,0,0,0,17.039-2.092" transform="translate(24.179 166.799)" fill="#a32001"/></g><g transform="translate(21.213 80.616)"><g clip-path="url(#bz)"><rect width="140.665" height="138.933" transform="matrix(0.825, -0.565, 0.565, 0.825, -45.34, 31.081)" fill="url(#ca)"/></g></g><g clip-path="url(#a)"><path d="M51.931,175.142c0,4.546-19.153-1.423-19.153-1.423s13.63,10.493,26.037,15.955A60.882,60.882,0,0,0,73.1,191.911c1.222.039,2.432.012,3.641-.031l9.141-5.715s-33.95-15.571-33.952-11.023" transform="translate(33.861 179.459)" fill="#7a1801"/><path d="M217.873,198.749c0,85.729-40.205,138.475-91.55,138.475S20.289,297.575,23.544,188.332C26.738,81.176,73.573,43.52,124.916,43.52s92.957,69.493,92.957,155.229" transform="translate(24.179 44.958)" fill="#fe8801"/></g><g transform="translate(86.19 105.631)"><g clip-path="url(#cc)"><rect width="47.768" height="205.874" transform="translate(-4.503 0)" fill="url(#cd)"/></g></g><g clip-path="url(#a)"><path d="M25.139,191.223C28.313,82.649,74.55,44.052,125.488,43.547c-.189-.01-.38-.026-.571-.026-51.342,0-98.178,37.654-101.374,144.809-.98,32.889,3.318,59.43,11.172,80.521-6.845-20.753-10.488-46.4-9.576-77.628" transform="translate(24.179 44.959)" fill="#fe9400"/><path d="M71.668,130.18s-1.643,35.33-20.223,38.351-27.3-32.161-27.3-32.161l0,.039C33.085,217.3,80.608,247.7,125.558,247.7c.415,0,.819-.037,1.228-.041Z" transform="translate(24.942 134.481)" fill="#fe6901"/><path d="M130.257,226.448c-8.563-10.921-18.649-23.508-19.066-23.813-.736-.533-37.542-49.669-37.542-49.669s6.124,24.382.163,27.3c-4.733,2.32-13.438-17.574-13.438-17.574s.124,15.189-4.154,19.176c-8.954,8.342-27.747-30.03-28.633-31.591C44.523,205.355,84.159,226.944,122,226.944a72.43,72.43,0,0,0,8.252-.5" transform="translate(28.497 155.237)" fill="#e05301"/></g><g transform="translate(94.581 85.378)"><g clip-path="url(#cf)"><rect width="315.122" height="173.129" transform="translate(-33.169 297.709) rotate(-83.643)" fill="url(#cg)"/></g></g><g clip-path="url(#a)"><path d="M69.008,166.716s4.658,10.123-4.04,13.178c-7.118,2.507-26.454-7.6-26.454-7.6a99.907,99.907,0,0,0,27.995,26.35c17.151,10.615,38,12.225,38,12.225Z" transform="translate(39.787 172.225)" fill="#bd2601"/><path d="M125.421,46.365a57.447,57.447,0,0,0-17.708-2.844C86.6,43.521,66.26,49.9,49.4,64.848c-4.784,10.362-9.338,20.6-9.338,20.6,8.657-6.55,22.5-19.942,30.026-15.425,5.174,3.106.937,21.656.937,21.656Z" transform="translate(41.382 44.959)" fill="#ff7a03"/><path d="M107.922,45.46a57.242,57.242,0,0,0-14.66-1.94,92.918,92.918,0,0,0-29.436,4.627L54.048,57.1s12.286-3.491,16.468-1.4c4.113,2.055-1.48,14.717-1.48,14.717Z" transform="translate(55.834 44.958)" fill="#db6903"/><path d="M95.854,43.725c-3.088-.518-6.656-.134-9.828-.134a99.7,99.7,0,0,0-12.3.779L61.052,50.592s8.144-2.015,9.443,0-.433,8.8-.433,8.8Z" transform="translate(63.069 44.889)" fill="#c76003"/></g><g transform="translate(51.326 88.478)"><g clip-path="url(#ci)"><rect width="142.105" height="143.24" transform="matrix(0.779, -0.626, 0.626, 0.779, -51.365, 41.284)" fill="url(#cj)"/></g></g><g clip-path="url(#a)"><path d="M98.619,206.717,69.691,170.736c.331,4.4.083,11.946-5.085,14.243-5.782,2.568-20.4-8.179-20.4-8.179a71.509,71.509,0,0,0,10.523,11.918c5.53,5,15.325,10,24.171,13.9a100.124,100.124,0,0,0,19.714,4.1" transform="translate(45.672 176.377)" fill="#961e01"/><path d="M184.22,197.169c3.922,109.024-20.615,147.743-63.736,147.743-52.522,0-72.964-50.3-72.964-152.553C47.52,104.487,74.425,41.605,124.7,41.6c43.119-.008,55.563,45.581,59.517,155.574" transform="translate(49.09 42.969)" fill="#fe9201"/><path d="M106.016,147.925s-.38,18.285-9.26,20.06-13.849-11.891-13.849-11.891.179,12.961-13.579,13.135c-13.41.177-20.188-24.891-20.524-26.151,6.969,64.917,28.436,97,70.353,97,12.162,0,22.849-3.084,31.831-9.96-16.041-29.855-44.973-82.192-44.973-82.192" transform="translate(50.417 147.806)" fill="#fe7801"/><path d="M53.092,165.162c11.084,34.92,30.839,52.243,61.636,52.243,12.373,0,23.209-3.21,32.289-10.336-3.121-5.526-6.1-9.877-6.394-10.267-.813-1.061-36.715-31.778-36.715-31.778S105.105,184,85.9,189.882c-20.648,6.323-30.551-18.155-32.809-24.72" transform="translate(54.846 170.477)" fill="#e05301"/><path d="M52.877,164.439l.014.041-.014-.041" transform="translate(54.624 169.872)" fill="#e05301"/><path d="M149.873,52.792c-7.758-7.6-17.446-11.2-29.55-11.2C90.2,41.6,64.513,65.81,51.758,114.889c.61-1.3,19.3-40.923,32.913-41.1,13.847-.175,13.682,9.925,13.682,9.925s4.9-4.332,9.285-2.824.618,19.637.618,19.637Z" transform="translate(53.468 42.97)" fill="#ff7a03"/><path d="M126.009,49.9l1.258-1.895c-6.62-4.322-14.4-6.41-23.587-6.41a53.808,53.808,0,0,0-32.9,11.235c-1.7,4.694-2.911,8.126-2.911,8.126s15.632-7.591,23.083-2.93,6.99,15.762,6.99,15.762Z" transform="translate(70.11 42.97)" fill="#db6903"/><path d="M110.593,55.609l15.227-7.6c-7.937-4.339-12.2-6.4-23.585-6.412a55.728,55.728,0,0,0-10.568,1.019L81.488,49.237,69.269,57.691s18.863-10.708,25.439-5.81c10.564,7.868,4.861,19.19,4.861,19.19Z" transform="translate(71.558 42.969)" fill="#d46603"/></g><g transform="translate(111.466 84.564)"><g clip-path="url(#cl)"><rect width="92.332" height="88.375" transform="translate(-25.95 19.905) rotate(-37.491)" fill="url(#cm)"/></g></g><g clip-path="url(#a)"><path d="M98.967,174.05s1.561,7.16-1.488,8.659c-3.332,1.635-8.081-2.885-8.081-2.885s-3.289,6.6-8.657,8.659c-7.654,2.93-19.222-3.18-19.222-3.18a54.87,54.87,0,0,0,11.989,12.979c5.5,4.1,11.141,5.213,15.972,7.841a67.929,67.929,0,0,0,16.545,1.958,55.913,55.913,0,0,0,20.6-3.653Z" transform="translate(63.551 179.801)" fill="#c42700"/><path d="M99.722,200.749a55.9,55.9,0,0,0,20.6-3.653l-13.491-14.821c-4.261.8-9.7,1.761-12.2,1.982-4.41.388-8.958-3.109-8.958-3.109s.138,2.3-3.8,5.284-14.258-1.466-14.258-1.466a24.746,24.746,0,0,0,6.821,7.3,82.593,82.593,0,0,0,13.888,7.555,70.387,70.387,0,0,0,11.4.923" transform="translate(69.852 187.133)" fill="#961e00"/></g><g transform="translate(152.889 84.577)"><g clip-path="url(#co)"><rect width="101.641" height="303.695" transform="matrix(1, -0.004, 0.004, 1, -3.146, 0.005)" fill="url(#cp)"/></g></g><g clip-path="url(#a)"><path d="M171.363,197.185c.535,102.976-4.28,147.723-47.4,147.723-52.522,0-46.734-64.962-46.906-151.657C76.867,96.663,85.327,41.6,128.454,41.6s42.375,54.666,42.909,155.585" transform="translate(79.486 42.975)" fill="#fe9901"/><path d="M79.67,158.663l0,0,0,0" transform="translate(82.298 163.902)" fill="#ff7a03"/><path d="M77.75,256.833l6.317,6.091c-.073-.124-3.294,12.938-3.294-101.455,0-101.15,13.066-99.893,13.066-99.893l-5.1-3.847c-9.3,25.775-11.79,66.106-11.684,118.86.059,29.932-.59,57.271.693,80.244" transform="translate(79.487 59.636)" fill="#fe8701"/><path d="M167.013,104.063C163.34,63.116,153.554,41.6,126.507,41.6c-28.668,0-42.007,24.358-47.679,69.042.274-1.092,10.545-41.059,24.346-41.059,8.827,0,10.049,14.939,10.049,14.939s2.81-21.621,11.727-21.038c12.213.8,12.341,26.367,12.341,26.367s.7-19.853,10.5-19.442c12.761.527,19.155,33.344,19.22,33.655" transform="translate(81.433 42.975)" fill="#fe8701"/></g><g transform="translate(165.162 84.577)"><g clip-path="url(#cr)"><rect width="43.612" height="80.003" transform="matrix(0.019, -1, 1, 0.019, -0.804, 42.091)" fill="url(#cs)"/></g></g><g clip-path="url(#a)"><path d="M169.667,157.7c-.035.126-3.178,12.4-11.257,13.3-9.582,1.061-12.424-6.455-12.424-6.455s-2.846,16.575-12.961,15.683c-11.336-.994-16.868-21.691-16.868-21.691s-4.086,17.435-15.982,17.435c-19.235,0-22.951-24.919-23.059-25.665,1.541,49.746,9.5,82.3,46.666,82.3,31.1,0,42.271-23.293,45.884-74.913" transform="translate(79.665 155.273)" fill="#fe8701"/><path d="M158.07,204.7c-2.271,3.263-6.461,8.187-14.27,7.709-17.427-1.067-20.152-18.549-20.152-18.549S118.79,210.8,104.6,210.536c-19.462-.352-26.718-50.844-27.149-53.227,2.73,41.624,12.5,68.066,45.993,68.066,16.588,0,27.495-6.658,34.629-20.674" transform="translate(80.007 162.507)" fill="#e05301"/><path d="M135.344,199.656c-7.313-.189-13.595-6.05-13.595-6.05s-2.936,3.916-13.634,4.713c-17.99,1.336-28.686-25.6-28.686-25.6a71.6,71.6,0,0,0,11.294,24.161c3.79,5.168,5.579,5.392,10.427,8.142,5.54,2.9,12.2,4.432,20.245,4.432a44.418,44.418,0,0,0,18.8-3.8A33.572,33.572,0,0,0,152.751,194.3s-5.875,5.65-17.407,5.353" transform="translate(82.053 178.427)" fill="#c92901"/><path d="M125.381,189.81a16.308,16.308,0,0,1-10.777-4.343s-.661.827-6.654,2.482-21.743-1.236-21.743-1.236,7.37,5.888,12.826,7.221a46.865,46.865,0,0,0,15.364,2.354,44.2,44.2,0,0,0,15.079-2.423c6.406-1.608,12.257-7.746,12.257-7.746s-9.254,4.034-16.352,3.69" transform="translate(89.054 191.595)" fill="#801900"/><path d="M122.335,57.489l-4.993,3.289S127.349,79.324,127.349,162.4c0,96.826-2.163,102.112-2.163,102.112l2.4-4.158c1.86-21.168,2.214-47.557,2.047-79.587-.295-55.628-.218-97.169-7.295-123.282" transform="translate(121.219 59.389)" fill="#fe8701"/><g transform="translate(162.597 156.656)" opacity="0.49"><g clip-path="url(#cu)"><g transform="translate(0)"><g clip-path="url(#cv)"><rect width="114.5" height="87.404" transform="translate(-3.899 111.871) rotate(-88.243)" fill="url(#cw)"/></g></g></g></g></g><g transform="translate(100.403 157.858)"><g clip-path="url(#cx)"><rect width="97.488" height="54.488" transform="translate(-3.186 95.861) rotate(-88.243)" fill="url(#cy)"/></g></g><g transform="translate(56.535 156.656)"><g clip-path="url(#cz)"><rect width="69.645" height="44.015" transform="translate(-2.906 68.327) rotate(-88.243)" fill="url(#da)"/></g></g><g transform="translate(34.047 148.233)"><g clip-path="url(#db)"><path d="M13.984,124.021l5.9-52.336,26.934,3.152-5.9,52.336Z" transform="translate(-19.602 -74.179)" fill="url(#dc)"/></g></g><g transform="translate(31.156 150.008)"><g clip-path="url(#dd)"><path d="M12.5,97.894l2.82-25.02,18.443,2.158-2.82,25.02Z" transform="translate(-18.245 -74.726)" fill="url(#de)"/></g></g><g transform="translate(83.995 264.802)"><g clip-path="url(#df)"><rect width="243.154" height="77.933" transform="translate(0 0)" fill="url(#dg)"/></g></g><g clip-path="url(#a)"><path d="M140.328,141.607l1.385-5.331c-1.088.2-2.163.4-3.277.594l-1.183,4.967Z" transform="translate(141.787 140.779)" fill="#a22e00"/><path d="M151.316,188.7C96.449,188.385,64.1,165.664,45.95,144.927c13.634,22.792,44.308,56.884,106.035,57.271,73.907.459,111.065-47.264,123.137-66.716C255.695,157.718,216.7,189.074,151.316,188.7" transform="translate(47.468 139.957)" fill="#a22e00"/><path d="M68,144.348l.039,0-3.324-7.52c-.128-.026-.246-.055-.374-.079Z" transform="translate(66.469 141.272)" fill="#a22e00"/></g><g transform="translate(78.751 145.129)"><g clip-path="url(#di)"><rect width="108.367" height="81.844" transform="translate(-10.686 -0.004)" fill="url(#dj)"/></g></g><g transform="translate(226.03 142.787)"><g clip-path="url(#dk)"><rect width="99.932" height="82.56" transform="translate(-1.428 0)" fill="url(#dl)"/></g></g><g clip-path="url(#a)"><path d="M65.438,140.785c-20.66-5.8-13.066-52.452.815-69.215-3.237-.4-6.014-.159-8.122.884-17.2,8.51-30.081,67.613-6.662,74.192,17.862,5.018,56.09-.632,73.93-10.736-19.409,6.189-45.953,8.815-59.96,4.875" transform="translate(40.016 73.748)" fill="#a22e00"/><path d="M176.882,70.565c22.823,19.566,25.334,76.522-5.217,75.257-24.1-1-45.251-3.507-58.59-8.177,9.608,8.571,36.985,12.678,69.695,14.034,34.96,1.446,26.645-73.37-5.888-81.114" transform="translate(116.811 72.897)" fill="#a22e00"/></g></g></svg>