<svg xmlns="http://www.w3.org/2000/svg" xmlns:xlink="http://www.w3.org/1999/xlink" width="519.696" height="463.78" viewBox="0 0 519.696 463.78"><defs><clipPath id="a"><rect width="441.041" height="361.964" fill="none"/></clipPath><clipPath id="c"><path d="M132.791,31.965c1.594,1.844,4.729,3.874,10.785,2.87,7.5-1.239,18.177-1.4,23.409-1.692A119.524,119.524,0,0,0,141.6,30.667c-.062,0-.123,0-.185,0a30.676,30.676,0,0,0-8.623,1.3" transform="translate(-132.791 -30.665)" fill="none"/></clipPath><linearGradient id="d" x1="-8.549" y1="58.714" x2="-8.485" y2="58.714" gradientUnits="objectBoundingBox"><stop offset="0" stop-color="#fe7401"/><stop offset="0.138" stop-color="#fe9433"/><stop offset="0.277" stop-color="#feaf5d"/><stop offset="0.418" stop-color="#fec680"/><stop offset="0.56" stop-color="#fed79c"/><stop offset="0.704" stop-color="#fee4af"/><stop offset="0.849" stop-color="#feebbb"/><stop offset="1" stop-color="#ffeebf"/></linearGradient><clipPath id="f"><path d="M80.007,31.116A119.484,119.484,0,0,0,54.625,33.59c5.23.294,15.909.453,23.4,1.694,6.058,1,9.191-1.026,10.787-2.872a30.737,30.737,0,0,0-8.621-1.3c-.064,0-.125,0-.187,0" transform="translate(-54.625 -31.114)" fill="none"/></clipPath><linearGradient id="g" x1="-3.517" y1="58.549" x2="-3.453" y2="58.549" xlink:href="#d"/><clipPath id="i"><path d="M105.329,2.672l-2.256,10.3L113.714,17.5l9.864-2.29,7.187-5.287-6.833-6.05S115.687,1.31,115.2,1.255l-.035,0c-.788,0-9.831,1.419-9.831,1.419" transform="translate(-103.073 -1.253)" fill="none"/></clipPath><linearGradient id="j" x1="-9.5" y1="13.683" x2="-9.409" y2="13.683" gradientUnits="objectBoundingBox"><stop offset="0" stop-color="#374c00"/><stop offset="0.244" stop-color="#3b5100"/><stop offset="0.556" stop-color="#466100"/><stop offset="0.904" stop-color="#597b00"/><stop offset="1" stop-color="#608400"/></linearGradient><clipPath id="k"><path d="M119.63,44.649c-8.643,30.232-44.287,37.61-44.287,37.61l66.9-1.163a34.063,34.063,0,0,1-3.3-7.788c-1.482-4.921-.561-14.705,2.254-22.41,3.315-9.074,3.837-20.693,12.127-30.332a36.833,36.833,0,0,1,6.133-5.925s-10.9-1-14.842-3.068c-9.869-5.181-11.091-9.084-11.091-9.084s-5.248,11.924-13.891,42.159" transform="translate(-75.343 -2.49)" fill="none"/></clipPath><linearGradient id="l" x1="-1.338" y1="3.925" x2="-1.318" y2="3.925" gradientUnits="objectBoundingBox"><stop offset="0" stop-color="#557500"/><stop offset="0.486" stop-color="#587a00"/><stop offset="1" stop-color="#628700"/></linearGradient><clipPath id="n"><path d="M112.941,10.482a23.28,23.28,0,0,1-5.825-5.213,7.679,7.679,0,0,1,1.9-1.123A41.159,41.159,0,0,1,116.8,3.5a62.982,62.982,0,0,1,9.239,3.965c1.435.877,3.214,2.119,4.781,3.25L126.175,13.4c-2.578-.032-9.31-.37-13.235-2.922M117.744,0s-7.707,0-10.52.943a16,16,0,0,0-5.453,3.781s1.785,4.214,8.266,8.429S127.7,16.876,127.7,16.876l10.054-5.83S132.4,6.9,128.83,4.724,117.744,0,117.744,0Z" transform="translate(-101.771)" fill="none"/></clipPath><linearGradient id="o" x1="-7.618" y1="10.668" x2="-7.544" y2="10.668" gradientUnits="objectBoundingBox"><stop offset="0" stop-color="#97a800"/><stop offset="0.245" stop-color="#9bad00"/><stop offset="0.556" stop-color="#a9bd00"/><stop offset="0.901" stop-color="#c0d700"/><stop offset="1" stop-color="#c8e000"/></linearGradient><clipPath id="q"><path d="M127.5,11.652s-14.716,4.568-23.112,31.315,7.458,36.3,7.458,36.3a36.919,36.919,0,0,1,8.486-2.464c4.731-.763,10.923-1.795,10.923-1.795s-16.524-2.863-17.721-16.2c-.63-7.056,1.693-18.752,6.8-31.4s17.221-21.59,17.221-21.59Z" transform="translate(-101.937 -5.822)" fill="none"/></clipPath><linearGradient id="r" x1="-2.088" y1="6.592" x2="-2.064" y2="6.592" gradientUnits="objectBoundingBox"><stop offset="0" stop-color="#557500"/><stop offset="0.207" stop-color="#587a00"/><stop offset="0.469" stop-color="#648a00"/><stop offset="0.76" stop-color="#76a400"/><stop offset="1" stop-color="#8abf00"/></linearGradient><clipPath id="t"><path d="M165.717,37.55c-58.041,23.032-52.364,37.58-52.364,116s44.8,141.982,100.075,141.982,96.088-58.172,89.319-143.654C297,79.334,246.342,31.868,195.453,31.864a80.249,80.249,0,0,0-29.736,5.686" transform="translate(-113.201 -31.864)" fill="none"/></clipPath><linearGradient id="u" x1="-1.152" y1="1.134" x2="-1.141" y2="1.134" gradientUnits="objectBoundingBox"><stop offset="0" stop-color="#fe5e01"/><stop offset="0.231" stop-color="#fe6004"/><stop offset="0.428" stop-color="#fe690e"/><stop offset="0.614" stop-color="#fe7720"/><stop offset="0.792" stop-color="#fe8b39"/><stop offset="0.964" stop-color="#fea559"/><stop offset="1" stop-color="#ffac61"/></linearGradient><clipPath id="v"><path d="M159.4,41.6c-58.039,23.038-52.364,37.583-52.364,116s44.807,141.982,100.072,141.982,96.088-58.168,89.319-143.652c-5.748-72.545-56.4-120.007-107.293-120.013A80.2,80.2,0,0,0,159.4,41.6" transform="translate(-106.888 -35.91)" fill="none"/></clipPath><linearGradient id="w" x1="-1.138" y1="1.114" x2="-1.128" y2="1.114" gradientUnits="objectBoundingBox"><stop offset="0" stop-color="#e05301"/><stop offset="0.429" stop-color="#de5801"/><stop offset="0.965" stop-color="#db6702"/><stop offset="1" stop-color="#db6903"/></linearGradient><clipPath id="y"><path d="M140.057,35.573c.108-.011.222-.019.332-.03l-.553.1s33.459-.537,49.722,8.1a131.26,131.26,0,0,1,23.711,15.87,41.035,41.035,0,0,0-12.96-15.075,117.448,117.448,0,0,1,30.6,19.137c6.038,5.1,10.3,8.5,13.243,10.9-20.62-27.219-49.837-42.968-79.146-42.966a80.265,80.265,0,0,0-24.95,3.959" transform="translate(-139.837 -31.614)" fill="none"/></clipPath><linearGradient id="z" x1="-3.096" y1="3.349" x2="-3.074" y2="3.349" gradientUnits="objectBoundingBox"><stop offset="0" stop-color="#fe8009"/><stop offset="0.12" stop-color="#fe9933"/><stop offset="0.262" stop-color="#feb35d"/><stop offset="0.406" stop-color="#fec880"/><stop offset="0.551" stop-color="#fed89c"/><stop offset="0.697" stop-color="#fee4af"/><stop offset="0.846" stop-color="#feebbb"/><stop offset="1" stop-color="#ffeebf"/></linearGradient><clipPath id="ab"><path d="M182.324,39.9c-43.085,6.746-79.439,49.837-79.439,128.252s41.949,143.358,98.736,141.825c55.3-1.493,102.961-63.528,98.358-141.825-5-85.167-48.558-129.5-101.917-129.5A101.5,101.5,0,0,0,182.324,39.9" transform="translate(-102.885 -38.654)" fill="none"/></clipPath><linearGradient id="ac" x1="-0.906" y1="1.027" x2="-0.897" y2="1.027" gradientUnits="objectBoundingBox"><stop offset="0" stop-color="#fe7a01"/><stop offset="0.389" stop-color="#fe7b03"/><stop offset="0.639" stop-color="#fe820c"/><stop offset="0.85" stop-color="#fe8d1b"/><stop offset="1" stop-color="#fe992b"/></linearGradient><clipPath id="ad"><path d="M198.353,124.577c4.178,17.49,6.417,94,6.417,94l13.8.594s-1.968-1.751-3.311-8.695,1.389-12,1.988-36.026-3.828-41.518-9.948-62.48-20.143-37.549-27.9-45.265-16.711-13.244-16.711-14.286,3.813.425,3.813.425l-7.183-5.635L147.512,46.3s46.663,60.792,50.841,78.28" transform="translate(-147.512 -46.297)" fill="none"/></clipPath><linearGradient id="ae" x1="-4.311" y1="1.579" x2="-4.282" y2="1.579" gradientUnits="objectBoundingBox"><stop offset="0" stop-color="#fe5e01"/><stop offset="0.372" stop-color="#fe6301"/><stop offset="0.84" stop-color="#fe7202"/><stop offset="1" stop-color="#ff7a03"/></linearGradient><clipPath id="ag"><path d="M83.244,186.467c0,79.485,43.246,128.391,98.459,128.391S295.738,278.1,292.232,176.814c-3.432-99.36-53.8-134.27-109.012-134.27S83.244,106.982,83.244,186.467" transform="translate(-83.244 -42.544)" fill="none"/></clipPath><linearGradient id="ah" x1="-0.694" y1="1.002" x2="-0.685" y2="1.002" xlink:href="#w"/><clipPath id="aj"><path d="M139.163,39.9c-.119.023-.236.053-.352.076.792.013,1.561.055,2.342.08,7.333.4,30.328,2.907,44.941,18.5,14.512,15.485,17.07,21.347,17.07,21.347S196,62.117,186.6,53.3a81.352,81.352,0,0,0-7.571-6.373c36.924,13.2,60.886,44.011,72.278,82.452-14.15-59.8-51.853-90.726-96.416-90.724A101.625,101.625,0,0,0,139.163,39.9" transform="translate(-138.811 -38.654)" fill="none"/></clipPath><linearGradient id="ak" x1="-1.905" y1="2.352" x2="-1.891" y2="2.352" xlink:href="#z"/><clipPath id="am"><path d="M136.671,56.373l27.854,174.02,9.911,12.681s13.963-4.113,7.273-15.348-4.055-33.258-2.767-60.262-4.273-54.269-14.716-79.217c-7.121-17-8.284-24.1-8.3-26.893a3.462,3.462,0,0,1,.231-1.671l-12.513-8.723Z" transform="translate(-136.671 -50.958)" fill="none"/></clipPath><linearGradient id="an" x1="-5.816" y1="1.381" x2="-5.774" y2="1.381" gradientUnits="objectBoundingBox"><stop offset="0" stop-color="#fe6901"/><stop offset="0.502" stop-color="#fe6e01"/><stop offset="1" stop-color="#ff7a03"/></linearGradient><clipPath id="ap"><path d="M86.83,185.418c-4.244,101.739,22.086,136.843,68.78,136.843,56.87,0,79.239-45.914,79.239-141.332,0-82-28.62-139.933-83.692-139.933C104.47,41,91.114,82.774,86.83,185.418" transform="translate(-86.385 -40.996)" fill="none"/></clipPath><linearGradient id="aq" x1="-0.9" y1="0.988" x2="-0.889" y2="0.988" gradientUnits="objectBoundingBox"><stop offset="0" stop-color="#e05301"/><stop offset="0.305" stop-color="#e45801"/><stop offset="0.688" stop-color="#f06802"/><stop offset="1" stop-color="#ff7a03"/></linearGradient><clipPath id="as"><path d="M167.757,61.66c13.695,14.092,18.624,22.979,18.624,22.979S179.893,65.564,169.992,57.1c-1.825-1.563-3.395-2.838-4.742-3.885,37.965,17.488,57.885,48.94,67.624,87.472-12.845-69.073-54.407-96.07-100.348-98.036,2.375.493,4.678,1.038,6.954,1.607l-6.954-1.607-5.514-.127s26.2,4.178,40.745,19.139" transform="translate(-127.012 -42.521)" fill="none"/></clipPath><linearGradient id="at" x1="-1.644" y1="2.249" x2="-1.63" y2="2.249" gradientUnits="objectBoundingBox"><stop offset="0" stop-color="#fe8801"/><stop offset="0.138" stop-color="#fea233"/><stop offset="0.277" stop-color="#feb95d"/><stop offset="0.418" stop-color="#fecc80"/><stop offset="0.56" stop-color="#fedb9c"/><stop offset="0.704" stop-color="#fee5af"/><stop offset="0.849" stop-color="#feebbb"/><stop offset="1" stop-color="#ffeebf"/></linearGradient><clipPath id="av"><path d="M108.556,42.115a37.125,37.125,0,0,1,11.236,2.007c5.274,2.167,13.706,5.286,21.452,10.844a56.966,56.966,0,0,1,16.14,17.7S150.871,56.287,141.6,49.723c-1.048-.744-2.027-1.4-2.963-2,20.6,7.71,38.447,22.931,51.294,43.013C174.817,57.178,150.4,40.6,122.442,40.6c-5,0-9.712,0-13.886,1.518" transform="translate(-108.556 -40.597)" fill="none"/></clipPath><linearGradient id="aw" x1="-2.423" y1="3.514" x2="-2.399" y2="3.514" xlink:href="#at"/><clipPath id="ay"><path d="M76.984,185.789c-.579,96.1,4.636,137.852,51.325,137.852,56.873,0,52.78-60.287,54.746-141.174C185.846,67.559,170.144,40.6,123.446,40.6S77.563,91.614,76.984,185.789" transform="translate(-76.944 -40.602)" fill="none"/></clipPath><linearGradient id="az" x1="-0.18" y1="2.003" x2="-0.173" y2="2.003" gradientUnits="objectBoundingBox"><stop offset="0" stop-color="#c92901"/><stop offset="0.09" stop-color="#d13601"/><stop offset="0.326" stop-color="#e55302"/><stop offset="0.559" stop-color="#f36802"/><stop offset="0.786" stop-color="#fc7502"/><stop offset="1" stop-color="#ff7a03"/></linearGradient><clipPath id="ba"><path d="M125.718,85.4l.07.1c-.026-.127-.042-.165-.053-.165s-.018.063-.018.063m33.677,9.888c-6.668,1.421-13.75-11.506-13.75-11.506S146.477,94.4,139.6,95.29c-6.479.831-13.076-8.682-13.816-9.786.154.8.647,5.172,2.16,26.585a478,478,0,0,1,.68,54.1s2.849-24.419,16.182-25.942,15.537,8.7,15.537,8.7,5.277-12.559,12.783-13.635,8.158,11.311,8.158,11.311S181.558,117.3,177.1,99.4c-4.385-17.6-7.788-22.757-7.788-22.757s-3.251,17.217-9.917,18.642" transform="translate(-125.718 -76.648)" fill="none"/></clipPath><linearGradient id="bb" x1="-4.664" y1="2.388" x2="-4.627" y2="2.388" gradientUnits="objectBoundingBox"><stop offset="0" stop-color="#fe9201"/><stop offset="0.135" stop-color="#fe9406"/><stop offset="0.306" stop-color="#fe9c16"/><stop offset="0.497" stop-color="#fea830"/><stop offset="0.701" stop-color="#feba54"/><stop offset="0.914" stop-color="#fed081"/><stop offset="0.986" stop-color="#ffd993"/><stop offset="1" stop-color="#ffd993"/></linearGradient><clipPath id="bc"><path d="M170.361,88.145c-8.8.846-18.051-10.765-18.051-10.765s4.271,19.243,5.591,29.422,2.333,33.076,2.333,33.076,12.451-23.157,21.521-23.028,15.018,10.628,15.018,10.628.944-12.244-4.134-30.75c-4.271-15.57-8.955-20.672-8.955-20.672S179.16,87.3,170.361,88.145" transform="translate(-152.31 -76.056)" fill="none"/></clipPath><linearGradient id="bd" x1="-7.012" y1="3.358" x2="-6.966" y2="3.358" gradientUnits="objectBoundingBox"><stop offset="0" stop-color="#fe8801"/><stop offset="0.168" stop-color="#fe8b06"/><stop offset="0.381" stop-color="#fe9316"/><stop offset="0.619" stop-color="#fea230"/><stop offset="0.872" stop-color="#feb653"/><stop offset="1" stop-color="#ffc269"/></linearGradient><clipPath id="be"><path d="M181.038,91.1c2.362,6.549,7.766,27.938,7.766,27.938s.379-12.337,1.937-12.461,5.618,2.309,5.618,2.309a101.823,101.823,0,0,0-9.294-21.979C180.6,75.65,172.979,71.913,172.979,71.913s5.708,12.63,8.059,19.186" transform="translate(-172.979 -71.913)" fill="none"/></clipPath><linearGradient id="bf" x1="-10.541" y1="4.4" x2="-10.479" y2="4.4" gradientUnits="objectBoundingBox"><stop offset="0" stop-color="#fe7e07"/><stop offset="0.149" stop-color="#fe810c"/><stop offset="0.338" stop-color="#fe8a1c"/><stop offset="0.549" stop-color="#fe9a36"/><stop offset="0.774" stop-color="#feb05a"/><stop offset="1" stop-color="#ffcb86"/></linearGradient><clipPath id="bg"><path d="M184.674,83.6c1.84,3.106,2.725,11.093,2.725,11.093s8.645-4.28,3.749-9.829a155.217,155.217,0,0,0-12.473-12.078s4.863,8.9,6,10.814" transform="translate(-178.675 -72.786)" fill="none"/></clipPath><linearGradient id="bh" x1="-16.96" y1="8.899" x2="-16.865" y2="8.899" xlink:href="#bf"/><clipPath id="bj"><path d="M1.446,152.872C-5.327,238.354,35.5,296.529,90.765,296.529S190.837,232.96,190.837,154.543s5.675-92.963-52.364-115.994a80.249,80.249,0,0,0-29.736-5.686C57.848,32.867,7.192,80.331,1.446,152.872" transform="translate(-0.711 -32.863)" fill="none"/></clipPath><linearGradient id="bk" x1="0.189" y1="1.433" x2="0.196" y2="1.433" xlink:href="#u"/><clipPath id="bl"><path d="M7.758,156.923C.987,242.406,41.811,300.574,97.079,300.574S197.151,237,197.151,158.592s5.673-92.959-52.364-116a80.256,80.256,0,0,0-29.732-5.686c-50.889.008-101.549,47.47-107.3,120.015" transform="translate(-7.023 -36.908)" fill="none"/></clipPath><linearGradient id="bm" x1="-0.047" y1="1.107" x2="-0.036" y2="1.107" xlink:href="#w"/><clipPath id="bo"><path d="M13.123,75.577c2.943-2.4,7.207-5.8,13.243-10.9a117.556,117.556,0,0,1,30.6-19.135A41.055,41.055,0,0,0,44.006,60.614,131.321,131.321,0,0,1,67.717,44.742c16.264-8.634,49.727-8.1,49.727-8.1l-.555-.1c.11.013.222.019.332.032a80.278,80.278,0,0,0-24.953-3.959c-29.309,0-58.524,15.747-79.146,42.964" transform="translate(-13.123 -32.613)" fill="none"/></clipPath><linearGradient id="bp" x1="-0.21" y1="3.728" x2="-0.19" y2="3.728" xlink:href="#z"/><clipPath id="br"><path d="M8.1,169.156c-4.6,78.3,43.063,140.33,98.364,141.823,56.784,1.531,98.734-63.41,98.734-141.823S168.839,47.648,125.756,40.9a101.53,101.53,0,0,0-15.74-1.248C56.657,39.655,13.1,83.987,8.1,169.156" transform="translate(-7.789 -39.653)" fill="none"/></clipPath><linearGradient id="bs" x1="0.161" y1="1.249" x2="0.168" y2="1.249" xlink:href="#ac"/><clipPath id="bt"><path d="M79.811,48.21,72.63,53.845s3.811-1.467,3.811-.423S67.49,59.992,59.73,67.708s-21.785,24.3-27.9,45.265-10.545,38.458-9.948,62.48,3.328,29.08,1.986,36.024-3.311,8.7-3.311,8.7l13.809-.594s2.237-76.516,6.415-94S91.619,47.3,91.619,47.3Z" transform="translate(-20.554 -47.296)" fill="none"/></clipPath><linearGradient id="bu" x1="0.1" y1="3.379" x2="0.111" y2="3.379" xlink:href="#ae"/><clipPath id="bw"><path d="M22.249,177.815C18.747,279.1,77.566,315.857,132.78,315.857s98.459-48.906,98.459-128.391S186.483,43.543,131.264,43.543,25.684,78.453,22.249,177.815" transform="translate(-22.1 -43.543)" fill="none"/></clipPath><linearGradient id="bx" x1="0.048" y1="1.185" x2="0.055" y2="1.185" xlink:href="#w"/><clipPath id="bz"><path d="M10.434,130.375c11.394-38.439,35.354-69.253,72.278-82.45A81.647,81.647,0,0,0,75.141,54.3c-9.4,8.816-16.561,26.6-16.561,26.6s2.556-5.862,17.067-21.347c14.611-15.591,37.608-18.1,44.941-18.5.781-.027,1.552-.068,2.344-.08-.119-.025-.236-.053-.354-.076a101.627,101.627,0,0,0-15.729-1.248c-44.562,0-82.265,30.926-96.416,90.722" transform="translate(-10.434 -39.653)" fill="none"/></clipPath><linearGradient id="ca" x1="-0.02" y1="2.36" x2="-0.006" y2="2.36" xlink:href="#z"/><clipPath id="cc"><path d="M69.764,60.681a3.456,3.456,0,0,1,.231,1.67c-.02,2.793-1.182,9.89-8.3,26.895-10.446,24.948-16,52.211-14.716,79.217s3.918,49.025-2.769,60.263,7.271,15.35,7.271,15.35l9.915-12.683,27.85-174.02-6.965-5.416Z" transform="translate(-42.394 -51.956)" fill="none"/></clipPath><linearGradient id="cd" x1="-1.71" y1="1.371" x2="-1.668" y2="1.371" xlink:href="#an"/><clipPath id="cf"><path d="M46.521,181.927c0,95.419,22.368,141.333,79.241,141.333,46.691,0,73.024-35.106,68.78-136.845C190.255,83.774,176.9,41.994,130.215,41.994c-55.072,0-83.694,57.933-83.694,139.933" transform="translate(-46.521 -41.994)" fill="none"/></clipPath><linearGradient id="cg" x1="-0.023" y1="1.377" x2="-0.017" y2="1.377" xlink:href="#aq"/><clipPath id="ci"><path d="M125.6,43.647l-6.956,1.607c2.276-.569,4.583-1.116,6.956-1.607-45.938,1.965-87.5,28.963-100.35,98.036C34.987,103.151,54.907,71.7,92.872,54.209c-1.347,1.049-2.917,2.324-4.742,3.887-9.9,8.465-16.389,27.542-16.389,27.542s4.929-8.888,18.624-22.979C104.909,47.7,131.11,43.52,131.11,43.52Z" transform="translate(-25.246 -43.52)" fill="none"/></clipPath><linearGradient id="cj" x1="-0.205" y1="2.221" x2="-0.191" y2="2.221" xlink:href="#at"/><clipPath id="cl"><path d="M54.827,91.74c12.847-20.082,30.689-35.3,51.294-43.013-.933.6-1.915,1.252-2.963,1.994-9.274,6.564-15.786,22.943-15.786,22.943a56.935,56.935,0,0,1,16.143-17.7c7.744-5.559,16.176-8.68,21.45-10.844A37.221,37.221,0,0,1,136.2,43.113c-4.172-1.518-8.88-1.518-13.884-1.518-27.955,0-52.375,16.583-67.488,50.145" transform="translate(-54.827 -41.595)" fill="none"/></clipPath><linearGradient id="cm" x1="-1.114" y1="3.626" x2="-1.092" y2="3.626" xlink:href="#at"/><clipPath id="co"><path d="M75.2,183.467c.189,80.9-2.127,141.174,54.746,141.174,46.689,0,51.9-41.757,51.325-137.852C180.7,92.614,181.5,41.6,134.814,41.6,88.114,41.6,75,93.333,75.2,183.467" transform="translate(-75.201 -41.6)" fill="none"/></clipPath><linearGradient id="cp" x1="-1.479" y1="0.999" x2="-1.459" y2="0.999" xlink:href="#az"/><clipPath id="cr"><path d="M81.239,80.895A87.416,87.416,0,0,1,99.2,58.622a16.031,16.031,0,0,0-.775,6.929s11.438-15.807,28.123-15.193,26.727,12.882,26.727,12.882a19.672,19.672,0,0,0-4.295-8.837,56.011,56.011,0,0,1,18.029,20.3c-6.027-21.787-17.477-33.1-39.451-33.1-23.735,0-39.358,13.859-46.321,39.295" transform="translate(-81.239 -41.6)" fill="none"/></clipPath><linearGradient id="cs" x1="-4.195" y1="4.028" x2="-4.148" y2="4.028" gradientUnits="objectBoundingBox"><stop offset="0" stop-color="#fea000"/><stop offset="0.116" stop-color="#fea205"/><stop offset="0.264" stop-color="#fea815"/><stop offset="0.429" stop-color="#feb32f"/><stop offset="0.606" stop-color="#fec253"/><stop offset="0.792" stop-color="#fed582"/><stop offset="0.985" stop-color="#feecba"/><stop offset="1" stop-color="#ffeebf"/></linearGradient><clipPath id="cu"><rect width="89.573" height="104.494" fill="none"/></clipPath><clipPath id="cv"><path d="M83.6,89.085s-2.309,18.517-3.218,35.963,0,52.8,0,52.8,14.952-29.562,27.266-29.09,25.342,32.795,25.342,32.795,13.6-32.728,22.892-32.795,12.959,31.112,12.959,31.112,1.6-30.909,0-62.418-2.074-39.27-2.074-39.27S153.65,99.945,143.6,99.945s-28.074-22.89-28.074-22.89S103.3,96.655,96.559,96.818,83.6,89.085,83.6,89.085" transform="translate(-79.977 -77.055)" fill="none"/></clipPath><linearGradient id="cw" x1="-1.283" y1="2.505" x2="-1.265" y2="2.505" xlink:href="#cs"/><clipPath id="cx"><path d="M104.89,86.506l.07-.1s0-.063-.018-.063-.026.038-.053.167M53.578,100.4c-4.46,17.9-4.189,47.215-4.189,47.215s.647-12.389,8.156-11.311,12.783,13.633,12.783,13.633,2.2-10.222,15.537-8.7,16.182,25.944,16.182,25.944a478.588,478.588,0,0,1,.68-54.095c1.512-21.408,2.005-25.783,2.162-26.585-.744,1.106-7.342,10.615-13.816,9.782C84.2,95.4,85.033,84.781,85.033,84.781s-7.084,12.927-13.75,11.506-9.919-18.642-9.919-18.642-3.4,5.16-7.786,22.757" transform="translate(-49.386 -77.646)" fill="none"/></clipPath><linearGradient id="cy" x1="-0.792" y1="3.841" x2="-0.771" y2="3.841" xlink:href="#bb"/><clipPath id="cz"><path d="M32.012,97.727c-5.081,18.505-4.134,30.75-4.134,30.75s5.955-10.5,15.018-10.628,21.521,23.028,21.521,23.028,1.008-22.9,2.333-33.078,5.591-29.42,5.591-29.42S63.085,89.988,54.29,89.142,40.967,77.055,40.967,77.055s-4.685,5.1-8.955,20.672" transform="translate(-27.808 -77.055)" fill="none"/></clipPath><linearGradient id="da" x1="-0.601" y1="4.977" x2="-0.572" y2="4.977" xlink:href="#bd"/><clipPath id="db"><path d="M26.043,87.906a102.029,102.029,0,0,0-9.3,21.981s4.062-2.44,5.622-2.311S24.3,120.036,24.3,120.036s5.409-21.389,7.769-27.94,8.061-19.184,8.061-19.184-7.626,3.737-14.089,14.994" transform="translate(-16.747 -72.912)" fill="none"/></clipPath><linearGradient id="dc" x1="-0.866" y1="4.363" x2="-0.804" y2="4.363" xlink:href="#bf"/><clipPath id="dd"><path d="M16.826,85.863c-4.9,5.549,3.749,9.827,3.749,9.827S21.462,87.7,23.3,84.6c1.138-1.92,6-10.814,6-10.814A155.622,155.622,0,0,0,16.826,85.863" transform="translate(-15.325 -73.785)" fill="none"/></clipPath><linearGradient id="de" x1="-1.195" y1="8.825" x2="-1.099" y2="8.825" xlink:href="#bf"/><clipPath id="df"><path d="M43.459,107.518a120.61,120.61,0,0,0,.909,35.3l102.4,10.211L54.158,69.037s-8.277,19.545-10.7,38.481" transform="translate(-42.576 -69.037)" fill="none"/></clipPath><radialGradient id="dg" cx="1.125" cy="1.063" r="1.473" gradientTransform="matrix(0.976, 0, 0, -1, -0.013, 4.222)" gradientUnits="objectBoundingBox"><stop offset="0" stop-color="#5c0200"/><stop offset="0.234" stop-color="#570100"/><stop offset="0.471" stop-color="#4b0100"/><stop offset="0.71" stop-color="#370100"/><stop offset="0.949" stop-color="#1b0100"/><stop offset="1" stop-color="#140100"/></radialGradient><clipPath id="di"><path d="M110.7,153.558l102.569-8.864A120.618,120.618,0,0,0,214.8,109.41c-2.085-18.964-10.021-38.617-10.021-38.617Z" transform="translate(-110.699 -70.793)" fill="none"/></clipPath><radialGradient id="dj" cx="-0.064" cy="-0.121" r="1.436" gradientTransform="matrix(0, -1, 1.028, 0, -3.791, 0.362)" xlink:href="#dg"/><clipPath id="dl"><path d="M113.135,183.575c4.722-4.047,9.246-7.828,9.246-7.828l6.446,11.685a287.736,287.736,0,0,0,49.914,5.912c5.457-6.293,12.682-15.05,12.682-15.05L204.2,193.3a341.1,341.1,0,0,0,51.1-5.625l1.933-11.931,10.148,9.376c69.907-16.2,101.9-50.069,101.9-50.069s-26.775,8.3-66.733,15.229c-5.354,7.866-13.536,19.932-13.556,20.262-.022.374-9.259-10.768-13.679-16.122-12.141,1.594-25.021,2.925-38.4,3.829l-8.075,24.322-17.1-23.237c-4.834.1-9.673.207-14.573.165-8.081-.07-16.024-.423-23.881-.892l-16.849,20.16-19.348-23.512c-7.044-.894-13.9-1.886-20.506-2.962L95.244,168.069s-3.4-13.432-5.2-20.681c-38.368-7.949-63.794-16.877-63.794-16.877s24.006,35.286,86.884,53.065" transform="translate(-26.251 -130.51)" fill="none"/></clipPath><radialGradient id="dm" cx="0.44" cy="-0.555" r="2.089" gradientTransform="matrix(0.213, 0, 0, -1, -0.133, 3.64)" xlink:href="#dg"/></defs><g transform="matrix(0.966, -0.259, 0.259, 0.966, 0, 114.15)"><g clip-path="url(#a)"><g clip-path="url(#a)"><path d="M67.42,42.818,80.7,37.358l21.281.184,15.134-3.853S138.562,35.4,139.585,35.5s24.834-3.988,26.256-3.652S182.288,35.5,182.288,35.5l33.373,1.861,7.232,10.666L185.365,61.308s-49.339,5.532-54.548,5.259S66.242,56.058,66.242,54.982,67.42,42.818,67.42,42.818" transform="translate(79.582 28.553)" fill="#374c00"/><path d="M146.965,30.666c14.767.106,28.052,1.651,40.646,7.674a10.867,10.867,0,0,1,.425,3.1c-.416.4-49.907,4.606-49.907,4.606s-8.761.9-9.629-3.161c-1.768-8.283,10.164-12.277,18.465-12.218" transform="translate(154.165 27.513)" fill="#8a2c00"/><path d="M142.354,30.666c12.431.089,23.808,1.233,34.619,5.179l-2.589,1.389s-21.8.586-31.4,1.8c-7.46.943-10.454-2.982-10.818-6.614a30.441,30.441,0,0,1,10.192-1.751" transform="translate(158.776 27.513)" fill="#db6903"/></g><g transform="translate(292.323 58.177)"><g clip-path="url(#c)"><rect width="34.194" height="5.174" transform="translate(0 0)" fill="url(#d)"/></g></g><g clip-path="url(#a)"><path d="M146.357,39.35a31.718,31.718,0,0,1-12.869,1.125c-6.144-.909-2.38-6.767-1.847-7.437-.044.036-.1.068-.141.106-.064.053-.143.121-.236.2a7.366,7.366,0,0,0-2.765,7.41c.867,4.056,9.629,3.161,9.629,3.161s1.442-.121,3.8-.324c2.109-1.983,4.427-4.242,4.427-4.242" transform="translate(154.166 29.642)" fill="#5e1e00"/><path d="M71.651,45.689c0-.121,5.074-.569,7.656-3.69A7.367,7.367,0,0,0,80.7,39.582s3.452,2.408,12.981,1.774A53.861,53.861,0,0,0,111.8,36.41s8.2,4.168,23.216,3.174a188.572,188.572,0,0,0,26.467-3.6s4.9,3.777,13.437,4.851a100.436,100.436,0,0,0,19.057,0s-.209.9,2.813,1.613-6.749,9.757-6.749,9.757H70.883Z" transform="translate(85.157 32.287)" fill="#527100"/><path d="M186.834,48.15s1.642-3.419,0-3.61-9.963-3.153-9.963-3.153a42.964,42.964,0,0,1-10.925.774,17.09,17.09,0,0,1-8.581-3.155l-9.536,2.381L118.222,40.6a30.061,30.061,0,0,1-8.979,1.819c-4.178,0-11.489-2.178-11.489-2.178s-1.193,2.244-6.49,2.519a41.093,41.093,0,0,1-10.446-.988,29.7,29.7,0,0,1-6.712,5.779l.123,1.95h78.563Z" transform="translate(89.029 34.996)" fill="#374b00"/><path d="M136.92,27.925c15.3,1.377,23.865,5.134,23.308,7.5s-6.115,5.688-6.708,7.892-13.527,4.162-18.894,3.569-14.683-5.037-19.786-8.568c-5.792-4-10.763-6-2.439-8.074a80.1,80.1,0,0,1,24.519-2.315" transform="translate(129.733 24.88)" fill="#8a2c00"/><path d="M160.215,33.979s-6.738,7.79-21.809,7.276c-13.818-.471-25.93-10.285-27.854-11.918-5.587,1.893-1.015,3.878,4.275,7.536,5.1,3.531,14.421,7.972,19.784,8.568s18.307-1.364,18.894-3.567c.48-1.785,4.178-4.3,5.88-6.45a9.373,9.373,0,0,0,.83-1.444" transform="translate(129.748 26.321)" fill="#5e1e00"/><path d="M156.947,33.674c-2.355,2.6-9.041,7.716-23.506,4.422a126.768,126.768,0,0,1-23.575-7.78c.1-.025.181-.051.28-.076a80.024,80.024,0,0,1,24.517-2.315c11.9,1.068,19.649,3.572,22.285,5.748" transform="translate(131.99 24.88)" fill="#db6903"/><path d="M132.717,27.921a72.9,72.9,0,0,1,18.04,3.557c-1.209,1.241-4.574,2.893-15.355,2.17a129.458,129.458,0,0,1-23.918-4.094,77.939,77.939,0,0,1,21.232-1.633" transform="translate(133.935 24.884)" fill="#ffc884"/><path d="M88.591,31.115c-14.769.106-28.052,1.651-40.648,7.674a10.55,10.55,0,0,0-.423,3.1c.414.4,49.907,4.606,49.907,4.606s8.764.9,9.627-3.161c1.77-8.283-10.166-12.277-18.463-12.218" transform="translate(57.043 27.916)" fill="#a33400"/><path d="M85.046,31.115c-12.436.087-23.808,1.233-34.614,5.179,1.5.812,2.584,1.389,2.584,1.389s21.8.586,31.4,1.8c7.46.943,10.461-2.982,10.822-6.616a30.489,30.489,0,0,0-10.195-1.749" transform="translate(60.588 27.916)" fill="#db6903"/></g><g transform="translate(120.25 59.029)"><g clip-path="url(#f)"><rect width="34.19" height="5.174" transform="translate(0 0)" fill="url(#g)"/></g></g><g clip-path="url(#a)"><path d="M87.731,42.091c.867-4.058-1.563-7.08-5.235-9.107L80.627,32.5S86.733,39.05,83.26,42.55s-19.471-2.7-19.7-2.584l8.559,4.773c3.65.315,5.981.512,5.981.512s8.764.9,9.627-3.161" transform="translate(76.364 29.158)" fill="#5e1e00"/><path d="M93.74,27.925c-15.306,1.377-23.867,5.134-23.308,7.5s7.612,7.094,9.609,8.562c2.712,1.994,10.626,3.493,15.989,2.9s14.683-5.037,19.786-8.568c5.787-4,10.763-6,2.439-8.074A80.069,80.069,0,0,0,93.74,27.925" transform="translate(84.584 24.88)" fill="#8a2c00"/><path d="M70.883,33.674c2.353,2.6,9.041,7.716,23.5,4.422a126.8,126.8,0,0,0,23.577-7.78c-.1-.025-.178-.051-.282-.076a80,80,0,0,0-24.512-2.315c-11.9,1.068-19.656,3.572-22.285,5.748" transform="translate(85.157 24.88)" fill="#db6903"/><path d="M90.852,27.921A72.872,72.872,0,0,0,72.81,31.478c1.2,1.241,4.572,2.893,15.355,2.17a129.374,129.374,0,0,0,23.911-4.094,77.883,77.883,0,0,0-21.223-1.633" transform="translate(87.472 24.884)" fill="#ffc884"/><path d="M91.632,32.186a1.811,1.811,0,0,0,.35-.77Z" transform="translate(110.084 28.186)" fill="#8a1b01"/><path d="M94.443,41.295c-8.555,1.929-22.892-5.312-22.921-5.327,1.484,1.768,6.005,4.845,7.179,5.5a26.523,26.523,0,0,0,15.989,2.9c5.363-.6,14.683-5.037,19.786-8.568l.048-.032.808-5.229c-.819,1.231-8.319,7.925-20.889,10.759" transform="translate(85.925 27.397)" fill="#5e1e00"/><path d="M112.288,27.35c-7.595.009-17.842,5.572-22.571,10.353-4.286,4.337,12.979,8.014,23.062,7.422,12.673-.746,29.483-1.831,24.29-8.775-6.749-9-17.926-9.012-24.781-9" transform="translate(106.978 24.538)" fill="#8a2c00"/><path d="M112.779,41.252c12.676-.746,29.485-1.831,24.29-8.775-.216-.288-.447-.541-.674-.81-2.193,2.11-7.287,4.948-19.132,5.832-17,1.269-24.264-3.81-25.893-5.177-.6.507-1.162,1.011-1.653,1.506-4.286,4.339,12.979,8.016,23.062,7.424" transform="translate(106.978 28.411)" fill="#5e1e00"/><path d="M120.947,37.7c6.267-1.358,4.742-4.3,2.661-7.445-5.911-2.844-12.561-2.914-17.23-2.908a25.234,25.234,0,0,0-8.057,1.622c-5.695,4.047-7.091,9.685,3.773,9.685,10.324,0,10.917.766,18.853-.954" transform="translate(112.888 24.537)" fill="#db6903"/><path d="M115.934,28.613a49.206,49.206,0,0,0-12.876-1.264,20.8,20.8,0,0,0-4.568.617c-2.756,2.941-3.648,4.229,7.868,3.921,10.6-.283,10.6-.753,9.576-3.275" transform="translate(116.21 24.537)" fill="#ffc884"/></g><g transform="translate(226.902 2.377)"><g clip-path="url(#i)"><path d="M0,0,20.885.661l.849,30.765L.849,30.765Z" transform="translate(-3.743 15.578) rotate(-78.299)" fill="url(#j)"/></g></g><g transform="translate(165.858 4.724)"><g clip-path="url(#k)"><path d="M0,0,98.855,4.381l4.164,106.268L4.164,106.268Z" transform="translate(-25.936 72.917) rotate(-72.957)" fill="url(#l)"/></g></g><g clip-path="url(#a)"><path d="M116.439,41.534c-6.587,0-6.463-7.539-6.463-7.539a.436.436,0,0,1-.046.032C96.257,49.649,75.342,53.993,75.342,53.993l66.9-1.161a34.163,34.163,0,0,1-3.3-7.79,21.868,21.868,0,0,1-.674-6l-4.086-3.362s-5.834,5.851-17.739,5.851" transform="translate(90.514 30.5)" fill="#476100"/><path d="M138.069,14.643s-10.9-1-14.842-3.07c-9.871-5.181-11.091-9.084-11.091-9.084s-5.248,11.924-13.891,42.159a44.86,44.86,0,0,1-5.1,11.45c2.622-2.84,8.1-8.469,9.979-8.1,2.507.484-1,8-1,8s4.387-5.678,6.393-5.485S112.72,56.4,112.72,56.4a56.99,56.99,0,0,0,6.8-14.028c.412-1.375.343-4.31,2.518-6.253,1.609-5.678,5.393-10.319,9.893-15.553a36.781,36.781,0,0,1,6.135-5.925" transform="translate(111.9 2.234)" fill="#547200"/></g><g transform="translate(224.036)"><g clip-path="url(#n)"><path d="M0,0,26.05,1.154,27.61,40.988,1.561,39.834Z" transform="translate(-5.647 15.877) rotate(-72.957)" fill="url(#o)"/></g></g><g clip-path="url(#a)"><path d="M133.139,14.643s-10.9-1-14.842-3.07c-9.871-5.181-11.091-9.084-11.091-9.084s-3.692,8.41-9.961,28.889c1.805-2.493,4.02-4.992,5.4-4.536,2.631.873.187,8.357.187,8.357s4.156-7.631,7.245-6.83,0,8.139,0,8.139,2.956-5.341,4.519-5.158-2.23,8.078-2.23,8.078l7.37-5.544A38.9,38.9,0,0,1,127,20.568a36.781,36.781,0,0,1,6.135-5.925" transform="translate(116.829 2.234)" fill="#4e6b00"/><path d="M136.8,49.439a34.163,34.163,0,0,1-3.3-7.79,17.965,17.965,0,0,1-.594-3.717c-1.856,1.243-6.459,3.967-11.093,3.912-5.986-.072-6.52-1.243-6.52-1.243s-8.308,3.007-14.342,1.243c-3.045-.892-3.923-2.6-4.059-4.069a66.829,66.829,0,0,1-9.631,6.2l-7.394,6.452Z" transform="translate(95.95 33.892)" fill="#384d00"/></g><g transform="translate(224.401 11.045)"><g clip-path="url(#q)"><path d="M0,0,80.334,2.83l1.833,59.44L1.833,59.44Z" transform="translate(-24.829 69.646) rotate(-76.849)" fill="url(#r)"/></g></g><g clip-path="url(#a)"><path d="M118.016,45.115a15.11,15.11,0,0,1-4.489-9.5,31.964,31.964,0,0,1-.042-3.9.24.24,0,0,0-.022-.034s-.755,4.4-4.953,4.9c-4.242.514-6.432-3.81-6.523-3.99A31.707,31.707,0,0,0,103.8,45.274a39.042,39.042,0,0,0,8.2,2.041,62.444,62.444,0,0,0,6.021-2.2" transform="translate(122.476 28.42)" fill="#517000"/><path d="M119.749,49.115c4.731-.761,10.921-1.793,10.921-1.793S119.016,45.27,114.586,36.7l-.048-.013a2.031,2.031,0,0,1-1.143,3.054c-1.8.683-4.427-2.366-4.427-2.366s.733,2.751-1.57,3.049c-2.831.368-4.9-2.03-4.973-2.11a23.886,23.886,0,0,0,7.692,12.423c.786.089,1.633.188,2.525.288a37.835,37.835,0,0,1,7.106-1.907" transform="translate(123.052 32.912)" fill="#415900"/><path d="M102.29,55.32c-.018-.108-2.27-10.753,3.265-25.142,4.779-12.436,8.145-14.792,8.262-14.874-.026.019-3.018,2.889-7.7,15.069-5.479,14.252-3.839,24.84-3.824,24.946" transform="translate(122.327 13.731)" fill="#8fc400"/><path d="M114.064,153.281c0,78.415,44.807,141.984,100.072,141.984s96.092-58.172,89.316-143.656C296.576,64.788,225.376,13.888,166.428,37.286c-58.039,23.032-52.364,37.578-52.364,115.994" transform="translate(136.851 28.351)" fill="#fff4a2"/></g><g transform="translate(249.198 60.452)"><g clip-path="url(#t)"><path d="M0,0,208.584.641l.954,267.493L.954,267.493Z" transform="translate(-12.332 0.129) rotate(-1.275)" fill="url(#u)"/></g></g><g transform="translate(235.301 68.128)"><g clip-path="url(#v)"><rect width="201.835" height="263.666" transform="translate(-5.523 -0.002)" fill="url(#w)"/></g></g><g clip-path="url(#a)"><path d="M203,138.571c.8.368,3.74-12.191,3.74-12.191s-1.506,11.448,4.592,12.2c6.771.827,12.543-27.189,12.687-27.893-2.252,40.549-16.174,72.75-37.161,92.371-2.681-10.383-6.763-27.284-6.487-27.45.4-.254,9.657-49.458,9.657-49.458S202.212,138.2,203,138.571" transform="translate(216.681 99.303)" fill="#fe5e01"/><path d="M203,138.571c.8.368,3.74-12.191,3.74-12.191s-1.506,11.448,4.592,12.2c6.771.827,12.543-27.189,12.687-27.893-2.252,40.549-16.174,72.75-37.161,92.371-2.681-10.383-6.763-27.284-6.487-27.45.4-.254,9.657-49.458,9.657-49.458S202.212,138.2,203,138.571" transform="translate(216.681 99.303)" fill="#dd5201"/><path d="M223.744,59.785,133.9,56.662l-9.759-5.86c7.368-5.075,17.1-9.771,30-14.887a79.533,79.533,0,0,1,8.486-2.785c6.789.484,19.98-.668,32.569,1.157a197.654,197.654,0,0,1,33.023,8.069c.4.25,27.3,24.717,27.3,24.717S224.5,45.853,219.742,50.426c-3.135,3.013,4,9.359,4,9.359" transform="translate(149.142 29.723)" fill="#f06d01"/><path d="M196.868,49.473s-61.284,4.6-75.12,5.7c7.764-6.519,19.37-11.816,35.266-18.122a80.25,80.25,0,0,1,21.063-5.185l18.791,4.4s-15.694,1.611-17.1,4.1,17.1,9.112,17.1,9.112" transform="translate(146.265 28.589)" fill="#db6903"/><path d="M166.873,44.007,127.2,57.883l-5.024-5.13c7.639-5.857,18.186-11.1,32.754-16.885,2.025-.8,4.068-1.5,6.118-2.129-3.756,2.364-7.044,4.931-5.946,6.139,2.294,2.512,11.769,4.128,11.769,4.128" transform="translate(146.782 30.27)" fill="#9c3200"/><path d="M166.033,212.373l49.236-63.882s-2.419,12.191,4.933,13.423c7.769,1.3,18.064-37.8,18.514-39.488C230,172,202.158,205.342,166.033,212.373" transform="translate(199.468 109.839)" fill="#c14801"/><path d="M206.529,159.587c3.3,1.9,9.111-4.565,9.558-5.077-11.192,18.3-26.317,31.311-43.935,37.638l-2.182-2.671,37.393-47.842s-3.936,16.168-.834,17.951" transform="translate(204.199 127.075)" fill="#871b01"/></g><g transform="translate(307.834 59.978)"><g clip-path="url(#y)"><path d="M0,0,90.7,6.451l7.361,109.184-90.7-6.451Z" transform="translate(-23.252 29.228) rotate(-55.567)" fill="url(#z)"/></g></g><g clip-path="url(#a)"><path d="M205.335,161.731c-9.47,10.7-20.693,18.558-33.181,23.043l-2.182-2.673,24.82-31.755,1.473-.491a57.638,57.638,0,0,0-2.239,13.466c-.222,4.42,5.928,1.647,11.308-1.59" transform="translate(204.2 134.449)" fill="#611301"/></g><g transform="translate(226.489 73.334)"><g clip-path="url(#ab)"><path d="M0,0,232.417,3.243l4.673,289.547L4.673,289.547Z" transform="translate(-31.924 2.803) rotate(-5.817)" fill="url(#ac)"/></g></g><g transform="translate(324.729 87.834)"><g clip-path="url(#ad)"><path d="M0,0,74.878.2l.533,174.027-74.878-.2Z" transform="translate(-3.832 0.063) rotate(-1.095)" fill="url(#ae)"/></g></g><g clip-path="url(#a)"><path d="M214.7,162.955c-2.961-53.484-19.429-91.758-43.424-114.126,25.694,20.63,43.466,57.637,46.55,110.2,1.6,27.223-3.126,52.465-12.284,73.9a186.028,186.028,0,0,0,9.158-69.97" transform="translate(205.761 43.809)" fill="#fe9400"/><path d="M128.332,47.577a76.685,76.685,0,0,1,23.42-7.676,99.353,99.353,0,0,1,22.287-1.017c15.447,6.316,54.072,26.363,54.072,26.363L236.4,79.9s-37.822-33.785-46.951-25.584c-2.582,2.318,9,11.432,9,11.432S183.23,54.19,178.865,55.68c-2.719.932,1.019,4.339,1.019,4.339Z" transform="translate(154.175 34.682)" fill="#ff7a03"/><path d="M151.775,39.7c2.331-.366,4.647-.622,6.95-.829l28.057,6.4s-20.105-3.242-21.692-.18,3.815,8.782,3.815,8.782-14.377-6.893-15.7-5.318,4.346,1.607,4.346,1.607l-29.195-1.013s-.042-.755-.042-1.744a76.838,76.838,0,0,1,23.462-7.7" transform="translate(154.152 34.878)" fill="#db6903"/><path d="M154.367,40.092c9.893.808,8.436,1.226,8.436,1.226s-5.046-.283-6.435,2.277c-1.768,3.252,5.345,7.312,5.345,7.312L128.97,45l3.291-.753a76.47,76.47,0,0,1,13.908-4.439c2.428-.025,5.175.034,8.2.283" transform="translate(154.941 35.712)" fill="#ab461b"/><path d="M162.775,234.09c2.034-17.868,5-43.943,5-44.43,0-.749,26-58.151,26-58.151s.718,30.812,12.51,30.315c11.509-.488,21.527-45.768,22.009-47.976-.878,56.106-28.622,102.033-65.522,120.242" transform="translate(195.554 102.144)" fill="#fe5e01"/></g><g transform="translate(183.251 80.714)"><g clip-path="url(#ag)"><path d="M0,0,242.149,3.271l4.524,289.414L4.524,289.414Z" transform="translate(-30.853 2.622) rotate(-5.631)" fill="url(#ah)"/></g></g><g clip-path="url(#a)"><path d="M141.525,225.027a16.75,16.75,0,0,1,.02-3.641c.4-1.119,34.92-24.855,35.845-25.35s38.126-49.45,38.126-49.45-10.7,34.912.015,34.043c21.468-1.744,33.723-47.208,34.22-48.4-12.464,54.248-51.116,92.632-94.461,93.8a70.88,70.88,0,0,1-13.765-1" transform="translate(169.934 118.632)" fill="#e05301"/><path d="M139.355,198.739c9.182-15.282,22.89-38.092,23.031-38.274l39.664,1.516s-5.84,11.715-2.8,13.028c5.208,2.242,22.844-11.761,22.844-11.761s-1.059,4.157-10.034,13.377c-12.5,12.833-27.394,17.621-35.964,21.288a76.736,76.736,0,0,1-18.293,2.777,70.819,70.819,0,0,1-18.452-1.952" transform="translate(167.418 143.968)" fill="#a32001"/></g><g transform="translate(305.575 73.334)"><g clip-path="url(#aj)"><path d="M0,0,136.3,9.694l9.815,145.582-136.3-9.694Z" transform="matrix(0.565, -0.825, 0.825, 0.565, -49.095, 61.717)" fill="url(#ak)"/></g></g><g clip-path="url(#a)"><path d="M178.213,174.048c0,4.242,20.737-1.328,20.737-1.328s-14.758,9.791-28.193,14.889A75.719,75.719,0,0,1,155.29,189.7c-1.323.038-2.633.013-3.945-.028l-9.9-5.331s36.761-14.531,36.765-10.288" transform="translate(169.932 154.963)" fill="#7a1801"/><path d="M81.289,187.379c0,80,43.537,129.222,99.13,129.222s114.815-37,111.288-138.943c-3.456-100-54.169-135.137-109.765-135.137S81.289,107.373,81.289,187.379" transform="translate(97.659 38.15)" fill="#fe8801"/></g><g transform="translate(300.864 96.677)"><g clip-path="url(#am)"><rect width="51.728" height="192.116" transform="translate(0 0)" fill="url(#an)"/></g></g><g clip-path="url(#a)"><path d="M235.391,180.355c-3.439-101.32-53.5-137.338-108.66-137.808.2-.008.414-.025.619-.025,55.6,0,106.309,35.138,109.767,135.135,1.063,30.689-3.59,55.457-12.1,75.138,7.414-19.367,11.359-43.3,10.371-72.441" transform="translate(152.252 38.151)" fill="#fe9400"/><path d="M185.4,129.181s1.777,32.971,21.895,35.789,29.562-30.012,29.562-30.012l0,.036c-9.684,75.484-61.139,103.858-109.816,103.858-.447,0-.883-.036-1.323-.04Z" transform="translate(151.036 115.9)" fill="#fe6901"/><path d="M122.261,220.359c9.272-10.192,20.2-21.937,20.645-22.222.795-.5,40.651-46.35,40.651-46.35s-6.631,22.753-.176,25.472c5.125,2.165,14.551-16.4,14.551-16.4s-.134,14.174,4.5,17.892c9.7,7.784,30.047-28.022,31.006-29.48-18.337,51.4-61.258,71.551-102.236,71.551-3.018,0-5.994-.175-8.935-.465" transform="translate(146.881 133.927)" fill="#e05301"/></g><g transform="translate(190.165 77.777)"><g clip-path="url(#ap)"><path d="M0,0,187.146,2.851l5.189,294.643L5.189,294.643Z" transform="translate(-39.714 3.449) rotate(-6.357)" fill="url(#aq)"/></g></g><g clip-path="url(#a)"><path d="M167.811,165.717s-5.043,9.446,4.374,12.3c7.7,2.337,28.642-7.094,28.642-7.094a102.2,102.2,0,0,1-30.311,24.59c-18.573,9.905-41.141,11.408-41.141,11.408Z" transform="translate(155.428 148.68)" fill="#bd2601"/><path d="M118.3,45.177a71.369,71.369,0,0,1,19.174-2.656c22.857,0,44.886,5.959,63.146,19.9,5.18,9.67,10.111,19.22,10.111,19.22-9.373-6.115-24.365-18.611-32.512-14.394-5.6,2.9-1.013,20.209-1.013,20.209Z" transform="translate(142.125 38.15)" fill="#ff7a03"/><path d="M119.8,44.331a71.376,71.376,0,0,1,15.872-1.81,115.468,115.468,0,0,1,31.874,4.318L178.136,55.2s-13.3-3.257-17.831-1.305c-4.453,1.92,1.6,13.734,1.6,13.734Z" transform="translate(143.927 38.15)" fill="#db6903"/><path d="M122.179,42.708c3.344-.484,7.207-.125,10.639-.125a125.007,125.007,0,0,1,13.318.727l13.723,5.807s-8.819-1.88-10.223,0,.469,8.209.469,8.209Z" transform="translate(146.783 38.09)" fill="#c76003"/></g><g transform="translate(279.601 80.671)"><g clip-path="url(#as)"><path d="M0,0,142.079,10.465,152.461,155.99,10.382,145.525Z" transform="matrix(0.626, -0.779, 0.779, 0.626, -55.618, 59.637)" fill="url(#at)"/></g></g><g clip-path="url(#a)"><path d="M129.375,203.314,160.7,169.737c-.359,4.106-.09,11.148,5.506,13.292,6.261,2.4,22.084-7.632,22.084-7.632a70.683,70.683,0,0,1-11.4,11.121c-5.986,4.661-16.59,9.332-26.17,12.975a124.066,124.066,0,0,1-21.347,3.821" transform="translate(155.428 152.287)" fill="#961e01"/><path d="M85.831,185.774c-4.249,101.741,22.322,137.871,69.013,137.871,56.87,0,79.005-46.94,79.005-142.358,0-82-29.133-140.683-83.573-140.69C103.587,40.588,90.11,83.13,85.831,185.774" transform="translate(102.583 36.423)" fill="#fe9201"/><path d="M149.977,146.6s.414,17.063,10.027,18.722,15-11.1,15-11.1-.194,12.1,14.705,12.26c14.518.165,21.86-23.227,22.223-24.406-7.546,60.579-30.791,90.517-76.181,90.517-13.169,0-24.739-2.878-34.465-9.294,17.369-27.86,48.694-76.7,48.694-76.7" transform="translate(121.679 127.472)" fill="#fe7801"/><path d="M202.757,164.156c-12,32.584-33.39,48.75-66.739,48.75-13.4,0-25.129-3-34.96-9.643,3.377-5.157,6.6-9.218,6.921-9.581.881-.992,39.755-29.657,39.755-29.657s-1.294,17.707,19.5,23.2c22.355,5.9,33.08-16.94,35.524-23.066" transform="translate(121.409 147.162)" fill="#e05301"/><path d="M147.479,163.441l-.015.036.015-.036" transform="translate(177.16 146.638)" fill="#e05301"/><path d="M100.329,51.045c8.4-7.1,18.89-10.448,32-10.448,32.622,0,60.432,22.6,74.244,68.4-.663-1.21-20.9-38.189-35.64-38.354-14.991-.163-14.813,9.262-14.813,9.262s-5.305-4.043-10.054-2.633-.671,18.325-.671,18.325Z" transform="translate(120.533 36.423)" fill="#ff7a03"/><path d="M104.626,48.347l-1.363-1.766c7.168-4.035,15.595-5.984,25.54-5.984a64.53,64.53,0,0,1,35.625,10.484c1.836,4.381,3.15,7.583,3.15,7.583s-16.926-7.084-24.992-2.734-7.568,14.709-7.568,14.709Z" transform="translate(124.058 36.423)" fill="#db6903"/><path d="M119.751,53.673,103.263,46.58c8.594-4.049,13.215-5.974,25.54-5.984a69.957,69.957,0,0,1,11.443.95l11.022,6.181,13.228,7.89s-20.422-9.994-27.544-5.422c-11.441,7.342-5.263,17.906-5.263,17.906Z" transform="translate(124.058 36.422)" fill="#d46603"/></g><g transform="translate(238.973 77.02)"><g clip-path="url(#av)"><path d="M0,0,87.367,6.385l6.671,94.86L6.671,94.86Z" transform="translate(-28.097 31.568) rotate(-52.509)" fill="url(#aw)"/></g></g><g clip-path="url(#a)"><path d="M136.75,173.052s-1.691,6.682,1.614,8.078c3.608,1.525,8.748-2.692,8.748-2.692s3.562,6.16,9.373,8.08c8.288,2.734,20.814-2.967,20.814-2.967a54.585,54.585,0,0,1-12.982,12.114c-5.95,3.827-12.064,4.863-17.294,7.316a84.676,84.676,0,0,1-17.915,1.827,69.192,69.192,0,0,1-22.3-3.409Z" transform="translate(128.318 155.261)" fill="#c42700"/><path d="M129.109,198.44a69.183,69.183,0,0,1-22.3-3.409L121.417,181.2c4.612.744,10.507,1.643,13.206,1.85,4.775.362,9.7-2.9,9.7-2.9s-.15,2.15,4.112,4.931,15.436-1.366,15.436-1.366a24.568,24.568,0,0,1-7.386,6.815,94.836,94.836,0,0,1-15.035,7.05,88.183,88.183,0,0,1-12.341.861" transform="translate(128.318 161.629)" fill="#961e00"/></g><g transform="translate(169.383 77.03)"><g clip-path="url(#ay)"><path d="M0,0,283.4.177l.06,110.721L.06,110.721Z" transform="matrix(0.004, -1, 1, 0.004, -1.82, 283.034)" fill="url(#az)"/></g></g><g transform="translate(276.753 145.416)"><g clip-path="url(#ba)"><path d="M0,0,58.992.25l.447,90.986L.447,90.986Z" transform="matrix(1, -0.031, 0.031, 1, -3.185, 0.084)" fill="url(#bb)"/></g></g><g transform="translate(335.292 144.293)"><g clip-path="url(#bc)"><path d="M0,0,47.651.2l.319,65L.319,65Z" transform="translate(-2.27 0.06) rotate(-1.757)" fill="url(#bd)"/></g></g><g transform="translate(380.792 136.433)"><g clip-path="url(#be)"><path d="M205.763,119.524l-6.387-48.838-29.159,2.941,6.387,48.838Z" transform="translate(-176.299 -73.013)" fill="url(#bf)"/></g></g><g transform="translate(393.331 138.089)"><g clip-path="url(#bg)"><path d="M200.415,95.225l-3.054-23.35L177.39,73.889l3.054,23.35Z" transform="translate(-180.218 -73.604)" fill="url(#bh)"/></g></g><g clip-path="url(#a)"><path d="M190.128,154.28c0,78.417-44.807,141.984-100.075,141.984S-6.038,238.092.735,152.608C7.612,65.787,78.816,14.887,137.762,38.285,195.8,61.319,190.128,75.863,190.128,154.28" transform="translate(0 29.247)" fill="#fff4a2"/></g><g transform="translate(1.565 62.348)"><g clip-path="url(#bj)"><path d="M0,0,267.5.954l.641,208.584-267.5-.954Z" transform="translate(-12.845 263.536) rotate(-88.725)" fill="url(#bk)"/></g></g><g transform="translate(15.461 70.022)"><g clip-path="url(#bl)"><rect width="201.838" height="263.666" transform="translate(-6.037 0)" fill="url(#bm)"/></g></g><g clip-path="url(#a)"><path d="M21.172,139.569c-.792.37-3.74-12.189-3.74-12.189s1.506,11.448-4.59,12.2C6.068,140.4.3,112.386.151,111.68c2.252,40.551,16.178,72.75,37.164,92.371C40,193.669,44.079,176.769,43.8,176.6c-.4-.254-9.657-49.458-9.657-49.458S21.969,139.2,21.172,139.569" transform="translate(0.181 100.199)" fill="#fe5e01"/><path d="M21.172,139.569c-.792.37-3.74-12.189-3.74-12.189s1.506,11.448-4.59,12.2C6.068,140.4.3,112.386.151,111.68c2.252,40.551,16.178,72.75,37.164,92.371C40,193.669,44.079,176.769,43.8,176.6c-.4-.254-9.657-49.458-9.657-49.458S21.969,139.2,21.172,139.569" transform="translate(0.181 100.199)" fill="#dd5201"/><path d="M48.3,60.784l89.843-3.123L147.9,51.8c-7.37-5.075-17.1-9.771-30-14.887a79.533,79.533,0,0,0-8.486-2.785c-6.789.484-19.982-.668-32.572,1.157a197.664,197.664,0,0,0-33.021,8.069c-.4.25-27.3,24.717-27.3,24.717S47.54,46.852,52.3,51.425c3.137,3.013-4,9.359-4,9.359" transform="translate(19.855 30.619)" fill="#f06d01"/><path d="M44.476,50.473s61.284,4.6,75.118,5.7c-7.762-6.519-19.37-11.816-35.264-18.122a80.271,80.271,0,0,0-21.063-5.185l-18.791,4.4s15.691,1.613,17.1,4.1-17.1,9.114-17.1,9.114" transform="translate(53.432 29.484)" fill="#db6903"/><path d="M57.867,45.006,97.538,58.884l5.024-5.13C94.923,47.9,84.376,42.647,69.807,36.869c-2.025-.8-4.068-1.5-6.118-2.131,3.753,2.364,7.044,4.931,5.946,6.139-2.292,2.512-11.769,4.128-11.769,4.128" transform="translate(69.52 31.167)" fill="#9c3200"/><path d="M73.981,213.373,24.745,149.49s2.415,12.191-4.938,13.421c-7.764,1.3-18.062-37.8-18.509-39.488,8.711,49.576,36.558,82.919,72.683,89.95" transform="translate(1.559 110.734)" fill="#c14801"/><path d="M18.986,160.585c-3.3,1.9-9.114-4.565-9.558-5.075,11.192,18.3,26.317,31.311,43.935,37.638l2.182-2.671L18.152,142.634s3.934,16.168.834,17.951" transform="translate(11.327 127.97)" fill="#871b01"/></g><g transform="translate(28.889 61.873)"><g clip-path="url(#bo)"><path d="M0,0,109.186,7.361l6.451,90.7L6.451,90.7Z" transform="matrix(0.825, -0.565, 0.565, 0.825, -23.251, 13.735)" fill="url(#bp)"/></g></g><g clip-path="url(#a)"><path d="M14.313,162.731c9.47,10.7,20.693,18.556,33.181,23.043l2.184-2.673L24.855,151.346c-.9-.3-1.473-.493-1.473-.493a57.657,57.657,0,0,1,2.234,13.468c.225,4.42-5.926,1.647-11.3-1.59" transform="translate(17.195 135.344)" fill="#611301"/></g><g transform="translate(17.147 75.229)"><g clip-path="url(#br)"><path d="M0,0,289.546,4.673l3.243,232.417L3.243,232.417Z" transform="translate(-36.215 270.053) rotate(-84.183)" fill="url(#bs)"/></g></g><g transform="translate(45.247 89.73)"><g clip-path="url(#bt)"><path d="M0,0,174.027.533l.2,74.88L.2,74.88Z" transform="matrix(0.019, -1, 1, 0.019, -3.832, 172.815)" fill="url(#bu)"/></g></g><g clip-path="url(#a)"><path d="M11.226,163.955C14.185,110.471,30.655,72.2,54.648,49.829c-25.69,20.63-43.464,57.637-46.55,110.2-1.6,27.223,3.128,52.463,12.288,73.9a185.9,185.9,0,0,1-9.16-69.97" transform="translate(9.359 44.706)" fill="#fe9400"/><path d="M130.991,48.576a76.669,76.669,0,0,0-23.42-7.674,99.257,99.257,0,0,0-22.289-1.019C69.837,46.2,31.21,66.248,31.21,66.248L22.928,80.9S60.75,47.115,69.877,55.316c2.582,2.318-8.995,11.432-8.995,11.432s15.209-11.558,19.577-10.07c2.719.932-1.019,4.339-1.019,4.339Z" transform="translate(27.545 35.578)" fill="#ff7a03"/><path d="M80.481,40.7c-2.331-.366-4.645-.622-6.95-.829l-28.057,6.4s20.105-3.244,21.692-.18-3.817,8.78-3.817,8.78,14.379-6.891,15.7-5.318-4.35,1.607-4.35,1.607l29.2-1.013s.042-.753.042-1.742a76.807,76.807,0,0,0-23.462-7.7" transform="translate(54.633 35.775)" fill="#db6903"/><path d="M64.486,41.09c-9.893.808-8.436,1.226-8.436,1.226s5.043-.283,6.435,2.277C64.253,47.844,57.14,51.9,57.14,51.9L89.881,46l-3.291-.755a76.439,76.439,0,0,0-13.906-4.438c-2.428-.027-5.178.032-8.2.281" transform="translate(67.247 36.608)" fill="#ab461b"/><path d="M73.333,235.087c-2.036-17.866-5-43.941-5-44.428,0-.749-26-58.151-26-58.151s-.718,30.812-12.513,30.315c-11.509-.489-21.527-45.768-22.009-47.976.878,56.106,28.624,102.031,65.524,120.24" transform="translate(9.382 103.04)" fill="#fe5e01"/></g><g transform="translate(48.651 82.61)"><g clip-path="url(#bw)"><path d="M0,0,289.414,4.524l3.271,242.147L3.271,242.147Z" transform="translate(-34.206 269.692) rotate(-84.369)" fill="url(#bx)"/></g></g><g clip-path="url(#a)"><path d="M117.928,226.027a16.59,16.59,0,0,0-.02-3.641c-.4-1.119-34.92-24.857-35.845-25.352s-38.126-49.45-38.126-49.45,10.7,34.914-.015,34.043c-21.47-1.742-33.723-47.206-34.223-48.4,12.464,54.25,51.116,92.634,94.465,93.8a70.868,70.868,0,0,0,13.763-1" transform="translate(11.653 119.528)" fill="#e05301"/><path d="M106.149,199.738c-9.182-15.282-22.888-38.094-23.029-38.274L43.456,162.98s5.838,11.713,2.8,13.028c-5.208,2.242-22.846-11.761-22.846-11.761s1.059,4.157,10.036,13.377c12.5,12.831,27.392,17.621,35.962,21.288a76.753,76.753,0,0,0,18.3,2.778,70.954,70.954,0,0,0,18.45-1.952" transform="translate(28.119 144.865)" fill="#a32001"/></g><g transform="translate(22.969 75.229)"><g clip-path="url(#bz)"><path d="M0,0,145.583,9.815l9.694,136.3L9.694,136.3Z" transform="matrix(0.825, -0.565, 0.565, 0.825, -49.094, 29.004)" fill="url(#ca)"/></g></g><g clip-path="url(#a)"><path d="M53.517,175.047c0,4.242-20.739-1.328-20.739-1.328s14.758,9.791,28.193,14.889A75.722,75.722,0,0,0,76.44,190.7c1.323.036,2.635.011,3.943-.028l9.9-5.333S53.519,170.8,53.517,175.047" transform="translate(39.379 155.86)" fill="#7a1801"/><path d="M233.974,188.376c0,80-43.534,129.222-99.13,129.222S20.031,280.6,23.556,178.655C27.014,78.66,77.725,43.52,133.321,43.52s100.654,64.85,100.654,144.857" transform="translate(28.119 39.046)" fill="#fe8801"/></g><g transform="translate(93.325 98.571)"><g clip-path="url(#cc)"><rect width="51.724" height="192.119" transform="translate(-4.874 0)" fill="url(#cd)"/></g></g><g clip-path="url(#a)"><path d="M25.283,181.354C28.719,80.034,78.785,44.016,133.94,43.546c-.2-.009-.412-.025-.619-.025-55.6,0-106.307,35.138-109.767,135.133-1.061,30.691,3.595,55.459,12.1,75.14-7.412-19.367-11.357-43.3-10.368-72.441" transform="translate(28.118 39.047)" fill="#fe9400"/><path d="M75.6,130.18s-1.779,32.969-21.9,35.789-29.56-30.014-29.56-30.014l0,.038c9.682,75.484,61.139,103.856,109.811,103.856.449,0,.887-.034,1.33-.038Z" transform="translate(29.006 116.797)" fill="#fe6901"/><path d="M138.756,221.358c-9.272-10.192-20.193-21.937-20.645-22.222-.8-.5-40.651-46.352-40.651-46.352s6.633,22.753.176,25.474c-5.125,2.165-14.549-16.4-14.549-16.4s.132,14.174-4.5,17.894c-9.695,7.784-30.044-28.023-31-29.48,18.337,51.4,61.255,71.549,102.234,71.549,3.018,0,5.994-.173,8.935-.463" transform="translate(33.142 134.823)" fill="#e05301"/></g><g transform="translate(102.41 79.671)"><g clip-path="url(#cf)"><path d="M0,0,294.646,5.189,297.5,192.337,2.851,187.148Z" transform="translate(-35.915 277.818) rotate(-83.643)" fill="url(#cg)"/></g></g><g clip-path="url(#a)"><path d="M71.532,166.716s5.041,9.446-4.374,12.3c-7.707,2.337-28.644-7.092-28.644-7.092a102.274,102.274,0,0,0,30.311,24.59c18.573,9.905,41.144,11.408,41.144,11.408Z" transform="translate(46.27 149.577)" fill="#bd2601"/><path d="M132.489,46.175a71.367,71.367,0,0,0-19.174-2.654c-22.859,0-44.886,5.957-63.146,19.9-5.18,9.67-10.111,19.22-10.111,19.22,9.373-6.113,24.365-18.61,32.512-14.394,5.6,2.9,1.015,20.209,1.015,20.209Z" transform="translate(48.125 39.047)" fill="#ff7a03"/><path d="M112.383,45.33a71.381,71.381,0,0,0-15.874-1.81,115.469,115.469,0,0,0-31.874,4.318L54.047,56.2s13.305-3.257,17.836-1.305c4.451,1.918-1.6,13.734-1.6,13.734Z" transform="translate(64.931 39.046)" fill="#db6903"/><path d="M98.734,43.707c-3.344-.484-7.207-.125-10.641-.125a125.037,125.037,0,0,0-13.318.727L61.053,50.114s8.817-1.88,10.223,0-.469,8.211-.469,8.211Z" transform="translate(73.348 38.986)" fill="#c76003"/></g><g transform="translate(55.576 82.566)"><g clip-path="url(#ci)"><path d="M0,0,145.527,10.382l10.465,142.08L10.465,142.08Z" transform="matrix(0.779, -0.626, 0.626, 0.779, -55.618, 38.525)" fill="url(#cj)"/></g></g><g clip-path="url(#a)"><path d="M103.125,204.313,71.8,170.736c.359,4.1.09,11.148-5.506,13.292-6.261,2.4-22.086-7.632-22.086-7.632a70.63,70.63,0,0,0,11.4,11.119c5.988,4.663,16.594,9.334,26.172,12.975a123.972,123.972,0,0,0,21.347,3.823" transform="translate(53.113 153.183)" fill="#961e01"/><path d="M195.537,186.774c4.249,101.739-22.322,137.871-69.011,137.871-56.873,0-79.007-46.94-79.007-142.36,0-82,29.133-140.683,83.573-140.69,46.689-.008,60.166,42.535,64.445,145.179" transform="translate(57.088 37.319)" fill="#fe9201"/><path d="M110.753,147.6s-.412,17.063-10.027,18.72-15-11.1-15-11.1.194,12.095-14.7,12.258c-14.52.165-21.86-23.227-22.223-24.4C56.35,203.657,79.595,233.6,124.983,233.6c13.169,0,24.741-2.878,34.467-9.294-17.369-27.86-48.7-76.7-48.7-76.7" transform="translate(58.632 128.369)" fill="#fe7801"/><path d="M53.092,165.153c12,32.586,33.393,48.752,66.739,48.752,13.4,0,25.131-3,34.962-9.645-3.379-5.157-6.6-9.217-6.923-9.581-.881-.99-39.755-29.655-39.755-29.655s1.3,17.707-19.5,23.2c-22.357,5.9-33.08-16.942-35.526-23.068" transform="translate(63.783 148.059)" fill="#e05301"/><path d="M52.877,164.439l.015.038-.015-.038" transform="translate(63.525 147.534)" fill="#e05301"/><path d="M158,52.044c-8.4-7.1-18.89-10.448-32-10.448-32.62,0-60.43,22.6-74.241,68.4.66-1.212,20.893-38.189,35.638-38.354,14.994-.163,14.815,9.262,14.815,9.262s5.305-4.043,10.054-2.635.669,18.325.669,18.325Z" transform="translate(62.181 37.32)" fill="#ff7a03"/><path d="M130.823,49.346l1.363-1.768c-7.168-4.033-15.595-5.982-25.54-5.982A64.535,64.535,0,0,0,71.02,52.08c-1.836,4.381-3.152,7.583-3.152,7.583s16.926-7.084,24.994-2.734,7.568,14.709,7.568,14.709Z" transform="translate(81.535 37.32)" fill="#db6903"/><path d="M114.014,54.672,130.5,47.579c-8.594-4.049-13.215-5.976-25.538-5.984a69.725,69.725,0,0,0-11.443.95L82.5,48.727l-13.23,7.889S89.7,46.623,96.815,51.193c11.438,7.342,5.263,17.908,5.263,17.908Z" transform="translate(83.218 37.319)" fill="#d46603"/></g><g transform="translate(120.695 78.914)"><g clip-path="url(#cl)"><path d="M0,0,94.86,6.671l6.385,87.368L6.385,87.368Z" transform="translate(-28.099 18.575) rotate(-37.491)" fill="url(#cm)"/></g></g><g clip-path="url(#a)"><path d="M102.067,174.05s1.691,6.682-1.611,8.08c-3.61,1.525-8.75-2.692-8.75-2.692s-3.562,6.16-9.373,8.08c-8.288,2.734-20.814-2.967-20.814-2.967A54.6,54.6,0,0,0,74.5,196.663c5.95,3.827,12.061,4.864,17.294,7.317a84.786,84.786,0,0,0,17.915,1.827,69.235,69.235,0,0,0,22.3-3.409Z" transform="translate(73.906 156.157)" fill="#c42700"/><path d="M102.38,199.439a69.235,69.235,0,0,0,22.3-3.409L110.072,182.2c-4.614.744-10.507,1.643-13.208,1.85-4.775.362-9.7-2.9-9.7-2.9s.15,2.15-4.11,4.931-15.436-1.368-15.436-1.368A24.621,24.621,0,0,0,75,191.528a94.749,94.749,0,0,0,15.038,7.05,88.148,88.148,0,0,0,12.339.861" transform="translate(81.235 162.525)" fill="#961e00"/></g><g transform="translate(165.546 78.923)"><g clip-path="url(#co)"><path d="M0,0,110.056.059l.177,283.4L.177,283.4Z" transform="matrix(1, -0.004, 0.004, 1, -3.405, 0.004)" fill="url(#cp)"/></g></g><g clip-path="url(#a)"><path d="M179.181,186.788c.579,96.095-4.634,137.852-51.325,137.852-56.873,0-50.6-60.621-50.79-141.523C76.861,92.984,86.021,41.6,132.719,41.6S178.6,92.614,179.181,186.788" transform="translate(92.438 37.323)" fill="#fe9901"/><path d="M79.67,158.663l0,0,0,0" transform="translate(95.709 142.348)" fill="#ff7a03"/><path d="M77.817,243.529l6.84,5.684c-.079-.116-3.566,12.074-3.566-94.676,0-94.391,14.148-93.219,14.148-93.219l-5.521-3.589C79.653,81.782,76.952,119.418,77.064,168.647c.066,27.932-.636,53.444.753,74.882" transform="translate(92.439 51.794)" fill="#fe8701"/><path d="M174.315,99.889C170.337,61.678,159.742,41.6,130.455,41.6c-31.042,0-45.485,22.73-51.627,64.429.3-1.019,11.419-38.316,26.361-38.316,9.558,0,10.881,13.941,10.881,13.941s3.042-20.177,12.7-19.634c13.221.746,13.362,24.607,13.362,24.607S142.886,68.1,153.5,68.483c13.818.491,20.741,31.116,20.812,31.406" transform="translate(94.702 37.323)" fill="#fe8701"/></g><g transform="translate(178.838 78.923)"><g clip-path="url(#cr)"><path d="M0,0,40.7.125l.229,86.623-40.7-.125Z" transform="translate(-0.871 39.28) rotate(-88.905)" fill="url(#cs)"/></g></g><g clip-path="url(#a)"><path d="M177.33,157.2c-.037.118-3.441,11.575-12.189,12.413-10.375.99-13.45-6.024-13.45-6.024s-3.084,15.468-14.036,14.635c-12.275-.928-18.265-20.241-18.265-20.241s-4.425,16.27-17.3,16.27c-20.829,0-24.854-23.254-24.97-23.95,1.669,46.422,10.285,76.8,50.53,76.8,33.679,0,45.771-21.736,49.683-69.908" transform="translate(92.646 134.855)" fill="#fe8701"/><path d="M164.746,201.535c-2.459,3.043-7,7.64-15.451,7.194-18.87-1-21.82-17.31-21.82-17.31s-5.261,15.8-20.629,15.559c-21.074-.326-28.93-47.445-29.4-49.669,2.954,38.843,13.536,63.518,49.8,63.518,17.963,0,29.774-6.215,37.5-19.293" transform="translate(93.044 141.137)" fill="#e05301"/><path d="M139.973,197.856c-7.918-.176-14.721-5.646-14.721-5.646s-3.179,3.654-14.76,4.4c-19.48,1.246-31.064-23.888-31.064-23.888A62.6,62.6,0,0,0,91.66,195.266c4.1,4.823,6.038,5.031,11.291,7.6,6,2.7,13.21,4.136,21.919,4.136a54.757,54.757,0,0,0,20.356-3.546c9.4-4.329,13.6-10.594,13.6-10.594s-6.36,5.272-18.848,5" transform="translate(95.424 154.963)" fill="#c92901"/><path d="M128.624,189.518c-7.685-.321-11.669-4.051-11.669-4.051s-.715.772-7.207,2.316-23.542-1.154-23.542-1.154,7.98,5.494,13.888,6.739a58.235,58.235,0,0,0,16.634,2.2A54.919,54.919,0,0,0,133.06,193.3c6.934-1.5,13.27-7.228,13.27-7.228s-10.021,3.764-17.706,3.442" transform="translate(103.566 166.4)" fill="#801900"/><path d="M122.749,57.489l-5.407,3.07s10.837,17.306,10.837,94.835c0,90.358-2.344,95.288-2.344,95.288l2.6-3.88c2.014-19.754,2.4-44.379,2.217-74.269-.319-51.911-.236-90.676-7.9-115.044" transform="translate(140.972 51.579)" fill="#fe8701"/><g transform="translate(176.06 146.188)" opacity="0.49"><g clip-path="url(#cu)"><g transform="translate(0)"><g clip-path="url(#cv)"><path d="M0,0,106.865.525l.4,94.629L.4,94.629Z" transform="translate(-4.222 104.395) rotate(-88.243)" fill="url(#cw)"/></g></g></g></g></g><g transform="translate(108.716 147.31)"><g clip-path="url(#cx)"><path d="M0,0,90.988.447l.25,58.995L.25,58.995Z" transform="translate(-3.452 89.456) rotate(-88.243)" fill="url(#cy)"/></g></g><g transform="translate(61.217 146.188)"><g clip-path="url(#cz)"><path d="M0,0,65,.319l.2,47.653-65-.319Z" transform="translate(-3.147 63.762) rotate(-88.243)" fill="url(#da)"/></g></g><g transform="translate(36.866 138.328)"><g clip-path="url(#db)"><path d="M13.984,120.524l6.387-48.838,29.164,2.941-6.387,48.838Z" transform="translate(-20.067 -74.013)" fill="url(#dc)"/></g></g><g transform="translate(33.736 139.984)"><g clip-path="url(#dd)"><path d="M12.5,96.222l3.054-23.349,19.97,2.014L32.469,98.236Z" transform="translate(-18.721 -74.603)" fill="url(#de)"/></g></g><g transform="translate(93.725 130.977)"><g clip-path="url(#df)"><path d="M0,0,135.047,8.085l7.893,121.606L7.893,121.606Z" transform="translate(-42.436 19.161) rotate(-28.531)" fill="url(#dg)"/></g></g><g clip-path="url(#a)"><path d="M134.648,112.423,42.765,102.267A99.966,99.966,0,0,0,44.141,113l102.4,10.209Z" transform="translate(51.377 91.753)" fill="#a22e00"/></g><g transform="translate(243.69 134.308)"><g clip-path="url(#di)"><path d="M0,0,121.561,8.026l8.255,135.013L8.255,135.013Z" transform="translate(-41.077 62.813) rotate(-60.595)" fill="url(#dj)"/></g></g><g clip-path="url(#a)"><path d="M122.785,113.043l92.055-8.945a99.911,99.911,0,0,1-1.572,10.717L110.7,123.677Z" transform="translate(132.991 93.396)" fill="#a22e00"/></g><g transform="translate(57.788 247.603)"><g clip-path="url(#dl)"><rect width="343.029" height="62.833" transform="translate(0 0)" fill="url(#dm)"/></g></g><g clip-path="url(#a)"><path d="M268.407,177.551l-10.148-9.376-1.933,11.931a341.127,341.127,0,0,1-51.107,5.625l-12.77-15.011s-7.227,8.759-12.684,15.049a287.75,287.75,0,0,1-49.914-5.91L123.4,168.175s-4.524,3.779-9.244,7.828c-40.512-11.455-64.815-30.133-77.031-42-6.976-2.125-10.877-3.491-10.877-3.491s24,35.288,86.882,53.065c4.722-4.047,9.248-7.826,9.248-7.826l6.446,11.683a287.869,287.869,0,0,0,49.914,5.912c5.457-6.291,12.682-15.049,12.682-15.049l12.772,15.011a341.363,341.363,0,0,0,51.107-5.627l1.931-11.93,10.151,9.374c69.907-16.2,101.9-50.069,101.9-50.069s-4.3,1.326-11.921,3.345c-15.278,11.338-44.373,28.824-88.953,39.152" transform="translate(31.537 117.093)" fill="#a22e00"/></g></g></g></svg>